# This file uses centimeters as units for non-parametric coordinates.

mtllib Flower.mtl
g default
v 0.000000 -0.035737 0.707107
v 0.235702 0.037645 0.471404
v 0.471405 0.037645 0.235702
v 0.707107 -0.035737 0.000000
v -0.235702 0.037645 0.471404
v 0.000000 0.096697 0.235702
v 0.235702 0.096697 -0.000000
v 0.471404 0.037645 -0.235702
v -0.471405 0.037645 0.235702
v -0.235702 0.096697 -0.000000
v 0.000000 0.096697 -0.235702
v 0.235702 0.037645 -0.471405
v -0.707107 -0.035737 0.000000
v -0.471404 0.037645 -0.235702
v -0.235702 0.037645 -0.471405
v 0.000000 -0.035737 -0.707107
v -0.500000 -0.066217 0.500000
v -0.166667 0.007165 0.500000
v 0.166667 0.007165 0.500000
v 0.500000 -0.066217 0.500000
v -0.500000 0.007165 0.166667
v -0.166667 0.066217 0.166667
v 0.166667 0.066217 0.166667
v 0.500000 0.007165 0.166667
v -0.500000 0.007165 -0.166667
v -0.166667 0.066217 -0.166667
v 0.166667 0.066217 -0.166667
v 0.500000 0.007165 -0.166667
v -0.500000 -0.066217 -0.500000
v -0.166667 0.007165 -0.500000
v 0.166667 0.007165 -0.500000
v 0.500000 -0.066217 -0.500000
vt 0.032558 0.034040
vt 0.344576 0.034040
vt 0.655079 0.034040
vt 0.965403 0.034040
vt 0.032558 0.344880
vt 0.344576 0.344880
vt 0.653918 0.344880
vt 0.965403 0.344880
vt 0.032558 0.651999
vt 0.344576 0.651999
vt 0.653612 0.651999
vt 0.965403 0.651999
vt 0.032558 0.969077
vt 0.344576 0.969077
vt 0.654372 0.969077
vt 0.965403 0.969077
vt 0.032558 0.034040
vt 0.344576 0.034040
vt 0.344576 0.344880
vt 0.032558 0.344880
vt 0.655079 0.034040
vt 0.653918 0.344880
vt 0.965403 0.034040
vt 0.965403 0.344880
vt 0.344576 0.651999
vt 0.032558 0.651999
vt 0.653612 0.651999
vt 0.965403 0.651999
vt 0.344576 0.969077
vt 0.032558 0.969077
vt 0.654372 0.969077
vt 0.965403 0.969077
vn -0.000000 0.962730 0.270464
vn 0.060534 0.978019 0.199534
vn -0.000000 0.991381 0.131007
vn -0.060534 0.978019 0.199534
vn 0.199534 0.978019 0.060534
vn 0.131007 0.991381 -0.000000
vn 0.270464 0.962730 -0.000000
vn 0.199534 0.978019 -0.060534
vn -0.131007 0.991381 -0.000000
vn -0.199534 0.978019 0.060534
vn -0.000000 0.991381 -0.131007
vn 0.060534 0.978019 -0.199534
vn -0.199534 0.978019 -0.060534
vn -0.270464 0.962730 -0.000000
vn -0.060534 0.978019 -0.199534
vn 0.000000 0.962730 -0.270464
vn -0.191247 0.962730 0.191247
vn -0.098288 0.978019 0.183896
vn -0.092636 0.991381 0.092636
vn -0.183896 0.978019 0.098288
vn 0.098288 0.978019 0.183896
vn 0.092636 0.991381 0.092636
vn 0.191247 0.962730 0.191247
vn 0.183896 0.978019 0.098288
vn -0.092636 0.991381 -0.092636
vn -0.183896 0.978019 -0.098288
vn 0.092636 0.991381 -0.092636
vn 0.183896 0.978019 -0.098288
vn -0.098288 0.978019 -0.183896
vn -0.191247 0.962730 -0.191247
vn 0.098288 0.978019 -0.183896
vn 0.191247 0.962730 -0.191247
s 1
g pPlane3
usemtl lambert2SG
f 1/1/1 2/2/2 6/6/3 5/5/4
f 2/2/2 3/3/5 7/7/6 6/6/3
f 3/3/5 4/4/7 8/8/8 7/7/6
f 5/5/4 6/6/3 10/10/9 9/9/10
f 6/6/3 7/7/6 11/11/11 10/10/9
f 7/7/6 8/8/8 12/12/12 11/11/11
f 9/9/10 10/10/9 14/14/13 13/13/14
f 10/10/9 11/11/11 15/15/15 14/14/13
f 11/11/11 12/12/12 16/16/16 15/15/15
s 2
f 17/17/17 18/18/18 22/19/19 21/20/20
f 18/18/18 19/21/21 23/22/22 22/19/19
f 19/21/21 20/23/23 24/24/24 23/22/22
f 21/20/20 22/19/19 26/25/25 25/26/26
f 22/19/19 23/22/22 27/27/27 26/25/25
f 23/22/22 24/24/24 28/28/28 27/27/27
f 25/26/26 26/25/25 30/29/29 29/30/30
f 26/25/25 27/27/27 31/31/31 30/29/29
f 27/27/27 28/28/28 32/32/32 31/31/31
