# This file uses meters as units for non-parametric coordinates.

mtllib Grass_Tufts.mtl
g default
v -2.053513 0.000000 0.000000
v 2.053514 0.000000 0.000000
v -10.065608 15.746973 -6.981432
v -3.836556 15.746973 -6.981432
v 3.836557 15.746973 -6.981432
v 10.065608 15.746973 -6.981432
v -12.940022 25.959103 -16.021156
v -3.836556 25.959103 -16.021156
v 3.836557 25.959103 -16.021156
v 12.940022 25.959103 -16.021156
v -12.428494 33.359779 -29.181585
v -3.836556 33.359779 -29.181585
v 3.836557 33.359779 -29.181585
v 12.428494 33.359779 -29.181585
v -9.037776 35.103252 -39.269184
v -3.836556 35.103252 -39.269184
v 3.836557 35.103252 -39.269184
v 9.037776 35.103252 -39.269184
v 0.000000 35.767212 -56.302078
v -0.724682 -0.223991 1.908292
v 0.724682 0.223991 -1.908292
v -14.400679 12.030931 6.775043
v -12.202451 12.710378 0.986497
v -9.494617 13.547338 -6.143986
v -7.296392 14.226786 -11.932530
v -26.456560 18.993414 6.107163
v -23.243954 19.986393 -2.352522
v -20.536119 20.823355 -9.483006
v -17.323517 21.816334 -17.942688
v -40.145828 22.508343 0.770716
v -37.113743 23.445524 -7.213614
v -34.405910 24.282484 -14.344096
v -31.373823 25.219671 -22.328426
v -48.420265 21.775665 -6.106291
v -46.584759 22.343000 -10.939689
v -43.876930 23.179960 -18.070171
v -42.041420 23.747293 -22.903568
v -60.549381 18.721645 -20.796400
v 1.799546 -0.272165 0.951037
v -1.799548 0.272165 -0.951037
v 2.884808 7.266381 18.354879
v -2.573874 8.091958 15.470037
v -9.298024 9.108927 11.916414
v -14.756706 9.934504 9.031573
v -0.464475 9.844110 31.636602
v -8.442081 11.050651 27.420542
v -15.166231 12.067618 23.866917
v -23.143837 13.274160 19.650858
v -8.122321 8.220026 44.557449
v -15.651662 9.358773 40.578293
v -22.375811 10.375740 37.024666
v -29.905149 11.514485 33.045509
v -15.918107 4.215531 50.841236
v -20.476074 4.904883 48.432419
v -27.200222 5.921851 44.878788
v -31.758186 6.611203 42.469963
v -31.576942 -3.938870 58.622513
v 0.875077 0.116405 -1.854078
v -0.875077 -0.116405 1.854078
v 14.992991 12.748756 -3.271614
v 12.338564 12.395659 2.352482
v 9.068772 11.960703 9.280392
v 6.414348 11.607606 14.904488
v 27.007822 19.194534 -0.379844
v 23.128502 18.678497 7.839507
v 19.858711 18.243542 14.767416
v 15.979394 17.727505 22.986765
v 40.246445 21.353203 6.570519
v 36.585110 20.866161 14.328019
v 33.315315 20.431206 21.255928
v 29.653978 19.944168 29.013428
v 47.931137 19.175682 13.816224
v 45.714706 18.880848 18.512308
v 42.444916 18.445892 25.440216
v 40.228489 18.151056 30.136299
v 58.807526 13.186213 28.583485
vt 0.472060 0.001994
vt 0.527909 0.001992
vt 0.363119 0.236231
vt 0.447823 0.236226
vt 0.552163 0.236223
vt 0.636866 0.236220
vt 0.324034 0.421691
vt 0.447829 0.421683
vt 0.552170 0.421681
vt 0.675966 0.421675
vt 0.330996 0.627012
vt 0.447839 0.627010
vt 0.552178 0.627004
vt 0.669020 0.626998
vt 0.377114 0.766221
vt 0.447843 0.766221
vt 0.552184 0.766217
vt 0.622913 0.766212
vt 0.500022 0.998008
vt 0.472060 0.001994
vt 0.447823 0.236226
vt 0.363119 0.236231
vt 0.527909 0.001992
vt 0.552163 0.236223
vt 0.636866 0.236220
vt 0.447829 0.421683
vt 0.324034 0.421691
vt 0.552170 0.421681
vt 0.675966 0.421675
vt 0.447839 0.627010
vt 0.330996 0.627012
vt 0.552178 0.627004
vt 0.669020 0.626998
vt 0.447843 0.766221
vt 0.377114 0.766221
vt 0.552184 0.766217
vt 0.622913 0.766212
vt 0.500022 0.998008
vt 0.472060 0.001994
vt 0.447823 0.236226
vt 0.363119 0.236231
vt 0.527909 0.001992
vt 0.552163 0.236223
vt 0.636866 0.236220
vt 0.447829 0.421683
vt 0.324034 0.421691
vt 0.552170 0.421681
vt 0.675966 0.421675
vt 0.447839 0.627010
vt 0.330996 0.627012
vt 0.552178 0.627004
vt 0.669020 0.626998
vt 0.447843 0.766221
vt 0.377114 0.766221
vt 0.552184 0.766217
vt 0.622913 0.766212
vt 0.500022 0.998008
vt 0.472060 0.001994
vt 0.447823 0.236226
vt 0.363119 0.236231
vt 0.527909 0.001992
vt 0.552163 0.236223
vt 0.636866 0.236220
vt 0.447829 0.421683
vt 0.324034 0.421691
vt 0.552170 0.421681
vt 0.675966 0.421675
vt 0.447839 0.627010
vt 0.330996 0.627012
vt 0.552178 0.627004
vt 0.669020 0.626998
vt 0.447843 0.766221
vt 0.377114 0.766221
vt 0.552184 0.766217
vt 0.622913 0.766212
vt 0.500022 0.998008
vn 0.000000 0.405303 0.914182
vn 0.000000 0.560905 0.827880
vn 0.000000 0.604562 0.796558
vn 0.000000 0.405303 0.914182
vn 0.000000 0.560905 0.827880
vn 0.000000 0.604562 0.796558
vn 0.000000 0.787250 0.616634
vn 0.000000 0.796794 0.604251
vn 0.000000 0.787250 0.616634
vn 0.000000 0.796794 0.604251
vn 0.000000 0.926793 0.375573
vn 0.000000 0.915797 0.401641
vn 0.000000 0.926793 0.375573
vn 0.000000 0.915797 0.401641
vn 0.000000 0.993278 0.115756
vn 0.000000 0.990738 0.135785
vn 0.000000 0.993278 0.115756
vn 0.000000 0.990738 0.135785
vn 0.000000 0.999241 0.038952
vn 0.691959 0.638099 0.337673
vn 0.569387 0.763078 0.305796
vn 0.528685 0.796193 0.294226
vn 0.691959 0.638099 0.337673
vn 0.569387 0.763078 0.305796
vn 0.528685 0.796193 0.294226
vn 0.314994 0.921358 0.227767
vn 0.301181 0.927079 0.223193
vn 0.314994 0.921358 0.227767
vn 0.301181 0.927079 0.223193
vn 0.059763 0.988526 0.138726
vn 0.086153 0.985174 0.148355
vn 0.059763 0.988526 0.138726
vn 0.086153 0.985174 0.148355
vn -0.190546 0.980747 0.042757
vn -0.172014 0.983817 0.050155
vn -0.190546 0.980747 0.042757
vn -0.172014 0.983817 0.050156
vn -0.260497 0.965367 0.014387
vn 0.336597 0.856236 -0.391871
vn 0.270195 0.931170 -0.244781
vn 0.248384 0.948068 -0.198675
vn 0.336597 0.856236 -0.391871
vn 0.270195 0.931170 -0.244781
vn 0.248384 0.948068 -0.198675
vn 0.135259 0.990429 0.027501
vn 0.128015 0.990910 0.041347
vn 0.135259 0.990429 0.027501
vn 0.128015 0.990910 0.041347
vn 0.002489 0.962639 0.270776
vn 0.016115 0.968934 0.246794
vn 0.002489 0.962639 0.270776
vn 0.016115 0.968934 0.246794
vn -0.125623 0.865263 0.485323
vn -0.116209 0.874848 0.470252
vn -0.125623 0.865264 0.485322
vn -0.116209 0.874848 0.470252
vn -0.161049 0.825478 0.540970
vn -0.657476 0.704940 -0.266053
vn -0.536941 0.819080 -0.201998
vn -0.497059 0.848560 -0.181324
vn -0.657476 0.704940 -0.266053
vn -0.536941 0.819080 -0.201998
vn -0.497059 0.848560 -0.181324
vn -0.288504 0.954438 -0.076244
vn -0.275063 0.958902 -0.069620
vn -0.288504 0.954438 -0.076244
vn -0.275063 0.958902 -0.069620
vn -0.040816 0.998223 0.043408
vn -0.066365 0.997305 0.031292
vn -0.040816 0.998223 0.043408
vn -0.066365 0.997305 0.031291
vn 0.200835 0.967203 0.155513
vn 0.182987 0.972004 0.147390
vn 0.200835 0.967203 0.155513
vn 0.182986 0.972004 0.147390
vn 0.268141 0.945273 0.185903
s 1
g Grass_Mesh
usemtl initialShadingGroup
f 1/1/1 4/4/2 3/3/3
f 1/1/1 2/2/4 5/5/5 4/4/2
f 2/2/4 6/6/6 5/5/5
f 3/3/3 4/4/2 8/8/7 7/7/8
f 4/4/2 5/5/5 9/9/9 8/8/7
f 5/5/5 6/6/6 10/10/10 9/9/9
f 7/7/8 8/8/7 12/12/11 11/11/12
f 8/8/7 9/9/9 13/13/13 12/12/11
f 9/9/9 10/10/10 14/14/14 13/13/13
f 11/11/12 12/12/11 16/16/15 15/15/16
f 12/12/11 13/13/13 17/17/17 16/16/15
f 13/13/13 14/14/14 18/18/18 17/17/17
f 15/15/16 16/16/15 19/19/19
f 16/16/15 17/17/17 19/19/19
f 17/17/17 18/18/18 19/19/19
s 2
f 20/20/20 23/21/21 22/22/22
f 20/20/20 21/23/23 24/24/24 23/21/21
f 21/23/23 25/25/25 24/24/24
f 22/22/22 23/21/21 27/26/26 26/27/27
f 23/21/21 24/24/24 28/28/28 27/26/26
f 24/24/24 25/25/25 29/29/29 28/28/28
f 26/27/27 27/26/26 31/30/30 30/31/31
f 27/26/26 28/28/28 32/32/32 31/30/30
f 28/28/28 29/29/29 33/33/33 32/32/32
f 30/31/31 31/30/30 35/34/34 34/35/35
f 31/30/30 32/32/32 36/36/36 35/34/34
f 32/32/32 33/33/33 37/37/37 36/36/36
f 34/35/35 35/34/34 38/38/38
f 35/34/34 36/36/36 38/38/38
f 36/36/36 37/37/37 38/38/38
s 3
f 39/39/39 42/40/40 41/41/41
f 39/39/39 40/42/42 43/43/43 42/40/40
f 40/42/42 44/44/44 43/43/43
f 41/41/41 42/40/40 46/45/45 45/46/46
f 42/40/40 43/43/43 47/47/47 46/45/45
f 43/43/43 44/44/44 48/48/48 47/47/47
f 45/46/46 46/45/45 50/49/49 49/50/50
f 46/45/45 47/47/47 51/51/51 50/49/49
f 47/47/47 48/48/48 52/52/52 51/51/51
f 49/50/50 50/49/49 54/53/53 53/54/54
f 50/49/49 51/51/51 55/55/55 54/53/53
f 51/51/51 52/52/52 56/56/56 55/55/55
f 53/54/54 54/53/53 57/57/57
f 54/53/53 55/55/55 57/57/57
f 55/55/55 56/56/56 57/57/57
s 4
f 58/58/58 61/59/59 60/60/60
f 58/58/58 59/61/61 62/62/62 61/59/59
f 59/61/61 63/63/63 62/62/62
f 60/60/60 61/59/59 65/64/64 64/65/65
f 61/59/59 62/62/62 66/66/66 65/64/64
f 62/62/62 63/63/63 67/67/67 66/66/66
f 64/65/65 65/64/64 69/68/68 68/69/69
f 65/64/64 66/66/66 70/70/70 69/68/68
f 66/66/66 67/67/67 71/71/71 70/70/70
f 68/69/69 69/68/68 73/72/72 72/73/73
f 69/68/68 70/70/70 74/74/74 73/72/72
f 70/70/70 71/71/71 75/75/75 74/74/74
f 72/73/73 73/72/72 76/76/76
f 73/72/72 74/74/74 76/76/76
f 74/74/74 75/75/75 76/76/76
