# This file uses centimeters as units for non-parametric coordinates.

mtllib Wall.mtl
g default
v -510.909232 -2.147017 1236.171281
v -652.658211 138.557812 1195.063854
v -772.839716 144.718563 1092.882761
v -933.957752 142.676188 1035.804790
v -1057.231590 135.348158 929.864395
v -1149.789547 135.348158 783.718513
v -1179.382741 135.348158 594.237379
v -1153.925305 -8.851414 414.936000
v -1124.627358 -8.851414 578.371703
v -1095.034628 -8.851414 767.852930
v -1025.591456 -8.851414 882.435313
v -902.317432 -6.495377 988.375831
v -740.270002 -8.642391 1044.060229
v -636.776137 -2.147017 1140.302965
v -1234.140969 -8.851414 610.106516
v -1204.550341 -8.851414 799.589690
v -1088.870209 -8.851414 977.291004
v -965.596417 -6.495377 1083.231770
v -805.411998 -8.642391 1141.709342
v -668.538193 -2.147017 1249.812469
v -1153.925305 67.024968 414.936000
v -1234.140969 67.024968 610.106516
v -1204.550341 67.024968 799.589690
v -1088.870642 67.024968 977.291251
v -965.596386 71.997211 1083.231523
v -805.411998 58.538995 1141.709342
v -668.538395 71.890443 1249.813675
v -510.909232 71.890443 1236.171281
v -636.776292 71.890443 1140.302996
v -740.270002 58.538995 1044.060229
v -902.317432 71.997211 988.375831
v -1025.591456 67.024968 882.435313
v -1095.034937 67.024968 767.852992
v -1124.627358 67.024968 578.371703
v -534.707934 -71.586095 1276.540516
v -523.556165 -60.224384 1279.778171
v -537.943473 -60.224384 1287.698805
v -510.909232 -60.224384 1236.171281
v -522.061716 -71.586095 1232.937034
v -506.181462 -60.224384 1178.188064
v -498.263727 -60.224384 1192.575096
v -509.415747 -71.586095 1189.337541
v -523.556165 127.196116 1279.778171
v -534.707934 138.557812 1276.540516
v -537.943473 127.196116 1287.698805
v -522.061716 138.557812 1232.937034
v -510.909232 127.196116 1236.171281
v -506.181462 127.196116 1178.188064
v -509.415747 138.557812 1189.337541
v -498.263727 127.196116 1192.575096
v -1215.577528 124.526750 416.957261
v -1204.035246 135.348158 420.024064
v -1199.746086 124.526750 408.878789
v -1155.450948 135.348158 426.445407
v -1153.925305 123.704242 414.936000
v -1110.623764 121.980831 420.658836
v -1116.610823 135.348158 431.580797
v -1104.354514 121.980831 433.783468
v -1215.577528 -69.193806 416.957261
v -1199.746086 -69.193806 408.878789
v -1204.035246 -80.015172 420.024064
v -1153.925305 -68.371313 414.936000
v -1155.450948 -80.015172 426.445407
v -1116.610823 -80.015172 431.580797
v -1110.623764 -66.647908 420.658836
v -1104.354514 -66.647908 433.783468
v -523.556165 -2.147017 1279.778171
v -537.943473 -2.147017 1287.698805
v -498.263727 -2.147017 1192.575096
v -506.181462 -2.147017 1178.188064
v -537.943473 71.890443 1287.698805
v -523.556165 71.890443 1279.778171
v -498.263727 71.890443 1192.575096
v -506.181462 71.890443 1178.188064
v -666.745121 138.557812 1238.246687
v -668.538395 127.196116 1249.813675
v -638.558763 138.557812 1151.882416
v -636.776292 127.196116 1140.302996
v -798.333450 144.718563 1131.098627
v -805.411998 130.031527 1141.709342
v -747.347669 144.718563 1054.669522
v -740.270002 130.031527 1044.060229
v -960.003330 142.676188 1073.007142
v -965.596417 130.630801 1083.231368
v -907.937676 142.676188 998.586630
v -902.317354 130.630801 988.375615
v -1081.492405 135.348158 968.257643
v -1088.870302 123.704242 977.290942
v -1032.883852 135.348158 891.530876
v -1025.591456 123.704242 882.435313
v -1193.866213 135.348158 794.751860
v -1204.550341 123.704242 799.589690
v -1105.687483 135.348158 772.792429
v -1095.034535 123.704242 767.852590
v -1223.905035 135.348158 603.709497
v -1234.140969 123.704242 610.106516
v -1134.951189 135.348158 584.451320
v -1124.625255 123.704242 578.369756
v -1200.561908 67.024968 408.769801
v -1215.191092 67.024968 416.233459
v -1112.327476 67.024968 420.433387
v -1105.247447 67.024968 435.252153
v -1200.561908 -8.851414 408.769801
v -1215.191092 -8.851414 416.233459
v -1105.247447 -8.851414 435.252153
v -1112.327476 -8.851414 420.433387
v -1234.140969 -68.371313 610.106516
v -1124.627358 -68.371313 578.371703
v -1204.550341 -68.371313 799.589690
v -1095.034628 -68.371313 767.852930
v -1088.870209 -68.371313 977.291004
v -1025.591456 -68.371313 882.435313
v -965.596417 -68.067474 1083.231770
v -902.317432 -68.067474 988.375831
v -805.411998 -83.717905 1141.709342
v -740.270002 -83.717905 1044.060229
v -668.538193 -60.224384 1249.812469
v -636.776137 -60.224384 1140.302965
vt 0.217737 0.811197
vt 0.217737 0.681629
vt 0.314857 0.681629
vt 0.314857 0.811197
vt 0.314857 0.595704
vt 0.314857 0.491570
vt 0.217737 0.595704
vt 0.314857 0.381054
vt 0.217737 0.491570
vt 0.217737 0.381054
vt 0.631423 0.381054
vt 0.631424 0.279464
vt 0.631423 0.491570
vt 0.217737 0.279464
vt 0.631423 0.595704
vt 0.314857 0.279464
vt 0.631423 0.681629
vt 0.730763 0.279464
vt 0.631423 0.811197
vt 0.730763 0.381054
vt 0.730763 0.491570
vt 0.730763 0.595704
vt 0.730763 0.681629
vt 0.730763 0.811197
vt 0.183455 0.054950
vt 0.399990 0.054950
vt 0.379287 0.092861
vt 0.314857 0.092861
vt 0.128020 0.054950
vt 0.407218 0.092861
vt 0.486154 0.026376
vt 0.486154 0.092861
vt 0.407218 0.279464
vt 0.379287 0.279464
vt 0.570812 0.054950
vt 0.544628 0.092861
vt 0.570812 0.092861
vt 0.631423 0.054950
vt 0.128020 0.026376
vt 0.570812 0.279464
vt 0.544628 0.279464
vt 0.379287 0.933924
vt 0.407218 0.945403
vt 0.314857 0.945403
vt 0.845001 0.026376
vt 0.407218 0.933924
vt 0.379287 0.811197
vt 0.407218 0.811197
vt 0.486154 0.933924
vt 0.486154 0.978376
vt 0.544628 0.933924
vt 0.570812 0.945403
vt 0.570812 0.933924
vt 0.631424 0.933924
vt 0.183455 0.068317
vt 0.544628 0.811197
vt 0.570812 0.811197
vt 0.217737 0.054950
vt 0.217737 0.092861
vt 0.845001 0.054950
vt 0.807114 0.054950
vt 0.807114 0.092861
vt 0.730763 0.092861
vt 0.730763 0.054950
vt 0.183455 0.945403
vt 0.183455 0.933924
vt 0.217737 0.933924
vt 0.217737 0.945403
vt 0.128020 0.945403
vt 0.407218 0.381054
vt 0.379287 0.381054
vt 0.570812 0.381054
vt 0.544628 0.381054
vt 0.407218 0.491570
vt 0.379287 0.491570
vt 0.570812 0.491570
vt 0.544628 0.491570
vt 0.407218 0.595704
vt 0.379287 0.595704
vt 0.570812 0.595704
vt 0.544628 0.595704
vt 0.407218 0.681629
vt 0.379287 0.681629
vt 0.570812 0.681629
vt 0.544628 0.681629
vt 0.183455 0.978376
vt 0.845001 0.978376
vt 0.486154 0.279464
vt 0.486154 0.381054
vt 0.486154 0.491570
vt 0.486154 0.595704
vt 0.486154 0.681629
vt 0.486153 0.811197
vt 0.631424 0.978376
vt 0.807114 0.945403
vt 0.845001 0.945403
vt 0.807114 0.933924
vt 0.730763 0.945403
vt 0.730763 0.933924
vt 0.314857 0.054950
vt 0.631423 0.092861
vt 0.314857 0.933924
vt 0.631424 0.945403
vt 0.730763 0.026376
vt 0.730763 0.978376
vt 0.807114 0.811197
vt 0.807114 0.681629
vt 0.807114 0.595704
vt 0.807114 0.491570
vt 0.807114 0.381054
vt 0.314857 0.026376
vt 0.807114 0.279464
vt 0.183455 0.811197
vt 0.183455 0.681629
vt 0.183455 0.595704
vt 0.183455 0.491570
vt 0.183455 0.381054
vt 0.183455 0.279464
vt 0.631423 0.026376
vt 0.217737 0.978376
vt 0.807114 0.978376
vt 0.128020 0.978376
vt 0.183455 0.026376
vt 0.217737 0.026376
vt 0.845001 0.026376
vt 0.314857 0.978376
vn -0.988025 0.000000 0.154295
vn -0.929870 -0.000001 0.367888
vn -0.929870 -0.000000 0.367888
vn -0.988025 0.000000 0.154295
vn -0.764058 -0.000001 0.645147
vn -0.763880 0.000001 0.645359
vn -0.499879 0.000001 0.866095
vn -0.499982 0.000002 0.866036
vn -0.487081 -0.000002 0.873357
vn -0.487095 -0.000002 0.873349
vn -0.482326 -0.000005 0.875992
vn -0.481861 -0.000005 0.876248
vn 0.501117 0.000000 -0.865380
vn 0.493947 0.000000 -0.869492
vn 0.494034 -0.000001 -0.869442
vn 0.500468 0.000000 -0.865755
vn 0.490901 0.000000 -0.871216
vn 0.491009 -0.000001 -0.871154
vn 0.752153 0.000001 -0.658988
vn 0.751949 -0.000001 -0.659221
vn 0.950836 0.000001 -0.309695
vn 0.950837 -0.000006 -0.309693
vn 0.999533 0.001105 -0.030526
vn 0.999533 -0.001137 -0.030554
vn 0.671680 -0.714771 0.194804
vn 0.671680 -0.714771 0.194804
vn 0.671675 -0.714773 0.194812
vn 0.671675 -0.714773 0.194812
vn 0.482275 0.000000 0.876020
vn 0.482275 0.000000 0.876020
vn 0.482275 0.000000 0.876020
vn 0.482275 0.000000 0.876020
vn 0.671671 -0.714775 0.194821
vn 0.671671 -0.714775 0.194821
vn 0.876091 0.000000 -0.482146
vn 0.876091 0.000000 -0.482146
vn 0.876091 0.000000 -0.482146
vn 0.876091 0.000000 -0.482146
vn 0.482275 0.000000 0.876020
vn 0.482275 0.000000 0.876020
vn 0.482275 0.000000 0.876020
vn 0.482275 0.000000 0.876020
vn 0.671678 0.714773 0.194803
vn 0.671678 0.714773 0.194803
vn 0.671674 0.714774 0.194812
vn 0.671674 0.714774 0.194812
vn -0.194814 0.714811 0.671634
vn -0.194814 0.714811 0.671634
vn -0.364774 0.687064 0.628397
vn -0.325683 0.695574 0.640397
vn 0.671670 0.714775 0.194821
vn 0.671670 0.714775 0.194821
vn 0.876091 0.000000 -0.482146
vn 0.876091 0.000000 -0.482146
vn 0.876091 0.000000 -0.482146
vn 0.876091 0.000000 -0.482146
vn 0.194817 0.714808 -0.671637
vn 0.194817 0.714808 -0.671637
vn 0.401384 0.685220 -0.607754
vn 0.350146 0.695949 -0.626939
vn -0.454479 0.008147 -0.890720
vn -0.454479 0.008147 -0.890720
vn -0.454473 0.003608 -0.890753
vn -0.454473 0.003608 -0.890753
vn -0.621735 0.754061 -0.211750
vn -0.717076 0.691147 -0.090098
vn -0.718167 0.694387 0.045421
vn -0.720557 0.693393 0.001674
vn 0.060567 0.715106 -0.696387
vn 0.103331 0.701441 -0.705197
vn 0.103415 0.701196 -0.705429
vn 0.109916 0.681718 -0.723311
vn 0.109916 0.681718 -0.723311
vn 0.902013 -0.026184 -0.430914
vn 0.902013 -0.026184 -0.430914
vn 0.902262 -0.010559 -0.431060
vn 0.902262 -0.010559 -0.431060
vn 0.746143 0.659254 0.093033
vn 0.746143 0.659254 0.093033
vn 0.726605 0.685650 -0.043920
vn 0.734932 0.678135 0.002940
vn -0.454481 -0.007764 -0.890723
vn -0.454481 -0.007764 -0.890723
vn -0.454474 -0.003530 -0.890753
vn -0.454474 -0.003530 -0.890753
vn 0.044480 -0.713050 -0.699701
vn 0.060567 -0.715108 -0.696386
vn 0.103415 -0.701197 -0.705428
vn 0.103331 -0.701442 -0.705196
vn 0.109917 -0.681719 -0.723310
vn 0.109917 -0.681719 -0.723310
vn 0.902043 0.024899 -0.430928
vn 0.902043 0.024899 -0.430928
vn 0.902264 0.010347 -0.431061
vn 0.902264 0.010347 -0.431061
vn -0.359163 0.668627 0.651107
vn -0.353836 0.668750 0.653891
vn 0.379016 0.665927 -0.642564
vn 0.370890 0.666315 -0.646889
vn -0.369950 0.687595 0.624780
vn -0.369587 0.687549 0.625046
vn 0.339830 0.686612 -0.642712
vn 0.335931 0.685927 -0.645488
vn -0.557886 0.699468 0.446663
vn -0.550887 0.699369 0.455419
vn 0.530889 0.703670 -0.472235
vn 0.514588 0.703654 -0.489971
vn -0.662574 0.703701 0.256517
vn -0.659521 0.703788 0.264036
vn 0.678328 0.701609 -0.218209
vn 0.674824 0.701895 -0.227941
vn 0.960424 0.000000 0.278543
vn 0.960419 0.000000 0.278560
vn 0.960419 0.000000 0.278560
vn 0.960424 0.000000 0.278544
vn 0.960414 0.000000 0.278577
vn 0.960414 0.000000 0.278577
vn 0.960424 0.000000 0.278544
vn 0.960419 0.000000 0.278560
vn 0.960419 0.000000 0.278560
vn 0.960424 0.000000 0.278543
vn 0.960414 0.000000 0.278578
vn 0.960414 0.000000 0.278578
vn 0.000000 1.000000 0.000000
vn 0.000000 1.000000 0.000000
vn 0.019054 0.999776 0.009266
vn 0.016570 0.999830 0.008057
vn 0.000000 1.000000 0.000000
vn 0.021615 0.999711 0.010514
vn 0.012032 0.999916 0.004802
vn 0.010808 0.999933 0.004184
vn 0.013241 0.999898 0.005412
vn -0.023788 0.999590 -0.015932
vn -0.024666 0.999560 -0.016502
vn -0.023065 0.999614 -0.015465
vn -0.018680 0.999748 -0.012443
vn -0.022028 0.999650 -0.014659
vn -0.016586 0.999801 -0.011057
vn -0.000000 1.000000 -0.000000
vn -0.000000 1.000000 -0.000000
vn -0.000000 1.000000 -0.000000
vn -0.000000 1.000000 -0.000000
vn -0.000000 1.000000 -0.000000
vn 0.000000 1.000000 0.000000
vn -0.000000 1.000000 -0.000000
vn -0.000000 1.000000 -0.000000
vn 0.000000 1.000000 0.000000
vn 0.131066 0.000010 -0.991374
vn 0.131045 0.000007 -0.991377
vn 0.131047 0.000003 -0.991376
vn 0.131072 0.000004 -0.991373
vn 0.131020 0.000003 -0.991380
vn 0.131018 0.000001 -0.991380
vn 0.131072 -0.000004 -0.991373
vn 0.131047 -0.000003 -0.991376
vn 0.131045 -0.000007 -0.991377
vn 0.131066 -0.000010 -0.991374
vn 0.131018 -0.000001 -0.991380
vn 0.131020 -0.000003 -0.991380
vn 0.999521 0.002507 -0.030857
vn 0.990614 0.005830 0.136564
vn 0.990810 0.002575 0.135237
vn 0.950836 0.000000 -0.309695
vn 0.752158 0.000000 -0.658983
vn 0.478211 0.000000 -0.878245
vn 0.489602 0.000000 -0.871946
vn 0.521139 0.000000 -0.853472
vn 0.278610 0.000000 -0.960404
vn 0.278610 0.000000 -0.960404
vn 0.990814 -0.002639 0.135207
vn 0.990613 -0.006143 0.136560
vn 0.999519 -0.002655 -0.030905
vn 0.950837 -0.000017 -0.309690
vn 0.750707 -0.000003 -0.660635
vn 0.480699 -0.000002 -0.876886
vn 0.492872 -0.000002 -0.870102
vn 0.512408 0.000000 -0.858742
vn 0.278610 0.000000 -0.960404
vn 0.278610 0.000000 -0.960404
vn -0.995331 0.002626 -0.096481
vn -0.995331 0.002626 -0.096481
vn -0.995291 0.001158 -0.096928
vn -0.995291 0.001153 -0.096930
vn -0.988025 0.000000 0.154295
vn -0.929870 0.000000 0.367888
vn -0.764062 0.000000 0.645143
vn -0.487888 0.000000 0.872906
vn -0.485259 0.000000 0.874371
vn -0.497106 0.000000 0.867690
vn -0.278619 0.000000 0.960402
vn -0.278616 -0.000005 0.960403
vn -0.995290 -0.001177 -0.096939
vn -0.995290 -0.001183 -0.096937
vn -0.995331 -0.002757 -0.096481
vn -0.995331 -0.002757 -0.096481
vn -0.929870 0.000002 0.367888
vn -0.988025 0.000000 0.154295
vn -0.762790 0.000004 0.646646
vn -0.490256 0.000002 0.871578
vn -0.486415 0.000000 0.873728
vn -0.491315 0.000000 0.870982
vn -0.278612 -0.000005 0.960404
vn -0.278610 0.000000 0.960404
vn 0.390828 -0.585900 0.709912
vn 0.390828 -0.585900 0.709912
vn 0.390828 -0.585900 0.709912
vn 0.710124 -0.585657 -0.390807
vn 0.710124 -0.585657 -0.390807
vn 0.710124 -0.585657 -0.390807
vn 0.390829 0.585898 0.709913
vn 0.390829 0.585897 0.709914
vn 0.390829 0.585898 0.709913
vn 0.710124 0.585657 -0.390807
vn 0.710124 0.585657 -0.390807
vn 0.710124 0.585657 -0.390807
vn 0.719685 0.603219 -0.343774
vn 0.719685 0.603219 -0.343774
vn 0.719685 0.603219 -0.343775
vn -0.365850 -0.593406 -0.716954
vn 0.719684 -0.603222 -0.343771
vn 0.719684 -0.603222 -0.343771
vn 0.719684 -0.603222 -0.343771
s 1
g polySurface114 polySurface23
usemtl lambert7SG
f 15/1/1 16/2/2 23/3/3 22/4/4
f 16/2/2 17/7/5 24/5/6 23/3/3
f 17/7/5 18/9/7 25/6/8 24/5/6
f 18/9/7 19/10/9 26/8/10 25/6/8
f 19/10/9 20/14/11 27/16/12 26/8/10
s 2
f 14/18/13 13/20/14 30/11/15 29/12/16
f 13/20/14 12/21/17 31/13/18 30/11/15
f 12/21/17 11/22/19 32/15/20 31/13/18
f 11/22/19 10/23/21 33/17/22 32/15/20
f 10/23/21 9/24/23 34/19/24 33/17/22
s 3
f 36/25/25 35/29/26 39/39/27 38/123/28
s 4
f 37/55/29 36/25/30 67/58/31 68/59/32
s 3
f 38/45/28 39/125/27 42/60/33 41/61/34
s 5
f 41/61/35 40/62/36 70/63/37 69/64/38
s 4
f 43/26/39 45/27/40 71/28/41 72/100/42
s 6
f 44/30/43 43/26/44 47/31/45 46/32/46
s 7
f 45/27/47 44/30/48 75/33/49 76/34/50
s 6
f 46/32/46 47/31/45 50/35/51 49/36/52
s 5
f 48/37/53 50/35/54 73/38/55 74/101/56
s 8
f 49/36/57 48/37/58 78/40/59 77/41/60
s 9
f 51/42/61 53/43/62 99/44/63 100/102/64
s 7
f 52/46/65 51/42/66 96/47/67 95/48/68
f 53/43/69 52/46/65 54/49/70 55/50/71
f 55/50/71 54/49/70 57/51/72 56/52/73
s 11
f 56/52/74 58/53/75 102/54/76 101/103/77
s 8
f 58/53/78 57/51/79 97/56/80 98/57/81
s 9
f 60/65/82 59/66/83 104/67/84 103/68/85
s 13
f 61/69/86 60/65/87 62/86/88 63/122/89
f 63/87/89 62/121/88 65/95/90 64/96/91
s 11
f 66/97/92 65/95/93 106/98/94 105/99/95
s 4
f 68/59/32 67/58/31 72/100/42 71/28/41
s 5
f 69/64/38 70/63/37 74/101/56 73/38/55
s 7
f 76/34/50 75/33/49 79/70/96 80/71/97
s 8
f 77/41/60 78/40/59 82/72/98 81/73/99
s 7
f 80/71/97 79/70/96 83/74/100 84/75/101
s 8
f 81/73/99 82/72/98 86/76/102 85/77/103
s 7
f 84/75/101 83/74/100 87/78/104 88/79/105
s 8
f 85/77/103 86/76/102 90/80/106 89/81/107
s 7
f 88/79/105 87/78/104 91/82/108 92/83/109
s 8
f 89/81/107 90/80/106 94/84/110 93/85/111
s 7
f 92/83/109 91/82/108 95/48/68 96/47/67
s 8
f 93/85/111 94/84/110 98/57/81 97/56/80
s 9
f 100/102/64 99/44/63 103/68/85 104/67/84
s 11
f 101/103/77 102/54/76 105/99/95 106/98/94
s 14
f 36/25/112 38/123/113 1/124/114 67/58/115
f 38/45/113 41/61/116 69/64/117 1/104/114
f 72/100/118 28/111/119 47/31/120 43/26/121
f 28/119/119 73/38/122 50/35/123 47/31/120
s 15
f 44/30/124 46/32/125 2/88/126 75/33/127
f 46/32/125 49/36/128 77/41/129 2/88/126
f 75/33/127 2/88/126 3/89/130 79/70/131
f 2/88/126 77/41/129 81/73/132 3/89/130
f 79/70/131 3/89/130 4/90/133 83/74/134
f 3/89/130 81/73/132 85/77/135 4/90/133
f 83/74/134 4/90/133 5/91/136 87/78/137
f 4/90/133 85/77/135 89/81/138 5/91/136
f 87/78/137 5/91/136 6/92/139 91/82/140
f 5/91/136 89/81/138 93/85/141 6/92/139
f 91/82/140 6/92/139 7/93/142 95/48/143
f 6/92/139 93/85/141 97/56/144 7/93/142
f 95/48/143 7/93/142 54/49/145 52/46/146
f 7/93/142 97/56/144 57/51/147 54/49/145
s 16
f 53/43/148 55/50/149 21/126/150 99/44/151
f 55/50/149 56/52/152 101/103/153 21/94/150
f 103/68/154 8/120/155 62/86/156 60/65/157
f 8/105/155 106/98/158 65/95/159 62/121/156
s 2
f 108/106/160 66/97/161 105/99/162 9/24/23
f 110/107/163 108/106/160 9/24/23 10/23/21
f 112/108/164 110/107/163 10/23/21 11/22/19
f 114/109/165 112/108/164 11/22/19 12/21/17
f 116/110/166 114/109/165 12/21/17 13/20/14
f 118/112/167 116/110/166 13/20/14 14/18/13
f 40/62/168 118/112/167 14/18/13 70/63/169
f 34/19/24 102/54/170 58/53/171 98/57/172
f 33/17/22 34/19/24 98/57/172 94/84/173
f 32/15/20 33/17/22 94/84/173 90/80/174
f 31/13/18 32/15/20 90/80/174 86/76/175
f 30/11/15 31/13/18 86/76/175 82/72/176
f 29/12/16 30/11/15 82/72/176 78/40/177
f 74/101/178 29/12/16 78/40/177 48/37/179
s 17
f 59/66/180 107/113/181 15/1/182 104/67/183
s 1
f 107/113/184 109/114/185 16/2/2 15/1/1
f 109/114/185 111/115/186 17/7/5 16/2/2
f 111/115/186 113/116/187 18/9/7 17/7/5
f 113/116/187 115/117/188 19/10/9 18/9/7
f 115/117/188 117/118/189 20/14/11 19/10/9
f 117/118/189 37/55/190 68/59/191 20/14/11
s 17
f 100/102/192 22/4/193 96/47/194 51/42/195
s 1
f 22/4/4 23/3/3 92/83/196 96/47/197
f 23/3/3 24/5/6 88/79/198 92/83/196
f 24/5/6 25/6/8 84/75/199 88/79/198
f 25/6/8 26/8/10 80/71/200 84/75/199
f 26/8/10 27/16/12 76/34/201 80/71/200
f 27/16/12 71/28/202 45/27/203 76/34/201
s 16
f 21/94/150 101/103/153 106/98/158 8/105/155
f 99/44/151 21/126/150 8/120/155 103/68/154
s 17
f 104/67/183 15/1/182 22/4/193 100/102/192
s 1
f 20/14/11 68/59/191 71/28/202 27/16/12
s 14
f 67/58/115 1/124/114 28/111/119 72/100/118
f 1/104/114 69/64/117 73/38/122 28/119/119
s 2
f 70/63/169 14/18/13 29/12/16 74/101/178
f 9/24/23 105/99/162 102/54/170 34/19/24
s off
f 35/29/204 36/25/205 37/55/206
f 40/62/207 41/61/208 42/60/209
f 43/26/210 44/30/211 45/27/212
f 48/37/213 49/36/214 50/35/215
s 7
f 51/42/66 52/46/65 53/43/69
s off
f 56/52/216 57/51/217 58/53/218
s 13
f 59/66/219 60/65/87 61/69/86
s off
f 64/96/220 65/95/221 66/97/222
