# This file uses centimeters as units for non-parametric coordinates.

mtllib Wall.mtl
g default
v -510.909273 -2.147018 1236.171334
v -652.658233 138.557812 1195.063856
v -772.839737 144.718563 1092.882760
v -933.957767 142.676187 1035.804710
v -1057.231539 135.348157 929.864376
v -1149.789580 135.348157 783.718472
v -1179.382790 135.348157 594.237384
v -1153.925388 -8.851414 414.935957
v -1124.627370 -8.851414 578.371711
v -1095.034606 -8.851414 767.852911
v -1025.591494 -8.851414 882.435244
v -902.317443 -6.495378 988.375801
v -740.270027 -8.642392 1044.060273
v -636.776174 -2.147018 1140.302974
v -1234.140998 -8.851414 610.106512
v -1204.550352 -8.851414 799.589718
v -1088.870246 -8.851414 977.290944
v -965.596418 -6.495378 1083.231836
v -805.412010 -8.642392 1141.709371
v -668.538175 -2.147018 1249.812476
v -1153.925388 67.024967 414.935957
v -1234.140998 67.024967 610.106512
v -1204.550352 67.024967 799.589718
v -1088.870692 67.024967 977.291279
v -965.596418 71.997210 1083.231501
v -805.412010 58.538995 1141.709371
v -668.538398 71.890443 1249.813703
v -510.909273 71.890443 1236.171334
v -636.776285 71.890443 1140.302974
v -740.270027 58.538995 1044.060273
v -902.317443 71.997210 988.375801
v -1025.591494 67.024967 882.435244
v -1095.034941 67.024967 767.853023
v -1124.627370 67.024967 578.371711
v -534.707948 -71.586096 1276.540497
v -523.556149 -60.224385 1279.778132
v -537.943465 -60.224385 1287.698817
v -510.909273 -60.224385 1236.171334
v -522.061685 -71.586096 1232.937043
v -506.181465 -60.224385 1178.187977
v -498.263734 -60.224385 1192.575014
v -509.415755 -71.586096 1189.337490
v -523.556149 127.196115 1279.778132
v -534.707948 138.557812 1276.540497
v -537.943465 127.196115 1287.698817
v -522.061685 138.557812 1232.937043
v -510.909273 127.196115 1236.171334
v -506.181465 127.196115 1178.187977
v -509.415755 138.557812 1189.337490
v -498.263734 127.196115 1192.575014
v -1215.577463 124.526749 416.957207
v -1204.035326 135.348157 420.024115
v -1199.746126 124.526749 408.878838
v -1155.450955 135.348157 426.445431
v -1153.925388 123.704242 414.935957
v -1110.623815 121.980831 420.658867
v -1116.610815 135.348157 431.580744
v -1104.354554 121.980831 433.783424
v -1215.577463 -69.193807 416.957207
v -1199.746126 -69.193807 408.878838
v -1204.035326 -80.015173 420.024115
v -1153.925388 -68.371313 414.935957
v -1155.450955 -80.015173 426.445431
v -1116.610815 -80.015173 431.580744
v -1110.623815 -66.647909 420.658867
v -1104.354554 -66.647909 433.783424
v -523.556149 -2.147018 1279.778132
v -537.943465 -2.147018 1287.698817
v -498.263734 -2.147018 1192.575014
v -506.181465 -2.147018 1178.187977
v -537.943465 71.890443 1287.698817
v -523.556149 71.890443 1279.778132
v -498.263734 71.890443 1192.575014
v -506.181465 71.890443 1178.187977
v -666.745118 138.557812 1238.246707
v -668.538398 127.196115 1249.813703
v -638.558752 138.557812 1151.882455
v -636.776285 127.196115 1140.302974
v -798.333425 144.718563 1131.098628
v -805.412010 130.031526 1141.709371
v -747.347665 144.718563 1054.669568
v -740.270027 130.031526 1044.060273
v -960.003267 142.676187 1073.007138
v -965.596418 130.630800 1083.231390
v -907.937683 142.676187 998.586564
v -902.317332 130.630800 988.375690
v -1081.492455 135.348157 968.257604
v -1088.870357 123.704242 977.290944
v -1032.883893 135.348157 891.530900
v -1025.591494 123.704242 882.435244
v -1193.866256 135.348157 794.751826
v -1204.550352 123.704242 799.589718
v -1105.687488 135.348157 772.792415
v -1095.034495 123.704242 767.852577
v -1223.905040 135.348157 603.709443
v -1234.140998 123.704242 610.106512
v -1134.951172 135.348157 584.451293
v -1124.625252 123.704242 578.369705
v -1200.561917 67.024967 408.769757
v -1215.191083 67.024967 416.233441
v -1112.327411 67.024967 420.433348
v -1105.247488 67.024967 435.252137
v -1200.561917 -8.851414 408.769757
v -1215.191083 -8.851414 416.233441
v -1105.247488 -8.851414 435.252137
v -1112.327411 -8.851414 420.433348
v -1234.140998 -68.371313 610.106512
v -1124.627370 -68.371313 578.371711
v -1204.550352 -68.371313 799.589718
v -1095.034606 -68.371313 767.852911
v -1088.870246 -68.371313 977.290944
v -1025.591494 -68.371313 882.435244
v -965.596418 -68.067475 1083.231836
v -902.317443 -68.067475 988.375801
v -805.412010 -83.717906 1141.709371
v -740.270027 -83.717906 1044.060273
v -668.538175 -60.224385 1249.812476
v -636.776174 -60.224385 1140.302974
vt 0.217737 0.811197
vt 0.217737 0.681629
vt 0.314857 0.681629
vt 0.314857 0.811197
vt 0.314857 0.595704
vt 0.314857 0.491570
vt 0.217737 0.595704
vt 0.314857 0.381054
vt 0.217737 0.491570
vt 0.217737 0.381054
vt 0.631423 0.381054
vt 0.631424 0.279464
vt 0.631423 0.491570
vt 0.217737 0.279464
vt 0.631423 0.595704
vt 0.314857 0.279464
vt 0.631423 0.681629
vt 0.730763 0.279464
vt 0.631423 0.811197
vt 0.730763 0.381054
vt 0.730763 0.491570
vt 0.730763 0.595704
vt 0.730763 0.681629
vt 0.730763 0.811197
vt 0.183455 0.054950
vt 0.399990 0.054950
vt 0.379287 0.092861
vt 0.314857 0.092861
vt 0.128020 0.054950
vt 0.407218 0.092861
vt 0.486154 0.026376
vt 0.486154 0.092861
vt 0.407218 0.279464
vt 0.379287 0.279464
vt 0.570812 0.054950
vt 0.544628 0.092861
vt 0.570812 0.092861
vt 0.631423 0.054950
vt 0.128020 0.026376
vt 0.570812 0.279464
vt 0.544628 0.279464
vt 0.379287 0.933924
vt 0.407218 0.945403
vt 0.314857 0.945403
vt 0.845001 0.026376
vt 0.407218 0.933924
vt 0.379287 0.811197
vt 0.407218 0.811197
vt 0.486154 0.933924
vt 0.486154 0.978376
vt 0.544628 0.933924
vt 0.570812 0.945403
vt 0.570812 0.933924
vt 0.631424 0.933924
vt 0.183455 0.068317
vt 0.544628 0.811197
vt 0.570812 0.811197
vt 0.217737 0.054950
vt 0.217737 0.092861
vt 0.845001 0.054950
vt 0.807114 0.054950
vt 0.807114 0.092861
vt 0.730763 0.092861
vt 0.730763 0.054950
vt 0.183455 0.945403
vt 0.183455 0.933924
vt 0.217737 0.933924
vt 0.217737 0.945403
vt 0.128020 0.945403
vt 0.407218 0.381054
vt 0.379287 0.381054
vt 0.570812 0.381054
vt 0.544628 0.381054
vt 0.407218 0.491570
vt 0.379287 0.491570
vt 0.570812 0.491570
vt 0.544628 0.491570
vt 0.407218 0.595704
vt 0.379287 0.595704
vt 0.570812 0.595704
vt 0.544628 0.595704
vt 0.407218 0.681629
vt 0.379287 0.681629
vt 0.570812 0.681629
vt 0.544628 0.681629
vt 0.183455 0.978376
vt 0.845001 0.978376
vt 0.486154 0.279464
vt 0.486154 0.381054
vt 0.486154 0.491570
vt 0.486154 0.595704
vt 0.486154 0.681629
vt 0.486153 0.811197
vt 0.631424 0.978376
vt 0.807114 0.945403
vt 0.845001 0.945403
vt 0.807114 0.933924
vt 0.730763 0.945403
vt 0.730763 0.933924
vt 0.314857 0.054950
vt 0.631423 0.092861
vt 0.314857 0.933924
vt 0.631424 0.945403
vt 0.730763 0.026376
vt 0.730763 0.978376
vt 0.807114 0.811197
vt 0.807114 0.681629
vt 0.807114 0.595704
vt 0.807114 0.491570
vt 0.807114 0.381054
vt 0.314857 0.026376
vt 0.807114 0.279464
vt 0.183455 0.811197
vt 0.183455 0.681629
vt 0.183455 0.595704
vt 0.183455 0.491570
vt 0.183455 0.381054
vt 0.183455 0.279464
vt 0.631423 0.026376
vt 0.217737 0.978376
vt 0.807114 0.978376
vt 0.128020 0.978376
vt 0.183455 0.026376
vt 0.217737 0.026376
vt 0.845001 0.026376
vt 0.314857 0.978376
vn -0.988025 0.000000 0.154295
vn -0.929870 -0.000001 0.367888
vn -0.929870 -0.000000 0.367888
vn -0.988025 0.000000 0.154295
vn -0.764058 -0.000002 0.645147
vn -0.763880 0.000000 0.645359
vn -0.499879 0.000000 0.866095
vn -0.499982 0.000001 0.866036
vn -0.487081 -0.000001 0.873357
vn -0.487095 -0.000001 0.873349
vn -0.482326 -0.000004 0.875992
vn -0.481861 -0.000004 0.876248
vn 0.501116 0.000000 -0.865380
vn 0.493947 0.000000 -0.869492
vn 0.494034 -0.000000 -0.869443
vn 0.500467 0.000000 -0.865755
vn 0.490901 0.000000 -0.871215
vn 0.491009 -0.000000 -0.871154
vn 0.752154 0.000001 -0.658988
vn 0.751949 -0.000000 -0.659221
vn 0.950836 0.000002 -0.309695
vn 0.950837 -0.000006 -0.309693
vn 0.999533 0.001106 -0.030526
vn 0.999533 -0.001137 -0.030554
vn 0.671680 -0.714771 0.194804
vn 0.671680 -0.714771 0.194804
vn 0.671677 -0.714772 0.194813
vn 0.671677 -0.714772 0.194813
vn 0.482274 0.000000 0.876021
vn 0.482274 0.000000 0.876021
vn 0.482275 0.000000 0.876020
vn 0.482275 0.000000 0.876020
vn 0.671673 -0.714772 0.194821
vn 0.671673 -0.714772 0.194821
vn 0.876090 0.000000 -0.482148
vn 0.876090 0.000000 -0.482148
vn 0.876091 0.000000 -0.482146
vn 0.876091 0.000000 -0.482146
vn 0.482276 0.000000 0.876019
vn 0.482276 0.000000 0.876019
vn 0.482277 0.000000 0.876019
vn 0.482277 0.000000 0.876019
vn 0.671679 0.714772 0.194804
vn 0.671679 0.714772 0.194804
vn 0.671677 0.714771 0.194813
vn 0.671677 0.714771 0.194813
vn -0.194814 0.714808 0.671638
vn -0.194814 0.714808 0.671638
vn -0.364774 0.687063 0.628399
vn -0.325683 0.695572 0.640399
vn 0.671675 0.714771 0.194821
vn 0.671675 0.714771 0.194821
vn 0.876091 0.000000 -0.482147
vn 0.876091 0.000000 -0.482147
vn 0.876091 0.000000 -0.482146
vn 0.876091 0.000000 -0.482146
vn 0.194815 0.714810 -0.671635
vn 0.194815 0.714810 -0.671635
vn 0.401384 0.685220 -0.607754
vn 0.350146 0.695949 -0.626939
vn -0.454478 0.008147 -0.890721
vn -0.454478 0.008147 -0.890721
vn -0.454473 0.003608 -0.890753
vn -0.454473 0.003608 -0.890753
vn -0.621734 0.754062 -0.211749
vn -0.717075 0.691149 -0.090098
vn -0.718171 0.694383 0.045421
vn -0.720559 0.693391 0.001674
vn 0.060566 0.715108 -0.696385
vn 0.103330 0.701441 -0.705197
vn 0.103414 0.701196 -0.705428
vn 0.109917 0.681717 -0.723312
vn 0.109917 0.681717 -0.723312
vn 0.902014 -0.026182 -0.430913
vn 0.902014 -0.026182 -0.430913
vn 0.902264 -0.010558 -0.431056
vn 0.902264 -0.010558 -0.431056
vn 0.746143 0.659254 0.093033
vn 0.746143 0.659254 0.093033
vn 0.726604 0.685651 -0.043920
vn 0.734931 0.678136 0.002941
vn -0.454480 -0.007763 -0.890723
vn -0.454480 -0.007763 -0.890723
vn -0.454474 -0.003530 -0.890753
vn -0.454474 -0.003530 -0.890753
vn 0.044480 -0.713052 -0.699699
vn 0.060566 -0.715110 -0.696383
vn 0.103414 -0.701198 -0.705427
vn 0.103330 -0.701443 -0.705195
vn 0.109917 -0.681719 -0.723310
vn 0.109917 -0.681719 -0.723310
vn 0.902043 0.024896 -0.430927
vn 0.902043 0.024896 -0.430927
vn 0.902266 0.010346 -0.431056
vn 0.902266 0.010346 -0.431056
vn -0.359162 0.668627 0.651107
vn -0.353836 0.668751 0.653891
vn 0.379017 0.665924 -0.642566
vn 0.370892 0.666312 -0.646891
vn -0.369949 0.687596 0.624779
vn -0.369587 0.687549 0.625045
vn 0.339831 0.686611 -0.642713
vn 0.335932 0.685925 -0.645489
vn -0.557886 0.699469 0.446662
vn -0.550886 0.699370 0.455418
vn 0.530887 0.703672 -0.472233
vn 0.514586 0.703656 -0.489970
vn -0.662576 0.703699 0.256517
vn -0.659523 0.703786 0.264037
vn 0.678326 0.701612 -0.218208
vn 0.674821 0.701897 -0.227940
vn 0.960424 0.000000 0.278542
vn 0.960419 0.000000 0.278560
vn 0.960419 0.000000 0.278560
vn 0.960424 0.000000 0.278543
vn 0.960414 0.000000 0.278577
vn 0.960414 0.000000 0.278577
vn 0.960424 0.000000 0.278543
vn 0.960419 0.000000 0.278560
vn 0.960419 0.000000 0.278560
vn 0.960424 0.000000 0.278543
vn 0.960414 0.000000 0.278577
vn 0.960414 0.000000 0.278577
vn 0.000000 1.000000 -0.000000
vn 0.000000 1.000000 0.000000
vn 0.019054 0.999776 0.009266
vn 0.016570 0.999830 0.008057
vn 0.000000 1.000000 0.000000
vn 0.021616 0.999711 0.010514
vn 0.012032 0.999916 0.004802
vn 0.010807 0.999933 0.004184
vn 0.013241 0.999898 0.005412
vn -0.023788 0.999590 -0.015932
vn -0.024666 0.999560 -0.016502
vn -0.023065 0.999614 -0.015465
vn -0.018680 0.999748 -0.012443
vn -0.022028 0.999650 -0.014659
vn -0.016586 0.999801 -0.011057
vn 0.000000 1.000000 0.000000
vn 0.000000 1.000000 0.000000
vn 0.000000 1.000000 0.000000
vn 0.000000 1.000000 -0.000000
vn 0.000000 1.000000 0.000000
vn 0.000000 1.000000 -0.000000
vn 0.000000 1.000000 0.000000
vn 0.000000 1.000000 0.000000
vn 0.000000 1.000000 0.000000
vn 0.131065 0.000011 -0.991374
vn 0.131044 0.000007 -0.991377
vn 0.131046 0.000003 -0.991376
vn 0.131072 0.000005 -0.991373
vn 0.131020 0.000003 -0.991380
vn 0.131017 0.000001 -0.991380
vn 0.131072 -0.000004 -0.991373
vn 0.131046 -0.000003 -0.991376
vn 0.131044 -0.000007 -0.991377
vn 0.131065 -0.000010 -0.991374
vn 0.131018 -0.000001 -0.991380
vn 0.131021 -0.000003 -0.991380
vn 0.999521 0.002507 -0.030857
vn 0.990614 0.005831 0.136564
vn 0.990810 0.002575 0.135237
vn 0.950836 0.000000 -0.309695
vn 0.752158 0.000000 -0.658983
vn 0.478211 0.000000 -0.878245
vn 0.489602 0.000000 -0.871946
vn 0.521139 0.000000 -0.853472
vn 0.278609 0.000000 -0.960405
vn 0.278609 0.000000 -0.960405
vn 0.990814 -0.002640 0.135206
vn 0.990613 -0.006145 0.136559
vn 0.999519 -0.002657 -0.030905
vn 0.950838 -0.000018 -0.309690
vn 0.750707 -0.000002 -0.660635
vn 0.480698 -0.000001 -0.876886
vn 0.492872 -0.000001 -0.870102
vn 0.512408 0.000000 -0.858742
vn 0.278609 0.000000 -0.960405
vn 0.278609 0.000000 -0.960405
vn -0.995331 0.002628 -0.096481
vn -0.995331 0.002628 -0.096481
vn -0.995291 0.001158 -0.096928
vn -0.995291 0.001153 -0.096930
vn -0.988025 0.000000 0.154295
vn -0.929870 0.000000 0.367888
vn -0.764062 0.000000 0.645143
vn -0.487888 0.000000 0.872906
vn -0.485259 0.000000 0.874371
vn -0.497106 0.000000 0.867690
vn -0.278618 0.000000 0.960402
vn -0.278616 -0.000005 0.960402
vn -0.995290 -0.001177 -0.096940
vn -0.995290 -0.001183 -0.096938
vn -0.995331 -0.002758 -0.096482
vn -0.995331 -0.002758 -0.096482
vn -0.929870 0.000003 0.367888
vn -0.988025 0.000000 0.154295
vn -0.762790 0.000005 0.646646
vn -0.490256 0.000002 0.871578
vn -0.486415 0.000000 0.873728
vn -0.491315 0.000000 0.870982
vn -0.278613 -0.000005 0.960404
vn -0.278610 0.000000 0.960404
vn 0.390822 -0.585905 0.709911
vn 0.390822 -0.585905 0.709911
vn 0.390822 -0.585905 0.709911
vn 0.710127 -0.585653 -0.390807
vn 0.710127 -0.585653 -0.390807
vn 0.710127 -0.585653 -0.390807
vn 0.390822 0.585908 0.709909
vn 0.390822 0.585908 0.709909
vn 0.390822 0.585908 0.709909
vn 0.710125 0.585653 -0.390810
vn 0.710125 0.585653 -0.390810
vn 0.710125 0.585653 -0.390810
vn 0.719690 0.603212 -0.343776
vn 0.719690 0.603212 -0.343776
vn 0.719690 0.603212 -0.343776
vn -0.365846 -0.593408 -0.716955
vn 0.719685 -0.603218 -0.343775
vn 0.719685 -0.603218 -0.343775
vn 0.719685 -0.603218 -0.343775
s 1
g polySurface114 polySurface23
usemtl lambert7SG
f 15/1/1 16/2/2 23/3/3 22/4/4
f 16/2/2 17/7/5 24/5/6 23/3/3
f 17/7/5 18/9/7 25/6/8 24/5/6
f 18/9/7 19/10/9 26/8/10 25/6/8
f 19/10/9 20/14/11 27/16/12 26/8/10
s 2
f 14/18/13 13/20/14 30/11/15 29/12/16
f 13/20/14 12/21/17 31/13/18 30/11/15
f 12/21/17 11/22/19 32/15/20 31/13/18
f 11/22/19 10/23/21 33/17/22 32/15/20
f 10/23/21 9/24/23 34/19/24 33/17/22
s 3
f 36/25/25 35/29/26 39/39/27 38/123/28
s 4
f 37/55/29 36/25/30 67/58/31 68/59/32
s 3
f 38/45/28 39/125/27 42/60/33 41/61/34
s 5
f 41/61/35 40/62/36 70/63/37 69/64/38
s 4
f 43/26/39 45/27/40 71/28/41 72/100/42
s 6
f 44/30/43 43/26/44 47/31/45 46/32/46
s 7
f 45/27/47 44/30/48 75/33/49 76/34/50
s 6
f 46/32/46 47/31/45 50/35/51 49/36/52
s 5
f 48/37/53 50/35/54 73/38/55 74/101/56
s 8
f 49/36/57 48/37/58 78/40/59 77/41/60
s 9
f 51/42/61 53/43/62 99/44/63 100/102/64
s 7
f 52/46/65 51/42/66 96/47/67 95/48/68
f 53/43/69 52/46/65 54/49/70 55/50/71
f 55/50/71 54/49/70 57/51/72 56/52/73
s 11
f 56/52/74 58/53/75 102/54/76 101/103/77
s 8
f 58/53/78 57/51/79 97/56/80 98/57/81
s 9
f 60/65/82 59/66/83 104/67/84 103/68/85
s 13
f 61/69/86 60/65/87 62/86/88 63/122/89
f 63/87/89 62/121/88 65/95/90 64/96/91
s 11
f 66/97/92 65/95/93 106/98/94 105/99/95
s 4
f 68/59/32 67/58/31 72/100/42 71/28/41
s 5
f 69/64/38 70/63/37 74/101/56 73/38/55
s 7
f 76/34/50 75/33/49 79/70/96 80/71/97
s 8
f 77/41/60 78/40/59 82/72/98 81/73/99
s 7
f 80/71/97 79/70/96 83/74/100 84/75/101
s 8
f 81/73/99 82/72/98 86/76/102 85/77/103
s 7
f 84/75/101 83/74/100 87/78/104 88/79/105
s 8
f 85/77/103 86/76/102 90/80/106 89/81/107
s 7
f 88/79/105 87/78/104 91/82/108 92/83/109
s 8
f 89/81/107 90/80/106 94/84/110 93/85/111
s 7
f 92/83/109 91/82/108 95/48/68 96/47/67
s 8
f 93/85/111 94/84/110 98/57/81 97/56/80
s 9
f 100/102/64 99/44/63 103/68/85 104/67/84
s 11
f 101/103/77 102/54/76 105/99/95 106/98/94
s 14
f 36/25/112 38/123/113 1/124/114 67/58/115
f 38/45/113 41/61/116 69/64/117 1/104/114
f 72/100/118 28/111/119 47/31/120 43/26/121
f 28/119/119 73/38/122 50/35/123 47/31/120
s 15
f 44/30/124 46/32/125 2/88/126 75/33/127
f 46/32/125 49/36/128 77/41/129 2/88/126
f 75/33/127 2/88/126 3/89/130 79/70/131
f 2/88/126 77/41/129 81/73/132 3/89/130
f 79/70/131 3/89/130 4/90/133 83/74/134
f 3/89/130 81/73/132 85/77/135 4/90/133
f 83/74/134 4/90/133 5/91/136 87/78/137
f 4/90/133 85/77/135 89/81/138 5/91/136
f 87/78/137 5/91/136 6/92/139 91/82/140
f 5/91/136 89/81/138 93/85/141 6/92/139
f 91/82/140 6/92/139 7/93/142 95/48/143
f 6/92/139 93/85/141 97/56/144 7/93/142
f 95/48/143 7/93/142 54/49/145 52/46/146
f 7/93/142 97/56/144 57/51/147 54/49/145
s 16
f 53/43/148 55/50/149 21/126/150 99/44/151
f 55/50/149 56/52/152 101/103/153 21/94/150
f 103/68/154 8/120/155 62/86/156 60/65/157
f 8/105/155 106/98/158 65/95/159 62/121/156
s 2
f 108/106/160 66/97/161 105/99/162 9/24/23
f 110/107/163 108/106/160 9/24/23 10/23/21
f 112/108/164 110/107/163 10/23/21 11/22/19
f 114/109/165 112/108/164 11/22/19 12/21/17
f 116/110/166 114/109/165 12/21/17 13/20/14
f 118/112/167 116/110/166 13/20/14 14/18/13
f 40/62/168 118/112/167 14/18/13 70/63/169
f 34/19/24 102/54/170 58/53/171 98/57/172
f 33/17/22 34/19/24 98/57/172 94/84/173
f 32/15/20 33/17/22 94/84/173 90/80/174
f 31/13/18 32/15/20 90/80/174 86/76/175
f 30/11/15 31/13/18 86/76/175 82/72/176
f 29/12/16 30/11/15 82/72/176 78/40/177
f 74/101/178 29/12/16 78/40/177 48/37/179
s 17
f 59/66/180 107/113/181 15/1/182 104/67/183
s 1
f 107/113/184 109/114/185 16/2/2 15/1/1
f 109/114/185 111/115/186 17/7/5 16/2/2
f 111/115/186 113/116/187 18/9/7 17/7/5
f 113/116/187 115/117/188 19/10/9 18/9/7
f 115/117/188 117/118/189 20/14/11 19/10/9
f 117/118/189 37/55/190 68/59/191 20/14/11
s 17
f 100/102/192 22/4/193 96/47/194 51/42/195
s 1
f 22/4/4 23/3/3 92/83/196 96/47/197
f 23/3/3 24/5/6 88/79/198 92/83/196
f 24/5/6 25/6/8 84/75/199 88/79/198
f 25/6/8 26/8/10 80/71/200 84/75/199
f 26/8/10 27/16/12 76/34/201 80/71/200
f 27/16/12 71/28/202 45/27/203 76/34/201
s 16
f 21/94/150 101/103/153 106/98/158 8/105/155
f 99/44/151 21/126/150 8/120/155 103/68/154
s 17
f 104/67/183 15/1/182 22/4/193 100/102/192
s 1
f 20/14/11 68/59/191 71/28/202 27/16/12
s 14
f 67/58/115 1/124/114 28/111/119 72/100/118
f 1/104/114 69/64/117 73/38/122 28/119/119
s 2
f 70/63/169 14/18/13 29/12/16 74/101/178
f 9/24/23 105/99/162 102/54/170 34/19/24
s off
f 35/29/204 36/25/205 37/55/206
f 40/62/207 41/61/208 42/60/209
f 43/26/210 44/30/211 45/27/212
f 48/37/213 49/36/214 50/35/215
s 7
f 51/42/66 52/46/65 53/43/69
s off
f 56/52/216 57/51/217 58/53/218
s 13
f 59/66/219 60/65/87 61/69/86
s off
f 64/96/220 65/95/221 66/97/222
