# This file uses centimeters as units for non-parametric coordinates.

mtllib Pillar_Piece.mtl
g default
v 1182.574007 23.990207 -210.997047
v 1335.630640 38.785929 -160.959919
v 1319.566439 37.424662 -131.542312
v 1322.709995 38.546708 -134.139783
v 1312.493567 50.884282 -124.809342
v 1316.431612 50.476409 -128.174491
v 1318.199820 55.815536 -139.489912
v 1321.532594 54.883672 -141.280269
v 1314.821047 70.550714 -141.150326
v 1318.506744 68.078819 -142.767102
v 1322.930101 67.250509 -155.957682
v 1325.667937 65.163735 -155.845462
v 1324.543131 77.638019 -165.372302
v 1327.113127 74.476700 -164.287560
v 1331.951928 67.363017 -174.654803
v 1333.653501 65.401457 -172.486289
v 1337.935819 69.431825 -188.230975
v 1338.979113 67.243519 -184.561420
v 1341.819593 56.110208 -188.439456
v 1342.449341 55.346884 -184.746623
v 1349.892606 49.072845 -200.988654
v 1349.561156 49.145129 -195.804777
v 1348.767472 37.792893 -192.043468
v 1348.551285 39.025162 -187.780059
v 1355.843214 24.335256 -198.774575
v 1354.825847 27.092529 -193.748097
v 1350.134183 19.402037 -184.095961
v 1349.729717 22.688753 -180.639054
v 1353.510886 4.665418 -182.436874
v 1352.752802 9.491585 -179.154109
v 1345.403933 7.967058 -167.628081
v 1345.592952 12.407563 -166.075097
v 1343.793496 -2.418472 -158.211747
v 1344.146441 3.093822 -157.633621
v 1336.382163 7.854500 -148.931146
v 1337.604464 12.167969 -149.435959
v 1330.398736 5.786232 -135.354392
v 1332.277691 10.325016 -137.361657
v 1326.513828 19.106950 -135.147045
v 1328.811663 22.224551 -137.173998
v 1318.441397 26.144823 -122.597653
v 1321.696355 28.423960 -126.118094
v 1169.694335 24.802020 -179.636642
v 1169.830566 23.699248 -183.913323
v 1162.910508 38.532204 -172.574894
v 1163.815998 35.874374 -177.651131
v 1168.612053 43.596320 -187.302798
v 1168.905361 40.395030 -190.804352
v 1165.495847 58.648561 -188.688814
v 1166.116565 53.875708 -192.043947
v 1173.441133 55.302271 -203.711334
v 1173.133272 50.919632 -205.312190
v 1175.183318 65.927499 -213.015001
v 1174.695359 60.446647 -213.654140
v 1182.339920 55.450641 -222.592315
v 1181.015187 51.194693 -222.111817
v 1188.274836 57.590258 -236.260577
v 1186.294930 53.098128 -234.270337
v 1191.909070 43.984464 -236.734803
v 1189.539276 40.945619 -234.694816
v 1199.765875 36.818345 -249.549114
v 1196.464526 34.633203 -245.983963
v 1198.489755 25.281020 -240.738435
v 1195.316529 24.280276 -238.081973
v 1205.271438 11.549191 -247.801686
v 1201.331677 12.105553 -244.343534
v 1199.571190 6.486136 -233.072553
v 1196.241763 7.584440 -231.190824
v 1202.685582 -8.567589 -231.688176
v 1199.032343 -5.894733 -229.949704
v 1194.741585 -5.220294 -216.664830
v 1192.012440 -2.941166 -216.683833
v 1193.000893 -15.844501 -207.360046
v 1190.451585 -12.467140 -208.340868
v 1185.843324 -5.368157 -197.783043
v 1184.133044 -3.214208 -199.882359
v 1179.909891 -7.506858 -184.114057
v 1178.856075 -5.115773 -187.721864
v 1176.276521 6.099544 -183.639508
v 1175.610474 7.035872 -187.298546
v 1168.414961 13.262276 -170.828571
v 1168.684015 13.347359 -176.010384
vt 0.622912 0.223770
vt 0.612018 0.209661
vt 0.669929 0.230176
vt 0.671335 0.248356
vt 0.597037 0.248770
vt 0.596718 0.233830
vt 0.683768 0.184748
vt 0.705271 0.199881
vt 0.754261 0.194693
vt 0.755159 0.212100
vt 0.771834 0.134125
vt 0.803460 0.146220
vt 0.852382 0.117767
vt 0.134713 0.181852
vt 0.229485 0.170012
vt 0.206189 0.185221
vt 0.246567 0.208820
vt 0.244924 0.223614
vt 0.306992 0.202055
vt 0.291438 0.216839
vt 0.324493 0.230411
vt 0.323679 0.242946
vt 0.372747 0.215930
vt 0.360807 0.231289
vt 0.388080 0.236998
vt 0.386669 0.249123
vt 0.426876 0.220610
vt 0.419394 0.236205
vt 0.442260 0.236817
vt 0.441047 0.249103
vt 0.473460 0.224004
vt 0.470117 0.238379
vt 0.491851 0.234995
vt 0.491531 0.247942
vt 0.516172 0.226512
vt 0.517055 0.239404
vt 0.539524 0.234038
vt 0.541860 0.247457
vt 0.560397 0.221900
vt 0.565590 0.235294
vt 0.653411 0.764058
vt 0.635586 0.779183
vt 0.622947 0.754236
vt 0.626548 0.742977
vt 0.696488 0.755863
vt 0.691998 0.766908
vt 0.728643 0.786840
vt 0.701876 0.804486
vt 0.780868 0.781346
vt 0.774775 0.795237
vt 0.825288 0.823675
vt 0.788774 0.844681
vt 0.893036 0.834422
vt 0.137873 0.896635
vt 0.186085 0.853311
vt 0.225999 0.869324
vt 0.236943 0.807266
vt 0.243246 0.822487
vt 0.283820 0.808045
vt 0.309022 0.823001
vt 0.327662 0.769055
vt 0.332318 0.783668
vt 0.365425 0.781712
vt 0.383393 0.795838
vt 0.402045 0.748600
vt 0.405729 0.763747
vt 0.436127 0.770073
vt 0.446378 0.783228
vt 0.464036 0.745586
vt 0.469561 0.760675
vt 0.492277 0.759028
vt 0.492125 0.768996
vt 0.515724 0.739551
vt 0.519001 0.752644
vt 0.540634 0.749468
vt 0.534443 0.758993
vt 0.567518 0.736739
vt 0.564616 0.748245
vt 0.592305 0.752934
vt 0.582405 0.765214
vt 0.504463 0.995486
vt 0.500779 0.007496
vt 0.147272 0.160275
vt 0.875995 0.856761
vt 0.871479 0.133742
vt 0.108320 0.881292
vn 0.645974 -0.041532 0.762228
vn 0.645974 -0.041532 0.762228
vn 0.645974 -0.041532 0.762228
vn 0.645974 -0.041532 0.762228
vn 0.413985 0.539719 0.733021
vn 0.413985 0.539719 0.733021
vn 0.413985 0.539719 0.733021
vn 0.413985 0.539719 0.733021
vn 0.453213 0.776760 0.437313
vn 0.453213 0.776760 0.437313
vn 0.453213 0.776760 0.437313
vn 0.453213 0.776760 0.437313
vn 0.507672 0.210544 0.835428
vn 0.507672 0.210544 0.835428
vn 0.507672 0.210544 0.835428
vn 0.507672 0.210544 0.835428
vn 0.595330 0.789342 0.150071
vn 0.595330 0.789342 0.150071
vn 0.595330 0.789342 0.150071
vn 0.595330 0.789342 0.150071
vn 0.410721 0.576501 0.706368
vn 0.410721 0.576501 0.706368
vn 0.410721 0.576501 0.706368
vn 0.410721 0.576501 0.706368
vn 0.784444 0.617520 -0.057588
vn 0.784444 0.617520 -0.057588
vn 0.784444 0.617520 -0.057588
vn 0.784444 0.617520 -0.057588
vn 0.491603 0.802107 0.339045
vn 0.491603 0.802107 0.339045
vn 0.491603 0.802107 0.339045
vn 0.491603 0.802107 0.339045
vn 0.954302 0.279924 -0.104641
vn 0.954302 0.279924 -0.104641
vn 0.954302 0.279924 -0.104641
vn 0.954302 0.279924 -0.104641
vn 0.685913 0.726911 0.033540
vn 0.685913 0.726911 0.033540
vn 0.685913 0.726911 0.033540
vn 0.685913 0.726911 0.033540
vn 0.996749 -0.048338 0.064454
vn 0.996749 -0.048338 0.064453
vn 0.996749 -0.048338 0.064453
vn 0.996749 -0.048338 0.064453
vn 0.858656 0.502358 -0.101722
vn 0.858656 0.502358 -0.101722
vn 0.858656 0.502358 -0.101722
vn 0.858656 0.502358 -0.101722
vn 0.934288 -0.197149 0.297049
vn 0.934288 -0.197149 0.297049
vn 0.934288 -0.197149 0.297049
vn 0.934288 -0.197149 0.297049
vn 0.973040 0.212973 -0.088519
vn 0.973040 0.212973 -0.088519
vn 0.973040 0.212973 -0.088519
vn 0.973040 0.212973 -0.088519
vn 0.836462 -0.212288 0.505239
vn 0.836461 -0.212288 0.505239
vn 0.836461 -0.212288 0.505239
vn 0.836462 -0.212288 0.505239
vn 0.993312 -0.073207 0.089284
vn 0.993312 -0.073207 0.089284
vn 0.993312 -0.073207 0.089284
vn 0.993312 -0.073207 0.089284
vn 0.707786 -0.118645 0.696392
vn 0.707786 -0.118645 0.696392
vn 0.707786 -0.118645 0.696392
vn 0.707786 -0.118645 0.696392
vn 0.905555 -0.213171 0.366782
vn 0.905555 -0.213171 0.366782
vn 0.905555 -0.213171 0.366782
vn 0.905555 -0.213171 0.366782
vn 0.538285 0.143889 0.830389
vn 0.538285 0.143889 0.830389
vn 0.538285 0.143889 0.830389
vn 0.538285 0.143889 0.830389
vn 0.777636 -0.181301 0.602006
vn 0.777636 -0.181301 0.602006
vn 0.777636 -0.181301 0.602006
vn 0.777636 -0.181301 0.602006
vn -0.996137 0.071899 -0.050421
vn -0.996137 0.071899 -0.050421
vn -0.996137 0.071899 -0.050421
vn -0.996137 0.071899 -0.050421
vn -0.871942 -0.480119 0.095930
vn -0.871942 -0.480119 0.095930
vn -0.871942 -0.480119 0.095930
vn -0.871942 -0.480119 0.095930
vn -0.932283 0.224489 -0.283643
vn -0.932283 0.224489 -0.283643
vn -0.932283 0.224489 -0.283643
vn -0.932283 0.224489 -0.283643
vn -0.976540 -0.193384 0.094717
vn -0.976540 -0.193384 0.094717
vn -0.976540 -0.193384 0.094717
vn -0.976540 -0.193384 0.094717
vn -0.835215 0.239444 -0.495058
vn -0.835215 0.239444 -0.495058
vn -0.835215 0.239444 -0.495058
vn -0.835215 0.239444 -0.495058
vn -0.992448 0.097091 -0.074964
vn -0.992448 0.097091 -0.074964
vn -0.992448 0.097091 -0.074964
vn -0.992448 0.097091 -0.074964
vn -0.711013 0.143578 -0.688364
vn -0.711013 0.143578 -0.688364
vn -0.711013 0.143578 -0.688364
vn -0.711013 0.143578 -0.688364
vn -0.903413 0.241137 -0.354539
vn -0.903413 0.241137 -0.354539
vn -0.903413 0.241137 -0.354539
vn -0.903413 0.241137 -0.354539
vn -0.555408 -0.119607 -0.822932
vn -0.555408 -0.119607 -0.822932
vn -0.555408 -0.119607 -0.822931
vn -0.555408 -0.119607 -0.822932
vn -0.777755 0.207856 -0.593206
vn -0.777755 0.207856 -0.593206
vn -0.777755 0.207856 -0.593206
vn -0.777755 0.207856 -0.593206
vn -0.453121 -0.508709 -0.732050
vn -0.453121 -0.508709 -0.732050
vn -0.453121 -0.508709 -0.732050
vn -0.453121 -0.508709 -0.732050
vn -0.652833 0.065678 -0.754650
vn -0.652833 0.065678 -0.754650
vn -0.652833 0.065678 -0.754650
vn -0.652833 0.065678 -0.754650
vn -0.498077 -0.742457 -0.447970
vn -0.498077 -0.742457 -0.447970
vn -0.498077 -0.742457 -0.447970
vn -0.498077 -0.742457 -0.447970
vn -0.529465 -0.185742 -0.827748
vn -0.529465 -0.185742 -0.827748
vn -0.529465 -0.185742 -0.827748
vn -0.529465 -0.185742 -0.827748
vn -0.632006 -0.757044 -0.165690
vn -0.632006 -0.757044 -0.165690
vn -0.632006 -0.757044 -0.165690
vn -0.632006 -0.757044 -0.165690
vn -0.450466 -0.545310 -0.706907
vn -0.450466 -0.545310 -0.706907
vn -0.450466 -0.545310 -0.706907
vn -0.450466 -0.545310 -0.706907
vn -0.804032 -0.592680 0.047574
vn -0.804032 -0.592680 0.047574
vn -0.804032 -0.592680 0.047574
vn -0.804032 -0.592680 0.047574
vn -0.535069 -0.767830 -0.352333
vn -0.535069 -0.767830 -0.352333
vn -0.535069 -0.767830 -0.352333
vn -0.535069 -0.767830 -0.352333
vn -0.959541 -0.260019 0.108036
vn -0.959541 -0.260019 0.108036
vn -0.959541 -0.260019 0.108036
vn -0.959541 -0.260019 0.108036
vn -0.714759 -0.697686 -0.048511
vn -0.714759 -0.697686 -0.048511
vn -0.714759 -0.697686 -0.048511
vn -0.714759 -0.697686 -0.048511
vn -0.218698 -0.527835 0.820708
vn -0.218698 -0.527835 0.820708
vn -0.218698 -0.527835 0.820708
vn -0.218698 -0.527835 0.820708
vn -0.161505 0.951775 0.260844
vn -0.161505 0.951775 0.260844
vn -0.161505 0.951775 0.260844
vn -0.161505 0.951775 0.260844
vn -0.306003 0.030596 0.951539
vn -0.306003 0.030596 0.951539
vn -0.306003 0.030596 0.951539
vn -0.306004 0.030596 0.951539
vn -0.007293 0.975199 -0.221212
vn -0.007293 0.975198 -0.221212
vn -0.007293 0.975199 -0.221212
vn -0.007293 0.975199 -0.221212
vn -0.274643 0.663669 0.695784
vn -0.274643 0.663669 0.695784
vn -0.274643 0.663669 0.695784
vn -0.274643 0.663669 0.695784
vn 0.158059 0.722567 -0.672989
vn 0.158059 0.722567 -0.672989
vn 0.158059 0.722567 -0.672989
vn 0.158059 0.722567 -0.672989
vn -0.111725 0.988304 0.103788
vn -0.111725 0.988304 0.103788
vn -0.111725 0.988304 0.103788
vn -0.111725 0.988304 0.103788
vn 0.296595 0.106871 -0.949005
vn 0.296595 0.106871 -0.949005
vn 0.296595 0.106871 -0.949005
vn 0.296595 0.106871 -0.949005
vn 0.073568 0.889129 -0.451705
vn 0.073568 0.889129 -0.451705
vn 0.073568 0.889129 -0.451705
vn 0.073568 0.889129 -0.451705
vn 0.289695 -0.606605 -0.740342
vn 0.289695 -0.606605 -0.740342
vn 0.289695 -0.606605 -0.740342
vn 0.289695 -0.606605 -0.740342
vn 0.221689 0.528682 -0.819359
vn 0.221689 0.528682 -0.819359
vn 0.221689 0.528682 -0.819359
vn 0.221689 0.528682 -0.819359
vn 0.165571 -0.951524 -0.259206
vn 0.165571 -0.951524 -0.259206
vn 0.165571 -0.951524 -0.259206
vn 0.165571 -0.951524 -0.259206
vn 0.312021 -0.029034 -0.949632
vn 0.312021 -0.029034 -0.949632
vn 0.312021 -0.029034 -0.949632
vn 0.312021 -0.029034 -0.949632
vn 0.012414 -0.974537 0.223882
vn 0.012414 -0.974537 0.223882
vn 0.012414 -0.974537 0.223882
vn 0.012414 -0.974537 0.223882
vn 0.284174 -0.662713 -0.692861
vn 0.284174 -0.662713 -0.692861
vn 0.284174 -0.662713 -0.692861
vn 0.284174 -0.662713 -0.692861
vn -0.155443 -0.721941 0.674269
vn -0.155443 -0.721941 0.674269
vn -0.155443 -0.721941 0.674269
vn -0.155443 -0.721941 0.674269
vn 0.119511 -0.987759 -0.100245
vn 0.119511 -0.987759 -0.100244
vn 0.119511 -0.987759 -0.100245
vn 0.119511 -0.987759 -0.100245
vn -0.297443 -0.107066 0.948718
vn -0.297443 -0.107066 0.948717
vn -0.297443 -0.107066 0.948718
vn -0.297442 -0.107066 0.948718
vn -0.069566 -0.888406 0.453756
vn -0.069566 -0.888406 0.453757
vn -0.069566 -0.888406 0.453757
vn -0.069566 -0.888406 0.453757
vn -0.289424 0.606560 0.740485
vn -0.289424 0.606560 0.740485
vn -0.289424 0.606560 0.740485
vn -0.289424 0.606560 0.740485
vn -0.881525 -0.221025 -0.417206
vn -0.881567 -0.220936 -0.417165
vn -0.881533 -0.221058 -0.417172
vn -0.881562 -0.221012 -0.417136
vn -0.881536 -0.220932 -0.417232
vn -0.881551 -0.220919 -0.417208
vn -0.881529 -0.220975 -0.417225
vn -0.881542 -0.220863 -0.417257
vn -0.881565 -0.220968 -0.417154
vn -0.881606 -0.220844 -0.417131
vn -0.881568 -0.221023 -0.417117
vn -0.881557 -0.220848 -0.417233
vn -0.881594 -0.220936 -0.417109
vn -0.881631 -0.220914 -0.417042
vn -0.881559 -0.220988 -0.417155
vn -0.881576 -0.220885 -0.417173
vn -0.881539 -0.220913 -0.417236
vn -0.881579 -0.220898 -0.417159
vn -0.881576 -0.220914 -0.417159
vn -0.881635 -0.220888 -0.417046
vn -0.881584 -0.220836 -0.417182
vn 0.871911 0.247717 0.422382
vn 0.872026 0.247490 0.422279
vn 0.872011 0.247514 0.422296
vn 0.872010 0.247467 0.422325
vn 0.872039 0.247474 0.422261
vn 0.872025 0.247497 0.422276
vn 0.872018 0.247476 0.422304
vn 0.871979 0.247477 0.422384
vn 0.872000 0.247550 0.422297
vn 0.872002 0.247470 0.422339
vn 0.872019 0.247477 0.422300
vn 0.872043 0.247530 0.422221
vn 0.871998 0.247561 0.422296
vn 0.872023 0.247339 0.422373
vn 0.872003 0.247459 0.422344
vn 0.872029 0.247484 0.422276
vn 0.872067 0.247419 0.422236
vn 0.872027 0.247451 0.422300
vn 0.872141 0.247486 0.422043
vn 0.872088 0.247583 0.422096
vn 0.872031 0.247385 0.422330
s off
g polySurface104 polySurface23
usemtl initialShadingGroup
f 3/1/1 4/2/2 6/3/3 5/4/4
f 4/2/5 3/1/6 41/5/7 42/6/8
f 5/4/9 6/3/10 8/7/11 7/8/12
f 7/8/13 8/7/14 10/9/15 9/10/16
f 9/10/17 10/9/18 12/11/19 11/12/20
f 11/12/21 12/11/22 14/13/23 13/85/24
f 13/14/25 14/83/26 16/15/27 15/16/28
f 15/16/29 16/15/30 18/17/31 17/18/32
f 17/18/33 18/17/34 20/19/35 19/20/36
f 19/20/37 20/19/38 22/21/39 21/22/40
f 21/22/41 22/21/42 24/23/43 23/24/44
f 23/24/45 24/23/46 26/25/47 25/26/48
f 25/26/49 26/25/50 28/27/51 27/28/52
f 27/28/53 28/27/54 30/29/55 29/30/56
f 29/30/57 30/29/58 32/31/59 31/32/60
f 31/32/61 32/31/62 34/33/63 33/34/64
f 33/34/65 34/33/66 36/35/67 35/36/68
f 35/36/69 36/35/70 38/37/71 37/38/72
f 37/38/73 38/37/74 40/39/75 39/40/76
f 39/40/77 40/39/78 42/6/79 41/5/80
f 43/41/81 44/42/82 82/43/83 81/44/84
f 44/42/85 43/41/86 45/45/87 46/46/88
f 46/46/89 45/45/90 47/47/91 48/48/92
f 48/48/93 47/47/94 49/49/95 50/50/96
f 50/50/97 49/49/98 51/51/99 52/52/100
f 52/52/101 51/51/102 53/53/103 54/84/104
f 54/54/105 53/86/106 55/55/107 56/56/108
f 56/56/109 55/55/110 57/57/111 58/58/112
f 58/58/113 57/57/114 59/59/115 60/60/116
f 60/60/117 59/59/118 61/61/119 62/62/120
f 62/62/121 61/61/122 63/63/123 64/64/124
f 64/64/125 63/63/126 65/65/127 66/66/128
f 66/66/129 65/65/130 67/67/131 68/68/132
f 68/68/133 67/67/134 69/69/135 70/70/136
f 70/70/137 69/69/138 71/71/139 72/72/140
f 72/72/141 71/71/142 73/73/143 74/74/144
f 74/74/145 73/73/146 75/75/147 76/76/148
f 76/76/149 75/75/150 77/77/151 78/78/152
f 78/78/153 77/77/154 79/79/155 80/80/156
f 80/80/157 79/79/158 81/44/159 82/43/160
f 3/1/161 5/4/162 45/45/163 43/41/164
f 5/4/165 7/8/166 47/47/167 45/45/168
f 7/8/169 9/10/170 49/49/171 47/47/172
f 9/10/173 11/12/174 51/51/175 49/49/176
f 11/12/177 13/85/178 53/53/179 51/51/180
f 13/14/181 15/16/182 55/55/183 53/86/184
f 15/16/185 17/18/186 57/57/187 55/55/188
f 17/18/189 19/20/190 59/59/191 57/57/192
f 19/20/193 21/22/194 61/61/195 59/59/196
f 21/22/197 23/24/198 63/63/199 61/61/200
f 23/24/201 25/26/202 65/65/203 63/63/204
f 25/26/205 27/28/206 67/67/207 65/65/208
f 27/28/209 29/30/210 69/69/211 67/67/212
f 29/30/213 31/32/214 71/71/215 69/69/216
f 31/32/217 33/34/218 73/73/219 71/71/220
f 33/34/221 35/36/222 75/75/223 73/73/224
f 35/36/225 37/38/226 77/77/227 75/75/228
f 37/38/229 39/40/230 79/79/231 77/77/232
f 39/40/233 41/5/234 81/44/235 79/79/236
f 41/5/237 3/1/238 43/41/239 81/44/240
s 1
f 82/43/241 1/81/242 80/80/243
f 46/46/244 48/48/245 1/81/242
f 1/81/242 54/54/246 56/56/247
f 70/70/248 1/81/242 68/68/249
f 1/81/242 64/64/250 66/66/251
f 72/72/252 1/81/242 70/70/248
f 78/78/253 1/81/242 76/76/254
f 1/81/242 52/52/255 54/84/246
f 44/42/256 1/81/242 82/43/241
f 1/81/242 58/58/257 60/60/258
f 1/81/242 48/48/245 50/50/259
f 68/68/249 1/81/242 66/66/251
f 1/81/242 56/56/247 58/58/257
f 76/76/254 1/81/242 74/74/260
f 1/81/242 60/60/258 62/62/261
f 80/80/243 1/81/242 78/78/253
f 46/46/244 1/81/242 44/42/256
f 1/81/242 62/62/261 64/64/250
f 74/74/260 1/81/242 72/72/252
f 1/81/242 50/50/259 52/52/255
s 6
f 18/17/262 2/82/263 20/19/264
f 2/82/263 28/27/265 26/25/266
f 10/9/267 2/82/263 12/11/268
f 6/3/269 4/2/270 2/82/263
f 2/82/263 42/6/271 40/39/272
f 22/21/273 2/82/263 24/23/274
f 8/7/275 2/82/263 10/9/267
f 2/82/263 38/37/276 36/35/277
f 2/82/263 34/33/278 32/31/279
f 14/83/280 2/82/263 16/15/281
f 2/82/263 40/39/272 38/37/276
f 20/19/264 2/82/263 22/21/273
f 6/3/269 2/82/263 8/7/275
f 2/82/263 30/29/282 28/27/265
f 2/82/263 32/31/279 30/29/282
f 12/11/268 2/82/263 14/13/280
f 2/82/263 36/35/277 34/33/278
f 16/15/281 2/82/263 18/17/262
f 2/82/263 4/2/270 42/6/271
f 24/23/274 2/82/263 26/25/266
