# This file uses centimeters as units for non-parametric coordinates.

mtllib Planar_Scene.mtl
g default
v -1365.167725 -572.061035 3776.363770
v -394.662598 -572.061035 3749.124512
v 187.682129 -572.061035 3347.343750
v 1457.820068 -572.061035 2557.402588
v 2918.428223 -572.061035 1379.302368
v -1365.167725 3015.332031 3776.363525
v -394.662598 3015.332031 3749.124268
v 187.682129 3015.332031 3347.343506
v 1457.820068 3015.332031 2557.402588
v 2918.428223 3015.332031 1379.302246
v -2427.501709 -572.061035 3129.429199
v -2427.501709 3015.332031 3129.428955
v -2924.620117 -572.061035 1842.371094
v -2924.620117 3015.332031 1842.371094
v -2924.620117 -572.061035 1161.387207
v -2924.620117 3015.332031 1161.387207
v -3741.800781 -572.060913 -1678.316040
v -3741.800781 3015.332031 -1678.315918
v -3837.138428 -572.061157 -2577.214844
v -3837.138428 3015.332031 -2577.214844
v -3258.302246 -572.061157 -3312.677734
v -3258.302246 3015.332520 -3312.677734
v -2754.374023 -572.061157 -4095.809082
v -2754.374023 3015.332031 -4095.809082
v -922.527100 -572.061157 -3714.457520
v -922.527100 3015.332031 -3714.457520
v 657.355713 -572.061157 -3537.401855
v 657.355713 3015.332031 -3537.401855
v 657.355713 -572.061157 -3537.401855
v 657.355713 3015.332031 -3537.401855
v 1406.438110 -572.061157 -3122.001465
v 1406.438110 3015.332031 -3122.001465
v 2686.687744 -572.061157 -2447.827148
v 2686.687744 3015.332031 -2447.827148
v 3115.707764 -572.060913 -1310.584106
v 3115.707764 3015.332031 -1310.583984
v 2788.835449 -572.060913 -997.331665
v 2788.835449 3015.332031 -997.331543
v 2836.504395 -572.060913 -452.544556
v 2836.504395 3015.332031 -452.544434
v 2904.602539 -572.061035 500.833252
v 2904.602539 3015.332031 500.833252
vt 0.489735 0.456327
vt 0.489735 0.987679
vt 0.395302 0.987679
vt 0.395302 0.456327
vt 0.316064 0.987679
vt 0.316064 0.456327
vt 0.181005 0.987679
vt 0.181005 0.456327
vt -0.000664 0.987679
vt 0.989775 0.011444
vt 0.610715 0.456327
vt 0.610715 0.987679
vt 0.702438 0.456327
vt 0.702438 0.987679
vt 0.811149 0.456327
vt 0.811149 0.987679
vt 0.899155 0.456327
vt 0.900004 0.987679
vt 0.987077 0.456327
vt -0.000275 0.398900
vt 0.078368 0.011444
vt 0.079109 0.398900
vt 0.181005 0.011444
vt 0.181005 0.398900
vt 0.316064 0.011444
vt 0.316064 0.398900
vt 0.450916 0.011444
vt 0.450916 0.398900
vt 0.450916 0.011444
vt 0.450916 0.398900
vt 0.523577 0.011444
vt 0.523577 0.398900
vt 0.610715 0.011444
vt 0.610715 0.398900
vt 0.702438 0.011444
vt 0.702438 0.398900
vt 0.787800 0.011444
vt 0.787800 0.398900
vt 0.854411 0.011444
vt 0.854411 0.398900
vt 0.915255 0.011444
vt 0.915255 0.398900
vt -0.001513 0.456327
vt 0.990514 0.398900
vt -0.001016 0.011444
vt 0.987926 0.987679
vn -0.028056 -0.000000 -0.999606
vn -0.028056 -0.000000 -0.999606
vn -0.266302 -0.000000 -0.963890
vn -0.266302 -0.000000 -0.963890
vn -0.541027 -0.000000 -0.841005
vn -0.541027 -0.000000 -0.841005
vn -0.584677 -0.000000 -0.811266
vn -0.584677 -0.000000 -0.811266
vn -0.627814 0.000000 -0.778364
vn -0.627814 0.000000 -0.778363
vn 0.520121 -0.000000 -0.854093
vn 0.520121 -0.000000 -0.854093
vn 0.520121 -0.000000 -0.854093
vn 0.520121 -0.000000 -0.854093
vn 0.932836 0.000000 -0.360302
vn 0.969548 0.000000 -0.244903
vn 0.969548 0.000000 -0.244903
vn 0.932836 0.000000 -0.360302
vn 0.974105 0.000000 -0.226098
vn 0.974105 0.000000 -0.226098
vn 0.971481 0.000000 -0.237119
vn 0.971481 0.000000 -0.237119
vn 0.994423 0.000000 -0.105469
vn 0.994423 0.000000 -0.105469
vn 0.785813 0.000000 0.618464
vn 0.814227 0.000000 0.580547
vn 0.814227 0.000000 0.580547
vn 0.785813 0.000000 0.618464
vn 0.840941 0.000000 0.541127
vn 0.840941 0.000000 0.541127
vn -0.203809 0.000000 0.979011
vn -0.161524 0.000000 0.986869
vn -0.161524 0.000000 0.986869
vn -0.203809 0.000000 0.979011
vn -0.111372 0.000000 0.993779
vn -0.111372 0.000000 0.993779
vn 0.000000 0.000000 0.000000
vn 0.000000 0.000000 0.000000
vn 0.000000 0.000000 0.000000
vn 0.000000 0.000000 0.000000
vn -0.484968 0.000000 0.874532
vn -0.473042 0.000000 0.881040
vn -0.473042 0.000000 0.881040
vn -0.484968 0.000000 0.874532
vn -0.465941 0.000000 0.884816
vn -0.465941 0.000000 0.884816
vn -0.935637 -0.000000 0.352965
vn -0.935637 -0.000000 0.352965
vn -0.935637 -0.000000 0.352965
vn -0.935637 -0.000000 0.352965
vn -0.691905 0.000000 -0.721988
vn -0.691905 0.000000 -0.721988
vn -0.691905 0.000000 -0.721988
vn -0.691905 0.000000 -0.721988
vn -0.996194 -0.000000 0.087167
vn -0.997028 -0.000000 0.077043
vn -0.997028 -0.000000 0.077043
vn -0.996194 -0.000000 0.087167
vn -0.999002 -0.000000 0.044677
vn -0.999002 -0.000000 0.044677
vn -0.999876 0.000000 0.015736
vn -0.999876 0.000000 0.015736
s 1
g pPlane3
usemtl initialShadingGroup
f 1/1/1 6/2/2 7/3/3 2/4/4
f 2/4/4 7/3/3 8/5/5 3/6/6
f 3/6/6 8/5/5 9/7/7 4/8/8
f 4/8/8 9/7/7 10/9/9 5/43/10
s off
f 1/1/11 11/11/12 12/12/13 6/2/14
s 2
f 11/11/15 13/13/16 14/14/17 12/12/18
f 13/13/16 15/15/19 16/16/20 14/14/17
f 15/15/19 17/17/21 18/18/22 16/16/20
f 17/17/21 19/19/23 20/46/24 18/18/22
s 3
f 19/45/25 21/21/26 22/22/27 20/20/28
f 21/21/26 23/23/29 24/24/30 22/22/27
s 4
f 23/23/31 25/25/32 26/26/33 24/24/34
f 25/25/32 27/27/35 28/28/36 26/26/33
s off
f 27/27/37 29/29/38 30/30/39 28/28/40
s 5
f 29/29/41 31/31/42 32/32/43 30/30/44
f 31/31/42 33/33/45 34/34/46 32/32/43
s off
f 33/33/47 35/35/48 36/36/49 34/34/50
f 35/35/51 37/37/52 38/38/53 36/36/54
s 6
f 37/37/55 39/39/56 40/40/57 38/38/58
f 39/39/56 41/41/59 42/42/60 40/40/57
f 41/41/59 5/10/61 10/44/62 42/42/60
