# This file uses meters as units for non-parametric coordinates.

mtllib Shrine_Groundplane.mtl
g default
v -2482.034424 0.000000 3320.495850
v 2445.388916 -0.000002 3320.495850
v -2482.034424 0.000000 -2297.840088
v 2445.388916 0.000000 -2297.840088
v 2445.388916 -0.000002 1457.535278
v -2482.034424 0.000000 1457.535278
v -1843.979980 -0.000000 3320.495850
v -1728.666870 0.000004 1457.535278
v -1843.979370 0.000000 -2297.840332
v 1934.544434 0.000000 -2297.840088
v 1823.689819 0.000003 1457.535278
v 1934.544434 -0.000002 3320.495605
v -2482.034424 0.000000 -920.851440
v -1728.666870 0.000004 -920.851440
v 1823.690063 0.000004 -920.851440
v 2445.388916 -0.000000 -920.851440
v 2445.388916 -0.000002 2699.164795
v 1823.690063 0.000003 2599.170898
v -1728.666870 0.000004 2599.171143
v -2482.034912 0.000000 2699.164795
v 551.276794 0.000000 -2297.840088
v 551.276489 -0.000000 -920.851440
v 551.276489 -0.000001 1457.535278
v 551.276184 0.000003 2599.171143
v 551.276367 -0.000001 3320.495605
v -567.144592 0.000000 -2297.840088
v -567.144226 -0.000000 -920.851440
v -567.144226 -0.000001 1457.535278
v -567.144958 0.000003 2599.171143
v -567.145081 -0.000001 3320.495605
v -2482.034424 0.000000 -1367.595581
v -1728.666626 0.000004 -1248.108398
v -567.144470 0.000004 -1248.108398
v 551.276611 0.000004 -1248.108398
v 1823.690063 0.000004 -1248.108276
v 2445.388916 -0.000000 -1367.594971
v -567.144226 0.000015 -2174.330811
v -567.144470 0.000022 -1248.108398
v 551.276611 0.000022 -1248.108398
v 551.276489 0.000015 -2174.330811
v -2215.164551 -464.298065 3016.205811
v -1843.979858 -464.298065 3016.205811
v -1843.979980 -464.298065 2699.164307
v -2215.164795 -464.298065 2699.162354
v -2215.164551 -464.298065 -1367.595581
v -1843.979492 -464.298065 -1367.595581
v -1843.979370 -464.298065 -1993.550171
v -2215.164551 -464.298065 -1993.550049
v 1934.544556 -464.298065 3016.205566
v 2178.518799 -464.298065 3016.205811
v 2178.518799 -464.298065 2699.162354
v 1934.544556 -464.298065 2699.164307
v 1934.544556 -464.298065 -1993.550049
v 1934.544556 -464.298065 -1367.595703
v 2178.518799 -464.298065 -1367.594971
v 2178.518799 -464.298065 -1993.550049
v 551.276489 -464.298065 -1993.550049
v 551.276733 -464.298065 -1367.595703
v 551.276062 -464.298065 3016.205566
v 551.276306 -464.298065 2699.164307
v -1843.979492 -464.298065 1457.535278
v -2215.164551 -464.298065 1457.535278
v -1843.979492 -464.298065 -920.851379
v -2215.164551 -464.298065 -920.851440
v 1934.544556 -464.298065 -920.851379
v 2178.518799 -464.298065 -920.851440
v 1934.544556 -464.298065 1457.535278
v 2178.518799 -464.298065 1457.535278
v -567.144226 -464.298035 -1993.550049
v -567.144714 -464.298065 -1367.595703
v 551.276733 -464.298065 -1367.595703
v 551.276489 -464.298035 -1993.550049
v -567.144714 -464.298065 3016.205566
v -567.145203 -464.298065 2699.164307
v -567.144714 -464.298065 -1367.595703
v -567.144226 -464.298065 -1993.550049
v -2895.054932 0.000000 3791.428711
v -1843.979980 -0.000000 3791.428711
v -2895.055420 0.000000 2699.168457
v 2858.409424 -0.000003 3791.428711
v 2858.409424 -0.000002 2699.168457
v -2895.054932 0.000000 -2768.772949
v -1843.979370 0.000000 -2768.773193
v 2858.409424 -0.000002 1457.535278
v 2858.409424 -0.000000 -920.851379
v -2895.054932 0.000000 1457.535278
v -2895.054932 0.000000 -920.851379
v -567.145691 -0.000001 3791.428467
v -567.145203 0.000000 -2768.772949
v 1934.544556 0.000000 -2768.772949
v 2858.409424 0.000000 -2768.772949
v 1934.544434 -0.000002 3791.428467
v -2895.054932 0.000000 -1367.595581
v 2858.409424 -0.000000 -1367.594971
v 551.277344 0.000000 -2768.772949
v 551.276855 -0.000001 3791.428467
v 5.710526 0.000000 -2768.772949
v 5.710556 0.000000 -2297.840088
v 5.710587 0.000015 -2174.330811
v 5.710587 -464.298035 -1993.550049
v 5.710464 -464.298065 -1367.595703
v 5.710526 0.000022 -1248.108398
v 5.710526 0.000004 -1248.108398
v 5.710587 -0.000000 -920.851440
v 5.710587 -0.000001 1457.535278
v 5.710068 0.000003 2599.171143
v 5.710007 -464.298065 2699.164307
v 5.710129 -464.298065 3016.205566
v 5.710098 -0.000001 3320.495605
v 5.710068 -0.000001 3791.428467
vt 0.128324 0.220427
vt 0.180578 0.220427
vt 0.180578 0.259570
vt 0.128324 0.259570
vt 0.128324 0.761665
vt 0.180578 0.761665
vt 0.180578 0.838947
vt 0.128324 0.838947
vt 0.712499 0.220427
vt 0.746844 0.220427
vt 0.746844 0.259570
vt 0.712499 0.259570
vt 0.712499 0.838947
vt 0.712499 0.761665
vt 0.746844 0.761665
vt 0.746844 0.838947
vt 0.517769 0.838947
vt 0.517769 0.761665
vt 0.517769 0.220427
vt 0.517769 0.259570
vt 0.128324 0.412865
vt 0.180578 0.412865
vt 0.180578 0.706509
vt 0.128324 0.706509
vt 0.645080 0.652270
vt 0.517769 0.652270
vt 0.517769 0.419447
vt 0.645080 0.419447
vt 0.746844 0.706509
vt 0.712499 0.706509
vt 0.712499 0.412865
vt 0.746844 0.412865
vt 0.517769 0.318705
vt 0.645080 0.318705
vt 0.440967 0.838947
vt 0.440967 0.761665
vt 0.517769 0.761665
vt 0.517769 0.838947
vt 0.440967 0.652270
vt 0.440967 0.419447
vt 0.440967 0.318705
vt 0.440967 0.220427
vt 0.440967 0.259570
vt 0.360324 0.761665
vt 0.360324 0.838947
vt 0.360324 0.419447
vt 0.360324 0.652270
vt 0.244365 0.652270
vt 0.244365 0.419447
vt 0.244365 0.318705
vt 0.360324 0.318705
vt 0.360324 0.220427
vt 0.360324 0.259570
vt 0.360324 0.705886
vt 0.244365 0.705886
vt 0.517769 0.705886
vt 0.440967 0.705886
vt 0.645080 0.705886
vt 0.360324 0.761665
vt 0.360324 0.838947
vt 0.517769 0.705886
vt 0.440967 0.705886
vt 0.517769 0.876516
vt 0.440967 0.876516
vt 0.440967 0.861267
vt 0.517769 0.861267
vt 0.090755 0.182858
vt 0.180578 0.182858
vt 0.090755 0.259570
vt 0.180578 0.876516
vt 0.090755 0.876516
vt 0.090755 0.761665
vt 0.712499 0.182858
vt 0.784413 0.182858
vt 0.784413 0.259570
vt 0.784413 0.761665
vt 0.784413 0.876516
vt 0.712499 0.876516
vt 0.517769 0.182858
vt 0.090755 0.706509
vt 0.090755 0.412865
vt 0.784413 0.412865
vt 0.784413 0.706509
vt 0.440967 0.182858
vt 0.360324 0.876516
vt 0.360324 0.182858
vt 0.695430 0.754250
vt 0.032613 0.124716
vt 0.180578 0.124716
vt 0.032613 0.259569
vt 0.842556 0.124716
vt 0.842556 0.259569
vt 0.180578 0.934659
vt 0.032613 0.934659
vt 0.842556 0.412865
vt 0.842556 0.706509
vt 0.032613 0.706509
vt 0.032613 0.412865
vt 0.360324 0.124716
vt 0.360324 0.934659
vt 0.842556 0.934659
vt 0.712499 0.934659
vt 0.712499 0.124716
vt 0.032613 0.761665
vt 0.842556 0.761665
vt 0.517769 0.934659
vt 0.517769 0.124716
vt 0.440967 0.934659
vt 0.440967 0.124716
vt 0.360324 0.861267
vt 0.885314 0.494711
vt 0.954116 0.525634
vt 0.918965 0.105518
vt 0.918965 0.105518
vt 0.954116 0.525634
vt 0.885314 0.494711
vt 0.918965 0.105518
vt 0.918965 0.105518
vt 0.517769 0.754250
vt 0.517769 0.272303
vt 0.695430 0.272303
vt 0.193512 0.652270
vt 0.193512 0.419447
vt 0.695430 0.419447
vt 0.695430 0.652270
vt 0.193512 0.272303
vt 0.517769 0.754250
vt 0.440967 0.754250
vt 0.440967 0.272303
vt 0.360324 0.754250
vt 0.193512 0.754250
vt 0.360324 0.272303
vt 0.360324 0.705886
vt 0.360324 0.754250
vn 0.000000 1.000000 -0.000000
vn 0.000000 1.000000 0.000000
vn 0.000000 1.000000 0.000000
vn 0.000000 1.000000 0.000000
vn 0.000000 1.000000 0.000000
vn 0.000000 1.000000 -0.000000
vn 0.000000 1.000000 -0.000000
vn 0.000000 1.000000 0.000000
vn 0.000000 1.000000 0.000000
vn 0.000000 1.000000 0.000000
vn 0.000000 1.000000 0.000000
vn 0.000000 1.000000 0.000000
vn 0.000000 1.000000 0.000000
vn 0.000000 1.000000 0.000000
vn 0.000000 1.000000 0.000000
vn 0.000000 1.000000 0.000000
vn 0.000000 1.000000 0.000000
vn 0.000000 1.000000 0.000000
vn 0.000000 1.000000 0.000000
vn 0.000000 1.000000 0.000000
vn 0.000000 1.000000 0.000000
vn 0.000000 1.000000 0.000000
vn 0.000000 1.000000 0.000000
vn 0.000000 1.000000 0.000000
vn -0.000000 1.000000 0.000000
vn -0.000000 1.000000 0.000000
vn -0.000000 1.000000 -0.000000
vn -0.000000 1.000000 -0.000000
vn 0.000000 1.000000 0.000000
vn 0.000000 1.000000 0.000000
vn 0.000000 1.000000 0.000000
vn 0.000000 1.000000 0.000000
vn -0.000000 1.000000 -0.000000
vn -0.000000 1.000000 -0.000000
vn 0.000000 1.000000 0.000000
vn 0.000000 1.000000 0.000000
vn 0.000000 1.000000 0.000000
vn 0.000000 1.000000 0.000000
vn 0.000000 1.000000 0.000000
vn 0.000000 1.000000 -0.000000
vn 0.000000 1.000000 -0.000000
vn 0.000000 1.000000 0.000000
vn 0.000000 1.000000 0.000000
vn 0.000000 1.000000 -0.000000
vn 0.000000 1.000000 -0.000000
vn 0.000000 1.000000 -0.000000
vn 0.000000 1.000000 0.000000
vn 0.000000 1.000000 0.000000
vn 0.000000 1.000000 -0.000000
vn 0.000000 1.000000 -0.000000
vn 0.000000 1.000000 -0.000000
vn 0.000000 1.000000 0.000000
vn 0.000000 1.000000 0.000000
vn 0.000000 1.000000 0.000000
vn 0.000000 1.000000 0.000000
vn -0.000000 1.000000 0.000000
vn 0.000000 1.000000 0.000000
vn -0.000000 1.000000 0.000000
vn -1.000000 0.000000 -0.000002
vn -0.000000 0.000000 -0.000000
vn -0.000000 0.000000 -0.000000
vn -1.000000 0.000000 -0.000002
vn 0.000000 0.000000 1.000000
vn 0.000000 0.000000 1.000000
vn 0.000000 0.000000 1.000000
vn 0.000000 0.000000 1.000000
vn 0.000000 0.000000 -0.000000
vn 1.000000 0.000000 -0.000001
vn 1.000000 0.000000 -0.000001
vn 0.000000 0.000000 -0.000000
vn 0.000000 1.000000 -0.000000
vn 0.000000 1.000000 -0.000000
vn 0.000000 1.000000 -0.000000
vn 0.000000 1.000000 -0.000000
vn 0.000000 0.548146 -0.836383
vn 0.000000 0.548146 -0.836383
vn 0.000000 0.548146 -0.836383
vn 0.000000 0.548146 -0.836383
vn 0.866988 0.498329 -0.000001
vn 0.866988 0.498329 -0.000001
vn 0.866988 0.498329 -0.000001
vn 0.866988 0.498329 -0.000001
vn 0.000000 0.548146 0.836383
vn 0.000000 0.548146 0.836383
vn 0.000000 0.548146 0.836383
vn 0.000000 0.548146 0.836383
vn 0.866988 0.498329 0.000000
vn 0.866988 0.498329 0.000000
vn 0.866988 0.498329 0.000000
vn 0.866988 0.498329 0.000000
vn 0.000001 0.548145 -0.836383
vn 0.000001 0.548145 -0.836383
vn 0.000001 0.548145 -0.836383
vn 0.000001 0.548145 -0.836383
vn -0.866988 0.498329 0.000000
vn -0.866988 0.498329 0.000000
vn -0.866988 0.498329 0.000000
vn -0.866988 0.498329 0.000000
vn -0.866988 0.498329 0.000000
vn -0.866988 0.498329 0.000000
vn -0.866988 0.498329 0.000000
vn -0.866988 0.498329 0.000000
vn 0.000000 0.548146 0.836383
vn 0.000000 0.548146 0.836383
vn 0.000000 0.548146 0.836383
vn 0.000000 0.548146 0.836383
vn 0.000000 0.249230 -0.968444
vn 0.000000 0.249230 -0.968444
vn 0.000000 0.249230 -0.968444
vn 0.000000 0.249230 -0.968444
vn 0.000000 0.548146 0.836383
vn 0.000000 0.548146 0.836383
vn 0.000000 0.548146 0.836383
vn 0.000000 0.548146 0.836383
vn 0.000000 0.548146 -0.836383
vn 0.000000 0.548146 -0.836383
vn 0.000000 0.548146 -0.836383
vn 0.000000 0.548146 -0.836383
vn 0.000000 0.210537 0.977586
vn 0.000000 0.210537 0.977586
vn 0.000000 0.210537 0.977586
vn 0.000000 0.210537 0.977586
vn -0.970516 0.241037 0.000000
vn -0.970516 0.241037 0.000000
vn -0.970516 0.241037 0.000000
vn -0.970516 0.241037 0.000000
vn 0.866988 0.498329 0.000000
vn 0.866988 0.498329 0.000000
vn 0.866988 0.498329 0.000000
vn 0.866988 0.498329 0.000000
vn 0.972661 0.232230 0.000000
vn 0.972661 0.232230 0.000000
vn 0.972661 0.232230 0.000000
vn 0.972661 0.232230 0.000000
vn -0.866988 0.498329 0.000000
vn -0.866988 0.498329 0.000000
vn -0.866988 0.498329 0.000000
vn -0.866988 0.498329 0.000000
vn -0.866988 0.498329 0.000000
vn -0.866988 0.498329 0.000000
vn -0.866988 0.498329 0.000000
vn -0.866988 0.498329 0.000000
vn 0.972661 0.232230 -0.000000
vn 0.972661 0.232230 -0.000000
vn 0.972661 0.232230 -0.000000
vn 0.972661 0.232230 -0.000000
vn -0.970516 0.241037 -0.000000
vn -0.970516 0.241037 -0.000000
vn -0.970516 0.241037 -0.000000
vn -0.970516 0.241037 -0.000000
vn 0.866988 0.498329 0.000000
vn 0.866988 0.498329 0.000000
vn 0.866988 0.498329 0.000000
vn 0.866988 0.498329 0.000000
vn 0.000000 0.249230 -0.968445
vn 0.000000 0.249230 -0.968444
vn 0.000000 0.249230 -0.968445
vn 0.000000 0.249230 -0.968445
vn 0.000000 0.362830 0.931855
vn 0.000000 0.362831 0.931855
vn 0.000000 0.362831 0.931855
vn 0.000000 0.362830 0.931855
vn 0.000000 0.548146 -0.836383
vn 0.000000 0.548146 -0.836383
vn 0.000000 0.548146 -0.836383
vn 0.000000 0.548146 -0.836383
vn 0.000000 0.210537 0.977586
vn 0.000000 0.210537 0.977586
vn 0.000000 0.210537 0.977586
vn 0.000000 0.210537 0.977586
vn 0.000000 0.249229 -0.968444
vn 0.000000 0.249229 -0.968444
vn 0.000000 0.249230 -0.968445
vn 0.000000 0.249229 -0.968445
vn -0.000000 0.548146 0.836383
vn -0.000000 0.548146 0.836383
vn -0.000000 0.548146 0.836383
vn -0.000000 0.548146 0.836383
vn -0.000000 0.548146 -0.836383
vn -0.000000 0.548146 -0.836383
vn -0.000000 0.548146 -0.836383
vn -0.000000 0.548146 -0.836383
vn 0.000000 0.210537 0.977586
vn 0.000000 0.210537 0.977586
vn 0.000000 0.210537 0.977586
vn 0.000000 0.210537 0.977586
vn -0.970516 0.241037 -0.000000
vn -0.970516 0.241037 -0.000000
vn -0.970516 0.241037 -0.000000
vn -0.970516 0.241037 -0.000000
vn 0.866988 0.498329 0.000000
vn 0.866988 0.498329 0.000000
vn 0.866988 0.498329 0.000000
vn 0.866988 0.498329 0.000000
vn 0.972661 0.232230 0.000000
vn 0.972661 0.232230 0.000000
vn 0.972661 0.232230 0.000000
vn 0.972661 0.232230 0.000000
vn -0.866988 0.498329 0.000000
vn -0.866988 0.498329 0.000000
vn -0.866988 0.498329 0.000000
vn -0.866988 0.498329 0.000000
vn 0.000000 0.000000 1.000000
vn 0.000000 0.000000 1.000000
vn 0.000000 0.000000 0.000000
vn 0.000000 0.000000 0.000000
vn -1.000000 0.000001 0.000003
vn -1.000000 0.000001 0.000003
vn -1.000000 0.000001 0.000003
vn -1.000000 0.000001 0.000003
vn 1.000000 0.000001 0.000002
vn 1.000000 0.000001 0.000002
vn 1.000000 0.000001 0.000002
vn 1.000000 0.000001 0.000002
vn 0.000000 0.000000 1.000000
vn 0.000000 0.000000 1.000000
vn 0.000000 0.000000 0.000000
vn 0.000000 0.000000 0.000000
vn 0.000000 1.000000 -0.000000
vn 0.000000 1.000000 -0.000000
vn 0.000000 1.000000 -0.000000
vn 0.000000 1.000000 -0.000000
vn 0.000000 1.000000 -0.000000
vn 0.000000 1.000000 -0.000000
vn 0.000000 1.000000 -0.000000
vn 0.000000 1.000000 -0.000000
vn 0.000000 1.000000 0.000000
vn 0.000000 1.000000 0.000000
vn 0.000000 1.000000 0.000000
vn 0.000000 1.000000 0.000000
vn 0.000000 1.000000 0.000000
vn 0.000000 1.000000 0.000000
vn 0.000000 1.000000 0.000000
vn 0.000000 1.000000 0.000000
vn -0.000000 1.000000 0.000000
vn -0.000000 1.000000 0.000000
vn -0.000000 1.000000 0.000000
vn -0.000000 1.000000 0.000000
vn 0.000000 1.000000 0.000000
vn 0.000000 1.000000 0.000000
vn 0.000000 1.000000 0.000000
vn 0.000000 1.000000 0.000000
vn 0.000000 1.000000 -0.000000
vn 0.000000 1.000000 -0.000000
vn 0.000000 1.000000 -0.000000
vn 0.000000 1.000000 -0.000000
vn 0.000000 1.000000 0.000000
vn 0.000000 1.000000 0.000000
vn 0.000000 1.000000 0.000000
vn 0.000000 1.000000 0.000000
vn 0.000000 1.000000 0.000000
vn 0.000000 1.000000 0.000000
vn 0.000000 1.000000 0.000000
vn 0.000000 1.000000 0.000000
vn 0.000000 1.000000 0.000000
vn 0.000000 1.000000 0.000000
vn 0.000000 1.000000 0.000000
vn 0.000000 1.000000 0.000000
vn 0.000000 1.000000 0.000000
vn 0.000000 1.000000 0.000000
vn 0.000000 1.000000 0.000000
vn 0.000000 1.000000 0.000000
vn -0.000000 1.000000 0.000000
vn -0.000000 1.000000 0.000000
vn -0.000000 1.000000 0.000000
vn -0.000000 1.000000 0.000000
vn 0.000000 1.000000 0.000000
vn 0.000000 1.000000 0.000000
vn 0.000000 1.000000 0.000000
vn 0.000000 1.000000 0.000000
vn 0.000000 1.000000 0.000000
vn 0.000000 1.000000 0.000000
vn 0.000000 1.000000 0.000000
vn 0.000000 1.000000 0.000000
vn 0.000000 1.000000 0.000000
vn 0.000000 1.000000 0.000000
vn 0.000000 1.000000 0.000000
vn 0.000000 1.000000 0.000000
vn 0.000000 1.000000 0.000000
vn 0.000000 1.000000 0.000000
vn 0.000000 1.000000 0.000000
vn 0.000000 1.000000 0.000000
vn 0.000000 1.000000 0.000000
vn 0.000000 1.000000 0.000000
vn 0.000000 1.000000 0.000000
vn 0.000000 1.000000 0.000000
vn 0.000000 1.000000 0.000000
vn 0.000000 1.000000 -0.000000
vn 0.000000 1.000000 -0.000000
vn 0.000000 1.000000 0.000000
vn 0.000000 1.000000 0.000000
vn 0.000000 1.000000 0.000000
vn 0.000000 1.000000 0.000000
vn 0.000000 1.000000 0.000000
vn -0.000000 1.000000 0.000000
vn -0.000000 1.000000 0.000000
vn -0.000000 1.000000 0.000000
vn -0.000000 1.000000 0.000000
vn 0.000000 1.000000 0.000000
vn 0.000000 1.000000 0.000000
vn 0.000000 1.000000 -0.000000
vn 0.000000 1.000000 -0.000000
vn 0.000000 0.362831 0.931855
vn 0.000000 0.362831 0.931855
vn 0.000000 1.000000 0.000000
vn 0.000000 1.000000 0.000000
vn 0.000000 0.249230 -0.968445
vn 0.000000 0.249230 -0.968444
vn 0.000000 0.000000 1.000000
vn 0.000000 0.000000 1.000000
vn 0.000000 0.210537 0.977586
vn 0.000000 0.210537 0.977586
vn 0.000000 0.548146 -0.836383
vn 0.000000 0.548146 -0.836383
vn 0.000000 1.000000 -0.000000
vn 0.000000 1.000000 -0.000000
s 1
g modelPanel4ViewSelectedSet polySurface185 Long_Shrine_Fence12
usemtl lambert4SG
f 41/1/1 42/2/2 43/3/3 44/4/4
f 45/5/5 46/6/6 47/7/7 48/8/8
f 49/9/9 50/10/10 51/11/11 52/12/12
f 53/13/13 54/14/14 55/15/15 56/16/16
f 57/17/17 58/18/18 54/14/14 53/13/13
f 59/19/19 49/9/9 52/12/12 60/20/20
f 62/21/21 61/22/22 63/23/23 64/24/24
s 5
f 15/25/25 22/26/26 23/27/27 11/28/28
s 1
f 66/29/29 65/30/30 67/31/31 68/32/32
f 52/12/12 51/11/11 68/32/32 67/31/31
s 5
f 24/33/33 18/34/34 11/28/28 23/27/27
s 1
f 44/4/4 43/3/3 61/22/22 62/21/21
s 6
f 100/35/35 101/36/36 71/37/37 72/38/38
s 5
f 23/27/27 22/26/26 104/39/39 105/40/40
f 106/41/41 24/33/33 23/27/27 105/40/40
s 1
f 108/42/42 59/19/19 60/20/20 107/43/43
f 47/7/7 46/6/6 75/44/44 76/45/45
s 5
f 28/46/46 27/47/47 14/48/48 8/49/49
f 19/50/50 29/51/51 28/46/46 8/49/49
s 1
f 42/2/2 73/52/52 74/53/53 43/3/3
f 64/24/24 63/23/23 46/6/6 45/5/5
s 5
f 33/54/54 32/55/55 14/48/48 27/47/47
f 34/56/56 103/57/57 104/39/39 22/26/26
f 35/58/58 34/56/56 22/26/26 15/25/25
s 1
f 55/15/15 54/14/14 65/30/30 66/29/29
s off
f 76/45/59 75/44/60 70/59/61 69/60/62
s 7
f 103/57/63 34/56/64 39/61/65 102/62/66
s off
f 58/18/67 57/17/68 72/38/69 71/37/70
s 8
f 21/63/71 98/64/72 99/65/73 40/66/74
s off
f 1/67/75 7/68/76 42/2/77 41/1/78
f 20/69/79 1/67/80 41/1/81 44/4/82
f 9/70/83 3/71/84 48/8/85 47/7/86
f 3/71/87 31/72/88 45/5/89 48/8/90
f 12/73/91 2/74/92 50/10/93 49/9/94
f 2/74/95 17/75/96 51/11/97 50/10/98
f 36/76/99 4/77/100 56/16/101 55/15/102
f 4/77/103 10/78/104 53/13/105 56/16/106
f 34/56/107 35/58/108 54/87/109 58/119/110
f 10/78/111 21/63/112 57/17/113 53/13/114
f 25/79/115 12/73/116 49/9/117 59/19/118
f 18/34/119 24/33/120 60/120/121 52/121/122
f 8/49/123 14/48/124 63/122/125 61/123/126
f 13/80/127 6/81/128 62/21/129 64/24/130
f 15/25/131 11/28/132 67/124/133 65/125/134
f 5/82/135 16/83/136 66/29/137 68/32/138
f 17/75/139 5/82/140 68/32/141 51/11/142
f 11/28/143 18/34/144 52/121/145 67/124/146
f 19/50/147 8/49/148 61/123/149 43/126/150
f 6/81/151 20/69/152 44/4/153 62/21/154
s 9
f 102/62/155 39/61/156 71/127/157 101/128/158
s 10
f 40/66/159 99/65/160 100/35/161 72/38/162
s 11
f 109/84/163 25/79/164 59/19/165 108/42/166
s 12
f 24/33/167 106/41/168 107/129/169 60/120/170
s off
f 32/55/171 33/54/172 75/130/173 46/131/174
f 26/85/175 9/70/176 47/7/177 76/45/178
f 7/68/179 30/86/180 73/52/181 42/2/182
f 29/51/183 19/50/184 43/126/185 74/132/186
f 14/48/187 32/55/188 46/131/189 63/122/190
f 31/72/191 13/80/192 64/24/193 45/5/194
f 35/58/195 15/25/196 65/125/197 54/87/198
f 16/83/199 36/76/200 55/15/201 66/29/202
f 33/54/203 38/133/204 70/134/205 75/130/206
f 37/111/207 26/112/208 76/113/209 69/114/210
f 21/115/211 40/116/212 72/117/213 57/118/214
f 39/61/215 34/56/216 58/119/217 71/127/218
f 7/68/219 1/67/220 77/88/221 78/89/222
f 1/67/223 20/69/224 79/90/225 77/88/226
f 17/75/227 2/74/228 80/91/229 81/92/230
f 3/71/231 9/70/232 83/93/233 82/94/234
f 16/83/235 5/82/236 84/95/237 85/96/238
f 6/81/239 13/80/240 87/97/241 86/98/242
f 30/86/243 7/68/244 78/89/245 88/99/246
f 9/70/247 26/85/248 89/100/249 83/93/250
f 10/78/251 4/77/252 91/101/253 90/102/254
f 2/74/255 12/73/256 92/103/257 80/91/258
f 13/80/259 31/72/260 93/104/261 87/97/262
f 36/76/263 16/83/264 85/96/265 94/105/266
f 5/82/267 17/75/268 81/92/269 84/95/270
f 20/69/271 6/81/272 86/98/273 79/90/274
f 21/63/275 10/78/276 90/102/277 95/106/278
f 12/73/279 25/79/280 96/107/281 92/103/282
s 13
f 98/64/283 21/63/284 95/106/285 97/108/286
s 14
f 25/79/287 109/84/288 110/109/289 96/107/290
s off
f 31/72/291 3/71/292 82/94/293 93/104/294
f 4/77/295 36/76/296 94/105/297 91/101/298
s 13
f 26/85/299 98/64/283 97/108/286 89/100/300
s 8
f 99/65/73 98/64/72 26/85/301 37/110/302
s 10
f 100/35/161 99/65/160 37/110/303 69/60/304
s 6
f 69/60/305 70/59/306 101/36/36 100/35/35
s 9
f 38/133/307 102/62/155 101/128/158 70/134/308
s 7
f 33/54/309 103/57/63 102/62/66 38/133/310
s 5
f 104/39/39 103/57/57 33/54/54 27/47/47
f 105/40/40 104/39/39 27/47/47 28/46/46
f 29/51/51 106/41/41 105/40/40 28/46/46
s 12
f 107/129/169 106/41/168 29/51/311 74/132/312
s 1
f 73/52/52 108/42/42 107/43/43 74/53/53
s 11
f 30/86/313 109/84/163 108/42/166 73/52/314
s 14
f 110/109/289 109/84/288 30/86/315 88/99/316
