# This file uses meters as units for non-parametric coordinates.

mtllib Shrine_GraveStone.mtl
g default
v -52.067505 -1.507782 32.332275
v 52.102905 -1.507782 32.332275
v -31.324219 30.831127 32.332275
v 31.359619 30.831127 32.332275
v -30.264282 25.732735 21.387451
v 30.299805 25.732735 21.387451
v -45.259888 -1.507782 15.607422
v 45.295166 -1.507782 15.607422
v -52.067505 -1.507782 45.061035
v 52.102905 -1.507782 45.061035
v 31.359619 30.831127 45.061035
v -31.324219 30.831127 45.061035
v -31.324219 91.658203 32.332275
v 31.359619 91.658203 32.332275
v -31.324219 91.658203 45.061035
v 31.359619 91.658203 45.061035
v -30.264282 18.547737 -28.097168
v 30.299805 18.547737 -28.097168
v 45.295166 -1.507782 -43.136963
v -45.259888 -1.507782 -43.136963
vt 0.375000 0.000000
vt 0.625000 0.000000
vt 0.625000 0.250000
vt 0.375000 0.250000
vt 0.375000 0.250000
vt 0.625000 0.250000
vt 0.625000 0.500000
vt 0.375000 0.500000
vt 0.375000 0.500000
vt 0.625000 0.500000
vt 0.625000 0.750000
vt 0.375000 0.750000
vt 0.375000 0.750000
vt 0.625000 0.750000
vt 0.625000 1.000000
vt 0.375000 1.000000
vt 0.625000 0.000000
vt 0.875000 0.000000
vt 0.875000 0.250000
vt 0.125000 0.000000
vt 0.375000 0.000000
vt 0.125000 0.250000
vt 0.625000 0.250000
vt 0.375000 0.250000
vt 0.375000 0.250000
vt 0.625000 0.250000
vn 0.000000 0.000000 1.000000
vn 0.000000 0.000000 1.000000
vn 0.000000 0.000000 1.000000
vn 0.000000 0.000000 1.000000
vn 0.000000 0.906475 -0.422260
vn 0.000000 0.906475 -0.422260
vn 0.000000 0.906475 -0.422260
vn 0.000000 0.906475 -0.422260
vn 0.000000 0.599953 -0.800035
vn 0.000000 0.599953 -0.800035
vn 0.000000 0.599953 -0.800035
vn 0.000000 0.599953 -0.800035
vn 0.000000 -1.000000 0.000000
vn 0.000000 -1.000000 0.000000
vn 0.000000 -1.000000 0.000000
vn 0.000000 -1.000000 0.000000
vn 0.798145 0.509894 -0.320893
vn 0.798145 0.509894 -0.320893
vn 0.798145 0.509894 -0.320893
vn 0.798145 0.509894 -0.320893
vn -0.798142 0.509898 -0.320895
vn -0.798142 0.509898 -0.320895
vn -0.798142 0.509898 -0.320895
vn -0.798142 0.509898 -0.320895
vn 0.000000 -1.000000 0.000000
vn 0.000000 -1.000000 0.000000
vn 0.000000 -1.000000 0.000000
vn 0.000000 -1.000000 0.000000
vn 0.841722 0.539911 0.000000
vn 0.841722 0.539911 0.000000
vn 0.841722 0.539911 0.000000
vn 0.841722 0.539911 0.000000
vn 0.000000 1.000000 0.000000
vn 0.000000 1.000000 0.000000
vn 0.000000 1.000000 0.000000
vn 0.000000 1.000000 0.000000
vn -0.841722 0.539911 0.000000
vn -0.841722 0.539911 0.000000
vn -0.841722 0.539911 0.000000
vn -0.841722 0.539911 0.000000
vn 0.000000 0.000000 -1.000000
vn 0.000000 0.000000 -1.000000
vn 0.000000 0.000000 -1.000000
vn 0.000000 0.000000 -1.000000
vn -1.000000 0.000000 0.000000
vn -1.000000 0.000000 0.000000
vn -1.000000 0.000000 0.000000
vn -1.000000 0.000000 0.000000
vn 0.000000 0.000000 1.000000
vn 0.000000 0.000000 1.000000
vn 0.000000 0.000000 1.000000
vn 0.000000 0.000000 1.000000
vn 1.000000 0.000000 0.000000
vn 1.000000 0.000000 0.000000
vn 1.000000 0.000000 0.000000
vn 1.000000 0.000000 0.000000
vn 0.000000 0.989623 -0.143690
vn 0.000000 0.989623 -0.143690
vn 0.000000 0.989623 -0.143690
vn 0.000000 0.989623 -0.143690
vn 0.836666 0.546511 -0.036281
vn 0.836666 0.546511 -0.036281
vn 0.836666 0.546511 -0.036281
vn 0.836666 0.546511 -0.036281
vn 0.000000 -1.000000 0.000000
vn 0.000000 -1.000000 0.000000
vn 0.000000 -1.000000 0.000000
vn 0.000000 -1.000000 0.000000
vn -0.836662 0.546516 -0.036282
vn -0.836662 0.546516 -0.036282
vn -0.836662 0.546516 -0.036282
vn -0.836662 0.546516 -0.036282
s off
g Grave_Marker
usemtl Shrine_GraveStone_initialShadingGroup
f 9/1/1 10/2/2 11/3/3 12/4/4
f 3/5/5 4/6/6 6/7/7 5/8/8
f 17/9/9 18/10/10 19/11/11 20/12/12
f 7/13/13 8/14/14 2/15/15 1/16/16
f 2/17/17 8/18/18 6/19/19 4/6/20
f 7/20/21 1/21/22 3/5/23 5/22/24
f 1/21/25 2/17/26 10/2/27 9/1/28
f 2/17/29 4/6/30 11/3/31 10/2/32
f 14/23/33 13/24/34 15/25/35 16/26/36
f 3/5/37 1/21/38 9/1/39 12/4/40
f 4/6/41 3/5/42 13/24/43 14/23/44
f 3/5/45 12/4/46 15/25/47 13/24/48
f 12/4/49 11/3/50 16/26/51 15/25/52
f 11/3/53 4/6/54 14/23/55 16/26/56
f 5/8/57 6/7/58 18/10/59 17/9/60
f 6/7/61 8/14/62 19/11/63 18/10/64
f 8/14/65 7/13/66 20/12/67 19/11/68
f 7/13/69 5/8/70 17/9/71 20/12/72
