# This file uses meters as units for non-parametric coordinates.

mtllib Shrine_Store.mtl
g default
v -169.536011 -5.942436 -118.889587
v -169.536011 -5.942436 132.802429
v -169.536011 52.962196 -118.889587
v -169.536011 52.962196 132.802429
v -169.536011 175.547974 -118.889587
v -169.536011 175.547974 132.802429
v 169.287598 175.547974 -118.889648
v 169.287598 175.547974 132.802429
v 169.287598 52.962196 -118.889648
v 169.287598 52.962196 132.802429
v 169.287598 -5.942436 -118.889648
v 169.287598 -5.942436 132.802429
v 142.888428 62.513504 -108.138672
v -143.136536 62.513504 -108.138611
v -143.136536 165.996674 -108.138611
v 142.888428 165.996674 -108.138672
v 142.888428 62.513504 115.704285
v -143.136475 62.513504 115.704285
v -143.136475 165.996674 115.704285
v 142.888428 165.996674 115.704285
v 1.534180 175.547974 -118.889587
v 1.275757 165.996674 -108.138611
v 1.275757 165.996674 115.704285
v 1.275757 62.513504 115.704285
v 1.275757 62.513504 -108.138611
v 1.534180 52.962196 -118.889587
v 1.534180 -5.942436 -118.889587
v 1.534180 -5.942436 132.802429
v 1.534180 52.962196 132.802429
v 1.534180 175.547974 132.802429
v 1.200073 62.513504 -58.178406
v -135.416321 62.513504 -58.178406
v -135.416260 62.513504 98.911682
v 1.200073 62.513504 98.911682
v 135.168213 62.513504 -58.178467
v 135.168213 62.513504 98.911682
v 1.200073 5.003151 -58.178406
v -135.416321 5.003151 -58.178406
v -135.416260 5.003151 98.911682
v 1.200073 5.003151 98.911682
v 135.168213 5.003151 -58.178467
v 135.168213 5.003151 98.911682
vt 0.898018 0.032151
vt 0.960661 0.032284
vt 0.960092 0.299947
vt 0.897449 0.299814
vt 0.767654 0.031874
vt 0.767085 0.299537
vt 0.587352 0.927144
vt 0.405426 0.926758
vt 0.405995 0.659095
vt 0.587921 0.659481
vt 0.896115 0.927801
vt 0.765750 0.927524
vt 0.766319 0.659860
vt 0.896684 0.660138
vt 0.959326 0.660271
vt 0.958757 0.927934
vt 0.959705 0.481872
vt 0.897063 0.481739
vt 0.766698 0.481462
vt -1.596452 0.243324
vt -1.102212 0.243324
vt -1.102211 0.412499
vt -1.596452 0.412499
vt 0.208515 0.374132
vt 0.283002 0.374132
vt 0.283002 0.515893
vt 0.208515 0.515893
vt -1.183280 0.443210
vt -1.596452 0.443210
vt -1.102211 0.772261
vt -1.183280 0.741198
vt -1.596452 0.772261
vt -1.596452 0.741198
vt -2.093148 0.772261
vt -2.093148 0.412499
vt -2.006459 0.443210
vt -2.006459 0.741198
vt 0.196048 0.081634
vt 0.287148 0.081634
vt 0.287967 0.202307
vt 0.196048 0.202307
vt 0.380163 0.374132
vt 0.380163 0.515893
vt 0.283002 0.678138
vt 0.208515 0.678143
vt 0.042531 0.515893
vt 0.042181 0.374132
vt 0.137387 0.374132
vt 0.137387 0.515893
vt 0.137387 0.678147
vt 0.104027 0.081634
vt 0.104910 0.202307
vt -2.093148 0.243324
vt 0.506900 0.027788
vt 0.650862 0.027788
vt 0.615291 0.081634
vt 0.506900 0.081634
vt 0.650862 0.251400
vt 0.615291 0.202307
vt 0.506900 0.251400
vt 0.506900 0.202307
vt 0.365463 0.027788
vt 0.403070 0.081634
vt 0.365463 0.251400
vt 0.403070 0.202307
vt 0.196048 0.027788
vt 0.331272 0.027788
vt 0.331272 0.251400
vt 0.196048 0.251400
vt 0.063096 0.027788
vt 0.063096 0.251400
vn -1.000000 0.000000 -0.000000
vn -1.000000 0.000000 -0.000000
vn -1.000000 0.000000 -0.000000
vn -1.000000 0.000000 -0.000000
vn -1.000000 0.000000 -0.000000
vn -1.000000 0.000000 -0.000000
vn -1.000000 0.000000 -0.000000
vn -1.000000 0.000000 -0.000000
vn 0.000000 1.000000 0.000000
vn 0.000000 1.000000 0.000000
vn 0.000000 1.000000 0.000000
vn 0.000000 1.000000 0.000000
vn 1.000000 0.000000 0.000000
vn 1.000000 0.000000 0.000000
vn 1.000000 0.000000 0.000000
vn 1.000000 0.000000 0.000000
vn 1.000000 0.000000 0.000000
vn 1.000000 0.000000 0.000000
vn 1.000000 0.000000 0.000000
vn 1.000000 0.000000 0.000000
vn -0.000000 0.000000 1.000000
vn -0.000000 0.000000 1.000000
vn -0.000000 0.000000 1.000000
vn -0.000000 0.000000 1.000000
vn -0.000000 0.000000 1.000000
vn -0.000000 0.000000 1.000000
vn -0.000000 0.000000 1.000000
vn -0.000000 0.000000 1.000000
vn 0.000000 0.000000 -1.000000
vn 0.000000 0.000000 -1.000000
vn 0.000000 0.000000 -1.000000
vn 0.000000 0.000000 -1.000000
vn 0.000000 0.000000 -1.000000
vn 0.000000 0.000000 -1.000000
vn 0.000000 0.000000 -1.000000
vn 0.000000 0.000000 -1.000000
vn 0.000000 0.747585 -0.664166
vn 0.000000 0.747587 -0.664164
vn 0.000000 0.747587 -0.664164
vn 0.000000 0.747585 -0.664166
vn 0.377165 0.000000 -0.926146
vn 0.377165 0.000000 -0.926146
vn 0.377166 0.000000 -0.926146
vn 0.377165 0.000000 -0.926146
vn 0.000000 -0.747587 -0.664164
vn 0.000000 -0.747586 -0.664165
vn 0.000000 -0.747586 -0.664165
vn 0.000000 -0.747587 -0.664164
vn -0.377170 0.000000 -0.926144
vn -0.377170 0.000000 -0.926144
vn -0.377170 0.000000 -0.926144
vn -0.377170 0.000000 -0.926144
vn 0.000000 1.000000 0.000000
vn 0.000000 1.000000 0.000000
vn 0.000000 1.000000 0.000000
vn 0.000000 1.000000 0.000000
vn 1.000000 0.000000 0.000000
vn 1.000000 0.000000 0.000000
vn 1.000000 0.000000 0.000000
vn 1.000000 0.000000 0.000000
vn 0.000000 -1.000000 0.000000
vn 0.000000 -1.000000 0.000000
vn 0.000000 -1.000000 0.000000
vn 0.000000 -1.000000 0.000000
vn -1.000000 0.000000 -0.000000
vn -1.000000 0.000000 -0.000000
vn -1.000000 0.000000 -0.000000
vn -1.000000 0.000000 -0.000000
vn 0.000000 1.000000 0.000000
vn 0.000000 1.000000 0.000000
vn 0.000000 1.000000 0.000000
vn 0.000000 1.000000 0.000000
vn 0.000000 -0.747586 -0.664165
vn 0.000000 -0.747586 -0.664165
vn 0.000000 -0.747584 -0.664167
vn 0.000000 -0.747584 -0.664167
vn 0.000000 -1.000000 0.000000
vn 0.000000 -1.000000 0.000000
vn 0.000000 -1.000000 0.000000
vn 0.000000 -1.000000 0.000000
vn 0.000000 0.000000 -1.000000
vn 0.000000 0.000000 -1.000000
vn 0.000000 0.000000 -1.000000
vn 0.000000 0.000000 -1.000000
vn 0.000000 1.000000 0.000000
vn 0.000000 1.000000 0.000000
vn 0.000000 1.000000 0.000000
vn 0.000000 1.000000 0.000000
vn 0.000000 0.747583 -0.664168
vn 0.000000 0.747585 -0.664166
vn 0.000000 0.747585 -0.664166
vn 0.000000 0.747583 -0.664168
vn 0.000000 0.000000 -1.000000
vn 0.000000 0.000000 -1.000000
vn 0.000000 0.000000 -1.000000
vn 0.000000 0.000000 -1.000000
vn -0.000000 0.000000 1.000000
vn -0.000000 0.000000 1.000000
vn -0.000000 0.000000 1.000000
vn -0.000000 0.000000 1.000000
vn -0.000000 0.000000 1.000000
vn -0.000000 0.000000 1.000000
vn -0.000000 0.000000 1.000000
vn -0.000000 0.000000 1.000000
vn 0.000000 1.000000 0.000000
vn 0.000000 1.000000 0.000000
vn 0.000000 1.000000 0.000000
vn 0.000000 1.000000 0.000000
vn 0.000000 1.000000 0.000000
vn 0.000000 1.000000 0.000000
vn 0.000000 1.000000 0.000000
vn 0.000000 1.000000 0.000000
vn 0.000000 1.000000 0.000000
vn 0.000000 1.000000 0.000000
vn 0.000000 1.000000 0.000000
vn 0.000000 1.000000 0.000000
vn 0.000000 1.000000 0.000000
vn 0.000000 1.000000 0.000000
vn 0.000000 1.000000 0.000000
vn 0.000000 1.000000 0.000000
vn 0.000000 1.000000 0.000000
vn 0.000000 1.000000 0.000000
vn 0.000000 1.000000 0.000000
vn 0.000000 1.000000 0.000000
vn 0.000000 1.000000 0.000000
vn 0.000000 1.000000 0.000000
vn 0.000000 1.000000 0.000000
vn 0.000000 1.000000 0.000000
vn -0.000000 0.000000 1.000000
vn -0.000000 0.000000 1.000000
vn -0.000000 0.000000 1.000000
vn -0.000000 0.000000 1.000000
vn 1.000000 0.000000 0.000000
vn 1.000000 0.000000 0.000000
vn 1.000000 0.000000 0.000000
vn 1.000000 0.000000 0.000000
vn 0.000000 0.000000 -1.000000
vn 0.000000 0.000000 -1.000000
vn 0.000000 0.000000 -1.000000
vn 0.000000 0.000000 -1.000000
vn -0.000000 0.000000 1.000000
vn -0.000000 0.000000 1.000000
vn -0.000000 0.000000 1.000000
vn -0.000000 0.000000 1.000000
vn 0.000000 0.000000 -1.000000
vn 0.000000 0.000000 -1.000000
vn 0.000000 0.000000 -1.000000
vn 0.000000 0.000000 -1.000000
vn -1.000000 0.000000 -0.000000
vn -1.000000 0.000000 -0.000000
vn -1.000000 0.000000 -0.000000
vn -1.000000 0.000000 -0.000000
s off
g Shrine_Shop
usemtl Shrine_Store_initialShadingGroup
f 3/1/1 1/2/2 2/3/3 4/4/4
f 5/5/5 3/1/6 4/4/7 6/6/8
f 21/7/9 5/8/10 6/9/11 30/10/12
f 9/11/13 7/12/14 8/13/15 10/14/16
f 12/15/17 11/16/18 9/11/19 10/14/20
f 2/3/21 28/17/22 29/18/23 4/4/24
f 4/4/25 29/18/26 30/19/27 6/6/28
f 27/20/29 1/21/30 3/22/31 26/23/32
f 24/24/33 18/25/34 19/26/35 23/27/36
f 26/23/37 3/22/38 14/28/39 25/29/40
f 3/22/41 5/30/42 15/31/43 14/28/44
f 5/30/45 21/32/46 22/33/47 15/31/48
f 7/34/49 9/35/50 13/36/51 16/37/52
f 37/38/53 38/39/54 39/40/55 40/41/56
f 14/42/57 15/43/58 19/26/59 18/25/60
f 15/44/61 22/45/62 23/27/63 19/26/64
f 16/46/65 13/47/66 17/48/67 20/49/68
f 8/13/69 7/12/70 21/7/71 30/10/72
f 22/33/73 21/32/74 7/34/75 16/37/76
f 23/27/77 22/45/78 16/50/79 20/49/80
f 17/48/81 24/24/82 23/27/83 20/49/84
f 41/51/85 37/38/86 40/41/87 42/52/88
f 9/35/89 26/23/90 25/29/91 13/36/92
f 11/53/93 27/20/94 26/23/95 9/35/96
f 29/18/97 28/17/98 12/15/99 10/14/100
f 30/19/101 29/18/102 10/14/103 8/13/104
f 25/54/105 14/55/106 32/56/107 31/57/108
f 14/55/109 18/58/110 33/59/111 32/56/112
f 18/58/113 24/60/114 34/61/115 33/59/116
f 13/62/117 25/54/118 31/57/119 35/63/120
f 24/60/121 17/64/122 36/65/123 34/61/124
f 17/64/125 13/62/126 35/63/127 36/65/128
f 31/66/129 32/67/130 38/39/131 37/38/132
f 32/67/133 33/68/134 39/40/135 38/39/136
f 33/68/137 34/69/138 40/41/139 39/40/140
f 35/70/141 31/66/142 37/38/143 41/51/144
f 34/69/145 36/71/146 42/52/147 40/41/148
f 36/71/149 35/70/150 41/51/151 42/52/152
