# This file uses meters as units for non-parametric coordinates.

mtllib Shrine_Rope_Fence.mtl
g default
v -4.669556 68.227058 4.164063
v -4.669556 68.227058 0.029053
v -4.669556 81.625946 0.029053
v -4.669556 81.625946 4.164063
v 3.847290 81.625946 0.029053
v 3.847290 81.625946 4.164063
v 3.847290 68.227058 0.029053
v 3.847290 68.227058 4.164063
v 3.847290 -3.195081 4.164063
v 3.847290 -3.195081 0.029053
v -4.669556 -3.195081 0.029053
v -4.669556 -3.195081 4.164063
v -4.669556 56.101509 4.164063
v 3.847290 56.101509 4.164063
v -4.669556 56.101509 0.029053
v 3.847290 56.101509 0.029053
v 5.086426 57.902409 4.765625
v -5.908325 57.902409 4.765625
v -5.908325 66.426186 4.765625
v 5.086426 66.426186 4.765625
v -5.908325 57.902409 -0.572510
v -5.908325 66.426186 -0.572510
v 5.086426 57.902409 -0.572510
v 5.086426 66.426186 -0.572510
v -165.770508 68.227058 4.164063
v -165.770508 68.227058 0.029053
v -165.770508 81.625946 0.029053
v -165.770508 81.625946 4.164063
v -157.253845 81.625946 0.029053
v -157.253845 81.625946 4.164063
v -157.253845 68.227058 0.029053
v -157.253845 68.227058 4.164063
v -157.253845 -3.195081 4.164063
v -157.253845 -3.195081 0.029053
v -165.770508 -3.195081 0.029053
v -165.770508 -3.195081 4.164063
v -165.770508 56.101509 4.164063
v -157.253845 56.101509 4.164063
v -165.770508 56.101509 0.029053
v -157.253845 56.101509 0.029053
v -156.014709 57.902409 4.765625
v -167.009460 57.902409 4.765625
v -167.009460 66.426186 4.765625
v -156.014709 66.426186 4.765625
v -167.009460 57.902409 -0.572510
v -167.009460 66.426186 -0.572510
v -156.014709 57.902409 -0.572510
v -156.014709 66.426186 -0.572510
v -162.216431 65.597176 1.892822
v -164.273743 59.893288 1.892822
v -143.174316 55.250481 1.892822
v -141.116577 60.954384 1.892822
v -121.340393 50.895576 1.892822
v -119.283020 56.599464 1.892822
v -89.162964 47.411655 1.892822
v -88.936646 53.115547 1.892822
v -2.684326 65.597176 1.892822
v -23.784180 60.954384 1.892822
v -21.725708 55.250481 1.892822
v -0.626221 59.893288 1.892822
v -45.617065 56.599464 1.892822
v -43.560303 50.895576 1.892822
v -75.999268 53.115547 1.892822
v -75.775391 47.411655 1.892822
v 0.418823 65.597176 1.892822
v -1.638550 59.893288 1.892822
v 19.461304 55.250481 1.892822
v 21.518677 60.954384 1.892822
v 41.294800 50.895576 1.892822
v 43.352661 56.599464 1.892822
v 73.472778 47.411655 1.892822
v 73.698853 53.115547 1.892822
v 159.951050 65.597176 1.892822
v 138.851440 60.954384 1.892822
v 140.908813 55.250481 1.893066
v 162.008667 59.893288 1.893066
v 117.017578 56.599464 1.892822
v 119.074951 50.895576 1.893066
v 86.635986 53.115547 1.892822
v 86.859985 47.411655 1.892822
v 157.440796 68.227058 4.164063
v 157.440796 68.227058 0.029053
v 157.440796 81.625946 0.029053
v 157.440796 81.625946 4.164063
v 165.957275 81.625946 0.029053
v 165.957275 81.625946 4.164063
v 165.957275 68.227058 0.029053
v 165.957275 68.227058 4.164063
v 165.957275 -3.195081 4.164063
v 165.957275 -3.195081 0.029053
v 157.440796 -3.195081 0.029053
v 157.440796 -3.195081 4.164063
v 157.440796 56.101509 4.164063
v 165.957275 56.101509 4.164063
v 157.440796 56.101509 0.029053
v 165.957275 56.101509 0.029053
v 167.196411 57.902409 4.765625
v 156.201660 57.902409 4.765625
v 156.201660 66.426186 4.765625
v 167.196411 66.426186 4.765625
v 156.201660 57.902409 -0.572510
v 156.201660 66.426186 -0.572510
v 167.196411 57.902409 -0.572510
v 167.196411 66.426186 -0.572510
vt 0.692860 0.798627
vt 0.729274 0.900372
vt 0.711916 0.947821
vt 0.646070 0.798627
vt 0.793489 0.900372
vt 0.835530 0.947821
vt 0.793489 0.798627
vt 0.835530 0.798627
vt 0.793489 0.077541
vt 0.700088 0.077541
vt 0.664209 0.036889
vt 0.835530 0.036889
vt 0.930171 0.798627
vt 0.930171 0.947821
vt 0.793489 0.627670
vt 0.700088 0.627670
vt 0.664209 0.627670
vt 0.927114 0.036889
vt 0.927114 0.627670
vt 0.835530 0.627670
vt 0.793489 0.675923
vt 0.793489 0.758497
vt 0.671231 0.758497
vt 0.671231 0.675923
vt 0.622988 0.758497
vt 0.622988 0.675923
vt 0.946697 0.675923
vt 0.946697 0.758497
vt 0.835530 0.758497
vt 0.835530 0.675923
vt 0.692860 0.798627
vt 0.729274 0.900372
vt 0.711916 0.947821
vt 0.646070 0.798627
vt 0.793489 0.900372
vt 0.835530 0.947821
vt 0.793489 0.798627
vt 0.835530 0.798627
vt 0.793489 0.077541
vt 0.700088 0.077541
vt 0.664209 0.036889
vt 0.835530 0.036889
vt 0.930171 0.798627
vt 0.930171 0.947821
vt 0.793489 0.627670
vt 0.700088 0.627670
vt 0.664209 0.627670
vt 0.927114 0.036889
vt 0.927114 0.627670
vt 0.835530 0.627670
vt 0.793489 0.675923
vt 0.793489 0.758497
vt 0.671231 0.758497
vt 0.671231 0.675923
vt 0.622988 0.758497
vt 0.622988 0.675923
vt 0.946697 0.675923
vt 0.946697 0.758497
vt 0.835530 0.758497
vt 0.835530 0.675923
vt 0.124769 0.060476
vt 0.515104 0.060476
vt 0.515104 0.657970
vt 0.124769 0.657970
vt 0.124769 0.060476
vt 0.515104 0.060476
vt 0.515104 0.657970
vt 0.124769 0.657970
vt 0.124769 0.060476
vt 0.515104 0.060476
vt 0.515104 0.657970
vt 0.124769 0.657970
vt 0.124769 0.060476
vt 0.515104 0.060476
vt 0.515104 0.657970
vt 0.124769 0.657970
vt 0.124769 0.060476
vt 0.515104 0.060476
vt 0.515104 0.657970
vt 0.124769 0.657970
vt 0.124769 0.060476
vt 0.515104 0.060476
vt 0.515104 0.657970
vt 0.124769 0.657970
vt 0.124769 0.060476
vt 0.515104 0.060476
vt 0.515104 0.657970
vt 0.124769 0.657970
vt 0.124769 0.060476
vt 0.515104 0.060476
vt 0.515104 0.657970
vt 0.124769 0.657970
vt 0.124769 0.060476
vt 0.515104 0.060476
vt 0.515104 0.657970
vt 0.124769 0.657970
vt 0.124769 0.060476
vt 0.515104 0.060476
vt 0.515104 0.657970
vt 0.124769 0.657970
vt 0.124769 0.060476
vt 0.515104 0.060476
vt 0.515104 0.657970
vt 0.124769 0.657970
vt 0.124769 0.060476
vt 0.515104 0.060476
vt 0.515104 0.657970
vt 0.124769 0.657970
vt 0.124769 0.060476
vt 0.515104 0.060476
vt 0.515104 0.657970
vt 0.124769 0.657970
vt 0.124769 0.060476
vt 0.515104 0.060476
vt 0.515104 0.657970
vt 0.124769 0.657970
vt 0.692860 0.798627
vt 0.729274 0.900372
vt 0.711916 0.947821
vt 0.646070 0.798627
vt 0.793489 0.900372
vt 0.835530 0.947821
vt 0.793489 0.798627
vt 0.835530 0.798627
vt 0.793489 0.077541
vt 0.700088 0.077541
vt 0.664209 0.036889
vt 0.835530 0.036889
vt 0.930171 0.798627
vt 0.930171 0.947821
vt 0.793489 0.627670
vt 0.700088 0.627670
vt 0.664209 0.627670
vt 0.927114 0.036889
vt 0.927114 0.627670
vt 0.835530 0.627670
vt 0.793489 0.675923
vt 0.793489 0.758497
vt 0.671231 0.758497
vt 0.671231 0.675923
vt 0.622988 0.758497
vt 0.622988 0.675923
vt 0.946697 0.675923
vt 0.946697 0.758497
vt 0.835530 0.758497
vt 0.835530 0.675923
vn -1.000000 0.000000 0.000000
vn -1.000000 0.000000 0.000000
vn -1.000000 0.000000 0.000000
vn -1.000000 0.000000 0.000000
vn 0.000000 1.000000 0.000000
vn 0.000000 1.000000 0.000000
vn 0.000000 1.000000 0.000000
vn 0.000000 1.000000 0.000000
vn 1.000000 0.000000 0.000000
vn 1.000000 0.000000 0.000000
vn 1.000000 0.000000 0.000000
vn 1.000000 0.000000 0.000000
vn 0.000000 -1.000000 0.000000
vn 0.000000 -1.000000 0.000000
vn 0.000000 -1.000000 0.000000
vn 0.000000 -1.000000 0.000000
vn 0.000000 0.000000 -1.000000
vn 0.000000 0.000000 -1.000000
vn 0.000000 0.000000 -1.000000
vn 0.000000 0.000000 -1.000000
vn 0.000000 0.000000 1.000000
vn 0.000000 0.000000 1.000000
vn 0.000000 0.000000 1.000000
vn 0.000000 0.000000 1.000000
vn 0.000000 0.000000 1.000000
vn 0.000000 0.000000 1.000000
vn 0.000000 0.000000 1.000000
vn 0.000000 0.000000 1.000000
vn -1.000000 0.000000 0.000000
vn -1.000000 0.000000 0.000000
vn -1.000000 0.000000 0.000000
vn -1.000000 0.000000 0.000000
vn 0.000000 0.000000 -1.000000
vn 0.000000 0.000000 -1.000000
vn 0.000000 0.000000 -1.000000
vn 0.000000 0.000000 -1.000000
vn 1.000000 0.000000 0.000000
vn 1.000000 0.000000 0.000000
vn 1.000000 0.000000 0.000000
vn 1.000000 0.000000 0.000000
vn 0.000000 0.000000 1.000000
vn 0.000000 0.000000 1.000000
vn 0.000000 0.000000 1.000000
vn 0.000000 0.000000 1.000000
vn -1.000000 0.000000 0.000000
vn -1.000000 0.000000 0.000000
vn -1.000000 0.000000 0.000000
vn -1.000000 0.000000 0.000000
vn 0.000000 0.000000 -1.000000
vn 0.000000 0.000000 -1.000000
vn 0.000000 0.000000 -1.000000
vn 0.000000 0.000000 -1.000000
vn 1.000000 0.000000 0.000000
vn 1.000000 0.000000 0.000000
vn 1.000000 0.000000 0.000000
vn 1.000000 0.000000 0.000000
vn 0.000000 -0.316829 0.948483
vn 0.000000 -0.316829 0.948483
vn 0.000000 -0.316829 0.948483
vn 0.000000 -0.316829 0.948483
vn 0.000000 0.316833 0.948481
vn 0.000000 0.316833 0.948481
vn 0.000000 0.316833 0.948481
vn 0.000000 0.316833 0.948481
vn -0.823916 -0.566712 0.000000
vn -0.823916 -0.566712 0.000000
vn -0.823916 -0.566712 0.000000
vn -0.823916 -0.566712 0.000000
vn -0.823916 0.566712 0.000000
vn -0.823916 0.566712 0.000000
vn -0.823916 0.566712 0.000000
vn -0.823916 0.566712 0.000000
vn 0.000000 -0.316829 -0.948483
vn 0.000000 -0.316829 -0.948483
vn 0.000000 -0.316829 -0.948483
vn 0.000000 -0.316829 -0.948483
vn 0.000000 0.316833 -0.948481
vn 0.000000 0.316833 -0.948481
vn 0.000000 0.316833 -0.948481
vn 0.000000 0.316833 -0.948481
vn 0.823806 0.566872 0.000000
vn 0.823806 0.566872 0.000000
vn 0.823806 0.566872 0.000000
vn 0.823806 0.566872 0.000000
vn 0.823806 -0.566872 0.000000
vn 0.823806 -0.566872 0.000000
vn 0.823806 -0.566872 0.000000
vn 0.823806 -0.566872 0.000000
vn -1.000000 0.000000 0.000000
vn -1.000000 0.000000 0.000000
vn -1.000000 0.000000 0.000000
vn -1.000000 0.000000 0.000000
vn 0.000000 1.000000 0.000000
vn 0.000000 1.000000 0.000000
vn 0.000000 1.000000 0.000000
vn 0.000000 1.000000 0.000000
vn 1.000000 0.000000 0.000000
vn 1.000000 0.000000 0.000000
vn 1.000000 0.000000 0.000000
vn 1.000000 0.000000 0.000000
vn 0.000000 -1.000000 0.000000
vn 0.000000 -1.000000 0.000000
vn 0.000000 -1.000000 0.000000
vn 0.000000 -1.000000 0.000000
vn 0.000000 0.000000 -1.000000
vn 0.000000 0.000000 -1.000000
vn 0.000000 0.000000 -1.000000
vn 0.000000 0.000000 -1.000000
vn 0.000000 0.000000 1.000000
vn 0.000000 0.000000 1.000000
vn 0.000000 0.000000 1.000000
vn 0.000000 0.000000 1.000000
vn 0.000000 0.000000 1.000000
vn 0.000000 0.000000 1.000000
vn 0.000000 0.000000 1.000000
vn 0.000000 0.000000 1.000000
vn -1.000000 0.000000 0.000000
vn -1.000000 0.000000 0.000000
vn -1.000000 0.000000 0.000000
vn -1.000000 0.000000 0.000000
vn 0.000000 0.000000 -1.000000
vn 0.000000 0.000000 -1.000000
vn 0.000000 0.000000 -1.000000
vn 0.000000 0.000000 -1.000000
vn 1.000000 0.000000 0.000000
vn 1.000000 0.000000 0.000000
vn 1.000000 0.000000 0.000000
vn 1.000000 0.000000 0.000000
vn 0.000000 0.000000 1.000000
vn 0.000000 0.000000 1.000000
vn 0.000000 0.000000 1.000000
vn 0.000000 0.000000 1.000000
vn -1.000000 0.000000 0.000000
vn -1.000000 0.000000 0.000000
vn -1.000000 0.000000 0.000000
vn -1.000000 0.000000 0.000000
vn 0.000000 0.000000 -1.000000
vn 0.000000 0.000000 -1.000000
vn 0.000000 0.000000 -1.000000
vn 0.000000 0.000000 -1.000000
vn 1.000000 0.000000 0.000000
vn 1.000000 0.000000 0.000000
vn 1.000000 0.000000 0.000000
vn 1.000000 0.000000 0.000000
vn 0.000000 -0.316829 0.948483
vn 0.000000 -0.316829 0.948483
vn 0.000000 -0.316829 0.948483
vn 0.000000 -0.316829 0.948483
vn 0.000000 0.316833 0.948481
vn 0.000000 0.316833 0.948481
vn 0.000000 0.316833 0.948481
vn 0.000000 0.316833 0.948481
vn -0.823850 -0.566808 0.000000
vn -0.823850 -0.566808 0.000000
vn -0.823850 -0.566808 0.000000
vn -0.823850 -0.566808 0.000000
vn -0.823850 0.566808 0.000000
vn -0.823850 0.566808 0.000000
vn -0.823850 0.566808 0.000000
vn -0.823850 0.566808 0.000000
vn 0.000000 -0.316829 -0.948483
vn 0.000000 -0.316829 -0.948483
vn 0.000000 -0.316829 -0.948483
vn 0.000000 -0.316829 -0.948483
vn 0.000000 0.316833 -0.948481
vn 0.000000 0.316833 -0.948481
vn 0.000000 0.316833 -0.948481
vn 0.000000 0.316833 -0.948481
vn 0.823839 0.566824 0.000000
vn 0.823839 0.566824 0.000000
vn 0.823839 0.566824 0.000000
vn 0.823839 0.566824 0.000000
vn 0.823839 -0.566824 0.000000
vn 0.823839 -0.566824 0.000000
vn 0.823839 -0.566824 0.000000
vn 0.823839 -0.566824 0.000000
vn 0.000008 0.000000 -1.000000
vn 0.000008 0.000000 -1.000000
vn 0.000008 0.000000 -1.000000
vn 0.000008 0.000000 -1.000000
vn 0.000007 0.000000 -1.000000
vn 0.000007 0.000000 -1.000000
vn 0.000007 0.000000 -1.000000
vn 0.000007 0.000000 -1.000000
vn 0.000005 0.000000 -1.000000
vn 0.000004 0.000000 -1.000000
vn 0.000004 0.000000 -1.000000
vn 0.000005 0.000000 -1.000000
vn -0.000015 0.000000 -1.000000
vn -0.000015 0.000000 -1.000000
vn -0.000015 0.000000 -1.000000
vn -0.000015 0.000000 -1.000000
vn 0.000007 0.000000 -1.000000
vn 0.000007 0.000000 -1.000000
vn 0.000007 0.000000 -1.000000
vn 0.000007 0.000000 -1.000000
vn -0.000011 0.000000 -1.000000
vn -0.000011 0.000000 -1.000000
vn -0.000008 0.000000 -1.000000
vn -0.000008 0.000000 -1.000000
vn 0.000004 0.000000 -1.000000
vn -0.000008 0.000000 -1.000000
vn -0.000008 0.000000 -1.000000
vn 0.000004 0.000000 -1.000000
vn 0.000008 0.000000 -1.000000
vn 0.000008 0.000000 -1.000000
vn 0.000008 0.000000 -1.000000
vn 0.000008 0.000000 -1.000000
vn 0.000007 0.000000 -1.000000
vn 0.000007 0.000000 -1.000000
vn 0.000007 0.000000 -1.000000
vn 0.000007 0.000000 -1.000000
vn 0.000005 0.000000 -1.000000
vn 0.000004 0.000000 -1.000000
vn 0.000004 0.000000 -1.000000
vn 0.000005 0.000000 -1.000000
vn 0.000000 -0.000040 -1.000000
vn 0.000000 -0.000040 -1.000000
vn 0.000000 -0.000040 -1.000000
vn 0.000000 -0.000040 -1.000000
vn 0.000007 -0.000040 -1.000000
vn 0.000007 -0.000040 -1.000000
vn 0.000007 -0.000040 -1.000000
vn 0.000007 -0.000040 -1.000000
vn -0.000011 -0.000020 -1.000000
vn -0.000011 -0.000020 -1.000000
vn -0.000008 -0.000014 -1.000000
vn -0.000008 -0.000014 -1.000000
vn 0.000004 0.000000 -1.000000
vn -0.000008 -0.000014 -1.000000
vn -0.000008 -0.000014 -1.000000
vn 0.000004 0.000000 -1.000000
vn -1.000000 0.000000 0.000000
vn -1.000000 0.000000 0.000000
vn -1.000000 0.000000 0.000000
vn -1.000000 0.000000 0.000000
vn 0.000000 1.000000 0.000000
vn 0.000000 1.000000 0.000000
vn 0.000000 1.000000 0.000000
vn 0.000000 1.000000 0.000000
vn 1.000000 0.000000 0.000000
vn 1.000000 0.000000 0.000000
vn 1.000000 0.000000 0.000000
vn 1.000000 0.000000 0.000000
vn 0.000000 -1.000000 0.000000
vn 0.000000 -1.000000 0.000000
vn 0.000000 -1.000000 0.000000
vn 0.000000 -1.000000 0.000000
vn 0.000000 0.000000 -1.000000
vn 0.000000 0.000000 -1.000000
vn 0.000000 0.000000 -1.000000
vn 0.000000 0.000000 -1.000000
vn 0.000000 0.000000 1.000000
vn 0.000000 0.000000 1.000000
vn 0.000000 0.000000 1.000000
vn 0.000000 0.000000 1.000000
vn 0.000000 0.000000 1.000000
vn 0.000000 0.000000 1.000000
vn 0.000000 0.000000 1.000000
vn 0.000000 0.000000 1.000000
vn -1.000000 0.000000 0.000000
vn -1.000000 0.000000 0.000000
vn -1.000000 0.000000 0.000000
vn -1.000000 0.000000 0.000000
vn 0.000000 0.000000 -1.000000
vn 0.000000 0.000000 -1.000000
vn 0.000000 0.000000 -1.000000
vn 0.000000 0.000000 -1.000000
vn 1.000000 0.000000 0.000000
vn 1.000000 0.000000 0.000000
vn 1.000000 0.000000 0.000000
vn 1.000000 0.000000 0.000000
vn 0.000000 0.000000 1.000000
vn 0.000000 0.000000 1.000000
vn 0.000000 0.000000 1.000000
vn 0.000000 0.000000 1.000000
vn -1.000000 0.000000 0.000000
vn -1.000000 0.000000 0.000000
vn -1.000000 0.000000 0.000000
vn -1.000000 0.000000 0.000000
vn 0.000000 0.000000 -1.000000
vn 0.000000 0.000000 -1.000000
vn 0.000000 0.000000 -1.000000
vn 0.000000 0.000000 -1.000000
vn 1.000000 0.000000 0.000000
vn 1.000000 0.000000 0.000000
vn 1.000000 0.000000 0.000000
vn 1.000000 0.000000 0.000000
vn 0.000000 -0.316826 0.948484
vn 0.000000 -0.316826 0.948484
vn 0.000000 -0.316826 0.948484
vn 0.000000 -0.316826 0.948484
vn 0.000000 0.316830 0.948482
vn 0.000000 0.316830 0.948482
vn 0.000000 0.316830 0.948482
vn 0.000000 0.316830 0.948482
vn -0.823806 -0.566872 0.000000
vn -0.823806 -0.566872 0.000000
vn -0.823806 -0.566872 0.000000
vn -0.823806 -0.566872 0.000000
vn -0.823806 0.566872 0.000000
vn -0.823806 0.566872 0.000000
vn -0.823806 0.566872 0.000000
vn -0.823806 0.566872 0.000000
vn 0.000000 -0.316826 -0.948484
vn 0.000000 -0.316826 -0.948484
vn 0.000000 -0.316826 -0.948484
vn 0.000000 -0.316826 -0.948484
vn 0.000000 0.316830 -0.948482
vn 0.000000 0.316830 -0.948482
vn 0.000000 0.316830 -0.948482
vn 0.000000 0.316830 -0.948482
vn 0.823828 0.566840 0.000000
vn 0.823828 0.566840 0.000000
vn 0.823828 0.566840 0.000000
vn 0.823828 0.566840 0.000000
vn 0.823828 -0.566840 0.000000
vn 0.823828 -0.566840 0.000000
vn 0.823828 -0.566840 0.000000
vn 0.823828 -0.566840 0.000000
s off
g Rope_Fence1
usemtl Shrine_Rope_Fence_initialShadingGroup
f 1/1/1 4/2/2 3/3/3 2/4/4
f 4/2/5 6/5/6 5/6/7 3/3/8
f 6/5/9 8/7/10 7/8/11 5/6/12
f 9/9/13 12/10/14 11/11/15 10/12/16
f 2/13/17 3/14/18 5/6/19 7/8/20
f 8/7/21 6/5/22 4/2/23 1/1/24
f 9/9/25 14/15/26 13/16/27 12/10/28
f 12/10/29 13/16/30 15/17/31 11/11/32
f 11/18/33 15/19/34 16/20/35 10/12/36
f 14/15/37 9/9/38 10/12/39 16/20/40
f 17/21/41 20/22/42 19/23/43 18/24/44
f 18/24/45 19/23/46 22/25/47 21/26/48
f 21/27/49 22/28/50 24/29/51 23/30/52
f 20/22/53 17/21/54 23/30/55 24/29/56
f 14/15/57 17/21/58 18/24/59 13/16/60
f 1/1/61 19/23/62 20/22/63 8/7/64
f 13/16/65 18/24/66 21/26/67 15/17/68
f 2/4/69 22/25/70 19/23/71 1/1/72
f 15/19/73 21/27/74 23/30/75 16/20/76
f 7/8/77 24/29/78 22/28/79 2/13/80
f 8/7/81 20/22/82 24/29/83 7/8/84
f 16/20/85 23/30/86 17/21/87 14/15/88
f 25/31/89 28/32/90 27/33/91 26/34/92
f 28/32/93 30/35/94 29/36/95 27/33/96
f 30/35/97 32/37/98 31/38/99 29/36/100
f 33/39/101 36/40/102 35/41/103 34/42/104
f 26/43/105 27/44/106 29/36/107 31/38/108
f 32/37/109 30/35/110 28/32/111 25/31/112
f 33/39/113 38/45/114 37/46/115 36/40/116
f 36/40/117 37/46/118 39/47/119 35/41/120
f 35/48/121 39/49/122 40/50/123 34/42/124
f 38/45/125 33/39/126 34/42/127 40/50/128
f 41/51/129 44/52/130 43/53/131 42/54/132
f 42/54/133 43/53/134 46/55/135 45/56/136
f 45/57/137 46/58/138 48/59/139 47/60/140
f 44/52/141 41/51/142 47/60/143 48/59/144
f 38/45/145 41/51/146 42/54/147 37/46/148
f 25/31/149 43/53/150 44/52/151 32/37/152
f 37/46/153 42/54/154 45/56/155 39/47/156
f 26/34/157 46/55/158 43/53/159 25/31/160
f 39/49/161 45/57/162 47/60/163 40/50/164
f 31/38/165 48/59/166 46/58/167 26/43/168
f 32/37/169 44/52/170 48/59/171 31/38/172
f 40/50/173 47/60/174 41/51/175 38/45/176
f 49/61/177 52/62/178 51/63/179 50/64/180
f 52/65/181 54/66/182 53/67/183 51/68/184
f 54/69/185 56/70/186 55/71/187 53/72/188
f 57/73/189 60/74/190 59/75/191 58/76/192
f 58/77/193 59/78/194 62/79/195 61/80/196
f 61/81/197 62/82/198 64/83/199 63/84/200
f 56/85/201 63/86/202 64/87/203 55/88/204
f 65/89/205 68/90/206 67/91/207 66/92/208
f 68/93/209 70/94/210 69/95/211 67/96/212
f 70/97/213 72/98/214 71/99/215 69/100/216
f 73/101/217 76/102/218 75/103/219 74/104/220
f 74/105/221 75/106/222 78/107/223 77/108/224
f 77/109/225 78/110/226 80/111/227 79/112/228
f 72/113/229 79/114/230 80/115/231 71/116/232
f 81/117/233 84/118/234 83/119/235 82/120/236
f 84/118/237 86/121/238 85/122/239 83/119/240
f 86/121/241 88/123/242 87/124/243 85/122/244
f 89/125/245 92/126/246 91/127/247 90/128/248
f 82/129/249 83/130/250 85/122/251 87/124/252
f 88/123/253 86/121/254 84/118/255 81/117/256
f 89/125/257 94/131/258 93/132/259 92/126/260
f 92/126/261 93/132/262 95/133/263 91/127/264
f 91/134/265 95/135/266 96/136/267 90/128/268
f 94/131/269 89/125/270 90/128/271 96/136/272
f 97/137/273 100/138/274 99/139/275 98/140/276
f 98/140/277 99/139/278 102/141/279 101/142/280
f 101/143/281 102/144/282 104/145/283 103/146/284
f 100/138/285 97/137/286 103/146/287 104/145/288
f 94/131/289 97/137/290 98/140/291 93/132/292
f 81/117/293 99/139/294 100/138/295 88/123/296
f 93/132/297 98/140/298 101/142/299 95/133/300
f 82/120/301 102/141/302 99/139/303 81/117/304
f 95/135/305 101/143/306 103/146/307 96/136/308
f 87/124/309 104/145/310 102/144/311 82/129/312
f 88/123/313 100/138/314 104/145/315 87/124/316
f 96/136/317 103/146/318 97/137/319 94/131/320
