# This file uses centimeters as units for non-parametric coordinates.

mtllib Shrine_Cherryblossom.mtl
g default
v 1047.499634 -27.129120 2399.815918
v 1047.831177 -27.129175 2451.786377
v 1076.763306 -27.129175 2489.141846
v 1123.246338 -27.129175 2497.606445
v 1169.521606 -27.129120 2473.956543
v 1197.919800 -27.128794 2427.217041
v 1200.524292 -27.128521 2370.418701
v 1176.738037 -27.128466 2324.595459
v 1125.106934 -27.128521 2324.599121
v 1075.897095 -27.128794 2353.079346
v 1077.656494 374.484802 2415.430664
v 1083.028687 374.848358 2450.436035
v 1109.883667 383.007507 2475.414063
v 1141.738159 385.023315 2482.200684
v 1187.483276 397.686279 2456.322021
v 1199.358398 397.379395 2436.777832
v 1197.653931 373.670349 2403.668457
v 1177.002075 346.441589 2365.716797
v 1146.845703 346.562500 2354.467529
v 1095.070190 374.034790 2386.773438
v 1100.148682 512.208801 2405.236572
v 1102.580933 521.038452 2437.260498
v 1096.076782 467.403992 2479.450195
v 1130.794189 466.031982 2492.110596
v 1181.325928 497.488708 2447.263184
v 1200.833008 497.314575 2415.156494
v 1200.245117 496.504547 2386.552734
v 1193.190796 474.798462 2346.358154
v 1165.551880 474.866821 2337.424316
v 1105.798096 511.953430 2379.754639
v 1091.302612 444.288147 2544.436279
v 1089.207031 487.388306 2547.883057
v 1111.505859 444.549377 2549.246094
v 1113.820801 487.706116 2553.741699
v 1046.807495 470.964813 2679.370361
v 1048.114746 501.993835 2660.696777
v 1067.675537 471.685486 2683.293701
v 1073.541748 502.872955 2665.477539
v 1043.210815 545.245850 2737.329102
v 1045.916016 545.245850 2707.970215
v 1063.119629 545.245850 2740.839355
v 1069.723511 545.245850 2712.982666
v 1261.133057 457.780975 2471.355225
v 1255.089355 500.313049 2478.224854
v 1270.667236 457.598328 2455.659668
v 1269.842651 500.091614 2452.316895
v 1345.256836 495.903870 2517.753662
v 1325.382202 521.382202 2506.832275
v 1351.153442 495.791687 2508.045410
v 1332.568115 521.244568 2495.004395
v 1391.734497 554.151001 2541.632813
v 1361.803223 554.151001 2525.531982
v 1397.405151 554.150879 2532.298096
v 1368.714722 554.151001 2514.156982
v 1117.406738 529.504639 2410.342041
v 1146.522095 529.504639 2417.564209
v 1119.237915 529.504700 2428.391113
v 1131.487915 529.504700 2442.304932
v 1149.482300 529.504700 2446.766602
v 1166.345703 529.504639 2440.076416
v 1175.635376 529.504517 2424.786865
v 1173.803223 529.504517 2406.738037
v 1161.550659 529.504517 2392.824951
v 1143.557373 529.504517 2388.360352
v 1126.694458 529.504517 2395.054443
v 1072.729858 427.601654 2364.481689
v 1088.744141 492.919922 2366.439209
v 1057.532227 427.891724 2389.492920
v 1074.436401 496.658813 2389.987549
v 994.127197 468.882019 2316.340088
v 1022.760803 496.560364 2328.206543
v 983.047607 469.092865 2334.575928
v 1011.778198 496.679565 2346.280762
v 876.457886 568.256714 2250.725830
v 900.585449 568.256714 2273.081299
v 865.804321 568.256714 2268.260498
v 894.560242 568.256714 2282.997314
v 891.546143 568.256470 2253.348633
v 1015.710205 481.043793 2306.917969
v 1091.725220 458.536865 2344.949951
v 1118.653198 442.303558 2354.772461
v 1146.659180 406.468842 2332.924072
v 1200.369141 406.370911 2354.498047
v 1200.235596 442.167603 2396.309570
v 1217.094971 443.875092 2408.995605
v 1276.652222 476.277679 2443.731934
v 1348.013672 506.956055 2493.912354
v 1389.595215 554.150879 2516.233398
v 1374.198853 554.151245 2541.576172
v 1331.997681 507.260864 2520.270508
v 1249.840942 476.704346 2490.155273
v 1180.807251 444.436523 2468.721191
v 1153.035278 443.815002 2499.030273
v 1124.146362 463.643616 2558.291992
v 1081.887085 485.483826 2682.468994
v 1072.395874 545.245850 2729.741455
v 1038.052368 545.245850 2723.113770
v 1037.622070 484.693176 2665.174561
v 1080.609131 463.357483 2540.027100
v 1090.190063 443.759338 2474.636963
v 1080.852539 443.117828 2458.495117
v 1069.612915 442.981018 2435.486572
v 1058.326904 459.001495 2399.919434
v 991.360962 481.382202 2346.993408
v 874.111938 568.256836 2282.046143
v 1062.191528 251.329102 2409.179443
v 1084.897583 251.329132 2371.807861
v 1124.686279 251.329208 2348.376709
v 1166.452637 251.329208 2347.682617
v 1185.081787 251.329208 2385.071289
v 1182.620239 251.329132 2431.183838
v 1159.913452 251.329102 2468.556885
v 1122.879272 251.329132 2487.450439
v 1085.665894 251.329102 2480.650146
v 1062.485229 251.329132 2450.753174
v 1216.177002 368.164734 2283.319824
v 1226.544434 403.190552 2288.644775
v 1183.868164 368.235229 2266.732178
v 1177.062866 403.248505 2263.238037
v 1216.177002 443.184235 2283.319824
v 1197.908081 443.224060 2273.940430
v 1272.365845 433.169556 2143.214111
v 1273.858154 446.901489 2155.832031
v 1253.667236 433.197998 2134.713623
v 1245.227051 446.924377 2142.799316
v 1264.354980 453.344757 2160.783203
v 1253.781372 453.360046 2155.979004
v 1309.780518 516.356689 2048.378418
v 1306.619263 516.337158 2061.969971
v 1301.929688 516.356873 2044.828247
v 1294.607178 516.337158 2056.515625
v 1297.629028 516.314209 2075.028320
v 1293.188843 516.314209 2073.020752
v 1213.578857 503.771210 2283.821777
v 1199.931274 503.839600 2279.466553
v 1178.798462 543.139038 2314.593262
v 1194.909424 543.139038 2319.358887
v 1249.866577 547.936707 2203.043457
v 1237.787720 547.997253 2199.187500
v 1228.567139 578.760010 2215.825439
v 1238.976929 578.760010 2218.901367
v 1287.137085 628.571167 2124.518311
v 1273.490234 628.571167 2120.162354
v 1260.242432 628.571411 2145.087646
v 1272.003540 628.571411 2148.564453
v 1089.902954 530.410217 2528.638672
v 1102.046143 529.129700 2531.098877
v 1116.193237 561.144165 2506.566406
v 1105.640869 561.144165 2503.948242
v 1072.818604 589.187256 2565.637451
v 1084.961914 587.906738 2568.098633
v 1095.991577 611.640991 2550.316162
v 1085.439087 611.640991 2547.698486
v 1024.141602 664.685303 2671.054932
v 1036.284790 664.685303 2673.516113
v 1050.432129 664.685669 2648.982666
v 1039.879639 664.685669 2646.364990
v 1054.255249 664.685425 2668.521484
v 1023.524902 664.685486 2657.096436
v 1072.202026 602.337769 2551.678955
v 1089.286255 543.560852 2514.679688
v 1102.120117 490.234650 2459.920654
v 1109.708252 520.687622 2433.465332
v 1107.533203 515.636047 2407.420898
v 1119.132813 515.489868 2388.329346
v 1145.657593 494.272095 2354.378174
v 1182.753052 520.146790 2280.297852
v 1225.620972 564.321289 2205.326172
v 1259.741821 628.571289 2127.096680
v 1289.152344 628.571289 2138.728271
v 1251.651611 564.286743 2215.620605
v 1222.740479 520.093201 2296.092773
v 1190.135742 494.232910 2371.080566
v 1188.876953 506.651367 2395.164063
v 1190.051514 507.114746 2419.277100
v 1174.916260 507.214417 2444.188232
v 1154.522217 488.985413 2479.402832
v 1120.016724 542.828247 2526.104736
v 1102.932251 601.605225 2563.103760
vt 0.132511 0.426063
vt 0.132511 0.377029
vt 0.162653 0.377029
vt 0.180045 0.377029
vt 0.088264 0.377029
vt 0.111229 0.377029
vt 0.132511 0.377029
vt 0.162653 0.377029
vt 0.180045 0.377029
vt 0.180649 0.426063
vt 0.111229 0.377029
vt 0.548064 0.408865
vt 0.480546 0.408865
vt 0.480546 0.052032
vt 0.548064 0.052032
vt 0.609488 0.052032
vt 0.609488 0.408865
vt 0.668448 0.052032
vt 0.668448 0.408865
vt 0.722633 0.052032
vt 0.722633 0.408865
vt 0.768728 0.052032
vt 0.768728 0.408865
vt 0.811899 0.052032
vt 0.811899 0.408865
vt 0.867189 0.052032
vt 0.867189 0.408865
vt 0.908385 0.052032
vt 0.908385 0.408865
vt 0.409693 0.052032
vt 0.409693 0.408865
vt 0.132511 0.162264
vt 0.132511 0.041467
vt 0.186408 0.041467
vt 0.186408 0.162264
vt 0.236913 0.041467
vt 0.236913 0.162264
vt 0.987349 0.772128
vt 0.987349 0.823825
vt 0.746254 0.857302
vt 0.746254 0.802859
vt 0.032726 0.162264
vt 0.032726 0.041467
vt 0.111229 0.041467
vt 0.111229 0.162264
vt 0.987349 0.969068
vt 0.987349 0.674945
vt 0.746254 0.670540
vt 0.746254 0.964592
vt 0.132511 0.162264
vt 0.132511 0.041467
vt 0.186408 0.041467
vt 0.186408 0.162264
vt 0.236913 0.041467
vt 0.236913 0.162264
vt 0.987349 0.772128
vt 0.987349 0.823825
vt 0.746254 0.857302
vt 0.746254 0.802859
vt 0.032726 0.162264
vt 0.032726 0.041467
vt 0.111229 0.041467
vt 0.111229 0.162264
vt 0.987349 0.969068
vt 0.987349 0.674945
vt 0.746254 0.670540
vt 0.746254 0.964592
vt 0.987349 0.915970
vt 0.746254 0.917621
vt 0.987349 0.631987
vt 0.746254 0.629290
vt 0.132511 0.256631
vt 0.186408 0.256631
vt 0.987349 0.674945
vt 0.987349 0.726001
vt 0.987349 0.674945
vt 0.987349 0.726001
vt 0.746254 0.726826
vt 0.746254 0.670540
vt 0.422544 0.866963
vt 0.422545 0.832208
vt 0.422545 0.907558
vt 0.422544 0.709924
vt 0.987349 0.726001
vt 0.746254 0.726826
vt 0.987349 0.772128
vt 0.746254 0.802859
vt 0.186408 0.292256
vt 0.132511 0.292256
vt 0.987349 0.823825
vt 0.987349 0.915970
vt 0.746254 0.917621
vt 0.746254 0.857302
vt 0.422544 0.752621
vt 0.422544 0.945711
vt 0.422545 0.783807
vt 0.422544 0.832208
vt 0.422544 0.907558
vt 0.422544 0.866963
vt 0.236913 0.256631
vt 0.236913 0.292256
vt 0.032726 0.256631
vt 0.111229 0.256631
vt 0.111229 0.292256
vt 0.422544 0.783807
vt 0.422544 0.752621
vt 0.037764 0.866963
vt 0.037764 0.832208
vt 0.032726 0.292256
vt 0.132511 0.256631
vt 0.132511 0.292256
vt 0.186408 0.256631
vt 0.186408 0.292256
vt 0.236913 0.256631
vt 0.236913 0.292256
vt 0.987349 0.823825
vt 0.987349 0.915970
vt 0.746254 0.917621
vt 0.746254 0.857302
vt 0.032726 0.256631
vt 0.111229 0.256631
vt 0.111229 0.292256
vt 0.032726 0.292256
vt 0.987349 0.726001
vt 0.746254 0.726826
vt 0.987349 0.772128
vt 0.746254 0.802859
vt 0.987349 0.823825
vt 0.987349 0.915970
vt 0.746254 0.917621
vt 0.746254 0.857302
vt 0.422544 0.752621
vt 0.422544 0.945711
vt 0.422544 0.783807
vt 0.422544 0.832208
vt 0.422544 0.907558
vt 0.422544 0.866963
vt 0.987349 0.915970
vt 0.746254 0.917621
vt 0.987349 0.631987
vt 0.746254 0.629290
vt 0.987349 0.726001
vt 0.746254 0.726826
vt 0.987349 0.674945
vt 0.746254 0.670540
vt 0.422544 0.866963
vt 0.422544 0.832208
vt 0.422544 0.907558
vt 0.422544 0.709924
vt 0.422544 0.783799
vt 0.422544 0.752621
vt 0.987349 0.631987
vt 0.746254 0.629290
vt 0.987349 0.674945
vt 0.987349 0.726001
vt 0.746254 0.726826
vt 0.746254 0.670540
vt 0.987349 0.772128
vt 0.746254 0.802859
vt 0.422544 0.907558
vt 0.422544 0.866963
vt 0.422544 0.709924
vt 0.422544 0.783807
vt 0.422544 0.752621
vt 0.422544 0.832208
vt 0.037764 0.907558
vt 0.037764 0.709923
vt 0.746254 0.726826
vt 0.746254 0.670540
vt 0.987349 0.772128
vt 0.746254 0.802859
vt 0.987349 0.823825
vt 0.987349 0.915970
vt 0.746254 0.917621
vt 0.746254 0.857302
vt 0.987349 0.969068
vt 0.746254 0.964592
vt 0.422544 0.783807
vt 0.422545 0.752621
vt 0.409693 0.587896
vt 0.480546 0.587896
vt 0.336446 0.587896
vt 0.867189 0.587896
vt 0.811899 0.587896
vt 0.768728 0.587896
vt 0.722634 0.587896
vt 0.668448 0.587896
vt 0.609488 0.587896
vt 0.548064 0.587896
vt 0.037764 0.907558
vt 0.037764 0.866963
vt 0.037764 0.709923
vt 0.037764 0.783807
vt 0.037764 0.752621
vt 0.037764 0.832208
vt 0.037764 0.866963
vt 0.037764 0.832208
vt 0.037764 0.907558
vt 0.037764 0.709924
vt 0.037764 0.783799
vt 0.037764 0.752621
vt 0.037764 0.752621
vt 0.037764 0.709924
vt 0.037764 0.783807
vt 0.037764 0.832208
vt 0.037764 0.907558
vt 0.037764 0.866963
vt 0.422544 0.832208
vt 0.422544 0.907558
vt 0.422544 0.866963
vt 0.422544 0.945711
vt 0.037764 0.783807
vt 0.037764 0.752621
vt 0.037764 0.832208
vt 0.037764 0.907558
vt 0.037764 0.866963
vt 0.037764 0.709924
vt 0.037764 0.866963
vt 0.037764 0.907558
vt 0.037764 0.783807
vt 0.037764 0.752621
vt 0.037764 0.752621
vt 0.037764 0.709923
vt 0.037764 0.783807
vt 0.037764 0.832208
vt 0.422544 0.945711
vt 0.037764 0.945711
vt 0.746254 0.964592
vt 0.987349 0.969068
vt 0.746254 0.629290
vt 0.987349 0.631987
vt 0.422544 0.709923
vt 0.037764 0.945711
vt 0.422544 0.945711
vt 0.037764 0.945711
vt 0.746254 0.964592
vt 0.987349 0.969068
vt 0.336446 0.408865
vt 0.908385 0.587896
vt 0.422544 0.945711
vt 0.037764 0.945711
vt 0.746254 0.964592
vt 0.987349 0.969068
vt 0.746254 0.629290
vt 0.987349 0.631987
vt 0.422544 0.709924
vt 0.037764 0.945711
vt 0.746254 0.629290
vt 0.987349 0.631987
vt 0.422544 0.709924
vt 0.037764 0.945711
vt 0.336446 0.052032
vt 0.088263 0.377029
vt 0.132511 0.426063
vt 0.088264 0.426063
vn 0.000002 1.000000 -0.000003
vn -0.527624 0.835158 -0.155321
vn -0.475653 0.831816 0.286070
vn -0.566060 0.723392 -0.395323
vn 0.719238 0.649158 0.247569
vn 0.541780 0.637623 0.547643
vn 0.697936 0.681533 0.219998
vn 0.604294 0.770506 -0.202856
vn 0.512242 0.824621 0.240019
vn -0.581728 0.751919 -0.310179
vn -0.375434 0.767182 -0.520078
vn -0.940788 0.078009 0.329899
vn -0.961826 0.081421 -0.261270
vn -0.959314 0.059920 -0.275911
vn -0.949827 0.051118 0.308571
vn -0.521041 0.042608 0.852468
vn -0.517818 0.063280 0.853148
vn 0.160286 0.036178 0.986407
vn 0.166604 0.031485 0.985521
vn 0.686833 0.037804 0.725832
vn 0.671081 0.007738 0.741344
vn 0.957950 0.048235 0.282851
vn 0.957139 0.003629 0.289606
vn 0.977112 0.064527 -0.202704
vn 0.979882 0.030610 -0.197215
vn 0.513690 0.091312 -0.853103
vn 0.534687 0.081195 -0.841140
vn -0.272486 0.081141 -0.958732
vn -0.285266 0.097126 -0.953514
vn -0.692145 0.070317 -0.718325
vn -0.687947 0.091877 -0.719922
vn -0.948528 0.110951 0.296623
vn -0.987015 0.008658 -0.160396
vn -0.901742 0.072363 0.426175
vn -0.922626 0.098415 0.372929
vn -0.541381 -0.145007 0.828178
vn -0.971169 -0.091469 0.220145
vn 0.739381 0.000892 0.673286
vn 0.315780 -0.170599 0.933370
vn 0.626545 -0.227279 0.745511
vn 0.233996 -0.007977 0.972205
vn 0.740804 -0.188526 -0.644722
vn 0.927738 -0.328134 0.177849
vn 0.986898 -0.134676 -0.088857
vn 0.982440 -0.057085 -0.177632
vn 0.822782 -0.332491 -0.460956
vn 0.980391 -0.101242 0.169070
vn -0.778889 0.011579 -0.627055
vn -0.439606 -0.168751 -0.882196
vn -0.687636 -0.053430 -0.724087
vn -0.398700 -0.009486 -0.917032
vn -0.605272 -0.776161 0.176693
vn -0.974419 -0.121299 -0.189194
vn 0.380658 -0.767009 0.516523
vn 0.923172 -0.049472 0.381189
vn 0.619510 0.424964 0.660010
vn -0.939336 0.319766 0.124091
vn -0.422866 0.855051 -0.300121
vn 0.500730 0.865513 -0.012539
vn -0.493317 -0.817630 0.296849
vn -0.968784 -0.164490 -0.185473
vn 0.261140 -0.839998 0.475615
vn 0.910701 -0.196962 0.363084
vn -0.505434 0.758478 -0.411397
vn 0.570206 0.814533 -0.106775
vn -0.416767 -0.572954 0.705712
vn -0.977791 -0.139358 0.156536
vn 0.102458 -0.603329 0.790883
vn 0.842624 -0.262935 0.469947
vn -0.409964 0.665113 -0.624143
vn 0.702112 0.557751 -0.442666
vn 0.201373 -0.696448 0.688774
vn -0.265559 -0.028300 0.963679
vn 0.618867 -0.731540 -0.286101
vn 0.573454 -0.082352 -0.815088
vn 0.450290 0.739191 -0.500835
vn 0.031798 0.735741 0.676516
vn -0.329464 0.810053 0.485044
vn 0.215763 0.762920 -0.609426
vn 0.170652 -0.747589 0.641863
vn -0.324305 -0.179521 0.928762
vn 0.639525 -0.752616 -0.156773
vn 0.608981 -0.159122 -0.777060
vn -0.512977 0.768650 0.382142
vn 0.062193 0.730637 -0.679928
vn 0.381785 -0.600128 0.702913
vn -0.250074 -0.181810 0.951004
vn 0.780068 -0.625651 -0.007392
vn 0.700961 -0.278666 -0.656505
vn -0.733828 0.572040 0.366424
vn -0.055734 0.524536 -0.849562
vn -0.790661 0.584162 0.183329
vn -0.843691 0.473975 0.252058
vn -0.456464 0.787614 0.413889
vn -0.504109 0.838564 -0.206605
vn -0.907292 0.315609 -0.277873
vn 0.681960 0.398715 0.613153
vn 0.805470 0.086932 0.586227
vn 0.781624 0.590861 0.199866
vn 0.947084 0.212783 -0.240325
vn 0.667207 0.697483 -0.261442
vn 0.999113 0.018019 -0.038070
vn 0.883027 0.358620 0.302746
vn -0.602785 0.125091 -0.788037
vn -0.305238 0.568439 -0.764008
vn -0.343231 0.719254 -0.604042
vn -0.801976 0.282537 -0.526315
vn -0.216185 -0.700245 -0.680383
vn 0.295288 -0.100168 -0.950143
vn -0.840443 -0.528557 0.119513
vn -0.750604 0.176953 0.636617
vn 0.282999 0.750663 -0.597006
vn -0.502299 0.752614 0.425755
vn -0.208112 -0.788071 -0.579340
vn 0.424066 -0.053091 -0.904074
vn -0.634014 -0.760480 0.140344
vn -0.529616 0.081945 0.844270
vn 0.473297 0.805087 -0.357526
vn -0.113156 0.792443 0.599358
vn -0.395576 -0.781690 -0.482161
vn 0.241495 -0.238124 -0.940732
vn -0.616524 -0.784161 -0.070641
vn -0.605381 -0.204790 0.769140
vn 0.585528 0.773466 -0.242711
vn 0.030014 0.673750 0.738349
vn 0.640292 -0.768123 0.003682
vn 0.943813 -0.063614 0.324300
vn -0.465371 -0.738094 -0.488515
vn -0.879747 0.123763 -0.459051
vn 0.772825 0.593468 0.224806
vn -0.613061 0.706821 -0.352931
vn 0.635900 -0.751614 -0.175234
vn 0.944301 -0.043260 0.326227
vn -0.297393 -0.740924 -0.602154
vn -0.891906 0.182587 -0.413721
vn 0.609294 0.676099 0.414307
vn -0.611220 0.787964 -0.074308
vn 0.535005 -0.727627 -0.429335
vn 0.959970 -0.123902 0.251207
vn -0.033679 -0.723468 -0.689536
vn -0.883630 0.033763 -0.466967
vn 0.458757 0.627777 0.628838
vn -0.679194 0.707608 0.194903
vn -0.379270 -0.727161 -0.572181
vn 0.675717 -0.730969 -0.095343
vn -0.876071 -0.008315 -0.482111
vn 0.585645 0.671471 0.454033
vn -0.749741 0.633369 -0.191659
vn 0.912166 0.106463 0.395751
vn -0.309142 -0.681406 -0.663413
vn 0.686201 -0.691378 -0.226107
vn -0.866703 -0.048597 -0.496453
vn 0.452837 0.693718 0.560083
vn -0.729934 0.683343 -0.015426
vn 0.910305 0.077674 0.406586
vn -0.133277 -0.673975 -0.726633
vn 0.587726 -0.694775 -0.414567
vn -0.747703 -0.278373 -0.602867
vn 0.369735 0.649710 0.664208
vn -0.763931 0.632693 0.126923
vn 0.946240 -0.159996 0.281126
vn 0.199552 -0.475942 0.856538
vn -0.834535 -0.415401 0.361931
vn 0.836304 0.045757 0.546354
vn -0.560547 0.523821 -0.641404
vn 0.817135 0.576118 -0.019431
vn -0.895174 0.161797 -0.415313
vn 0.249131 -0.642258 0.724872
vn -0.746521 -0.627698 0.220685
vn 0.895397 0.009461 0.445168
vn -0.304291 0.688012 -0.658822
vn 0.647972 0.716183 -0.259256
vn -0.841846 0.178629 -0.509300
vn 0.118881 -0.787334 0.604957
vn -0.503676 -0.797729 0.331570
vn 0.630095 -0.468509 0.619258
vn -0.335474 0.749291 -0.570982
vn 0.574500 0.798623 -0.179306
vn -0.936836 -0.196382 -0.289436
s 1
g polySurface1 Sakura_Tree1
usemtl initialShadingGroup
f 56/1/1 55/2/2 57/3/3
f 56/1/1 57/3/3 58/4/4
f 56/254/1 58/255/4 59/5/5
f 56/254/1 59/5/5 60/6/6
f 56/254/1 60/6/6 61/7/7
f 56/254/1 61/7/7 62/8/8
f 56/254/1 62/8/8 63/9/9
f 56/254/1 63/9/9 64/10/10
f 56/1/1 64/253/10 65/11/11
f 56/1/1 65/11/11 55/2/2
f 115/12/12 106/13/13 1/14/14 2/15/15
f 115/12/12 2/15/15 3/16/16 114/17/17
f 114/17/17 3/16/16 4/18/18 113/19/19
f 113/19/19 4/18/18 5/20/20 112/21/21
f 112/21/21 5/20/20 6/22/22 111/23/23
f 111/23/23 6/22/22 7/24/24 110/25/25
f 110/25/25 7/24/24 8/26/26 109/27/27
f 109/27/27 8/26/26 9/28/28 108/29/29
f 108/238/29 9/252/28 10/30/30 107/31/31
f 107/31/31 10/30/30 1/14/14 106/13/13
f 102/32/32 11/33/33 12/34/34 101/35/35
f 101/35/35 12/34/34 13/36/36 100/37/37
f 93/42/38 14/43/39 15/44/40 92/45/41
f 85/50/42 16/51/43 17/52/44 84/53/45
f 84/53/45 17/52/44 18/54/46 83/55/47
f 82/60/48 19/61/49 20/62/50 81/63/51
f 100/38/37 13/39/36 31/40/52 99/41/53
f 13/39/36 14/68/39 33/69/54 31/40/52
f 14/68/39 93/243/38 94/242/55 33/69/54
f 24/76/56 23/77/57 32/78/58 34/79/59
f 99/41/53 31/40/52 35/80/60 98/81/61
f 31/40/52 33/69/54 37/82/62 35/80/60
f 33/69/54 94/242/55 95/240/63 37/82/62
f 34/79/59 32/78/58 36/105/64 38/106/65
f 98/81/61 35/80/60 39/107/66 97/108/67
f 35/80/60 37/82/62 41/166/68 39/107/66
f 37/82/62 95/240/63 96/241/69 41/166/68
f 38/106/65 36/105/64 40/220/70 42/221/71
f 92/245/41 15/47/40 43/48/72 91/244/73
f 15/47/40 16/84/43 45/85/74 43/48/72
f 16/84/43 85/86/42 86/87/75 45/85/74
f 26/90/76 25/91/77 44/92/78 46/93/79
f 91/244/73 43/48/72 47/94/80 90/246/81
f 43/48/72 45/85/74 49/96/82 47/94/80
f 45/85/74 86/87/75 87/97/83 49/96/82
f 46/93/79 44/92/78 48/98/84 50/99/85
f 90/246/81 47/94/80 51/222/86 89/223/87
f 47/94/80 49/96/82 53/224/88 51/222/86
f 49/96/82 87/97/83 88/225/89 53/224/88
f 50/99/85 48/98/84 52/219/90 54/218/91
f 21/72/92 22/73/93 163/88/94 164/89/95
f 22/73/93 23/100/57 162/101/96 163/88/94
f 24/102/56 25/103/77 176/104/97 177/109/98
f 25/103/77 26/110/76 175/111/99 176/104/97
f 26/110/76 27/112/100 174/113/101 175/111/99
f 27/112/100 28/114/102 173/115/103 174/113/101
f 29/120/104 30/121/105 165/122/106 166/123/107
f 30/121/105 21/72/92 164/89/95 165/122/106
f 81/249/51 20/65/50 66/66/108 80/248/109
f 20/65/50 11/124/33 68/125/110 66/66/108
f 11/124/33 102/126/32 103/127/111 68/125/110
f 21/128/92 30/129/105 67/130/112 69/131/113
f 80/248/109 66/66/108 70/132/114 79/250/115
f 66/66/108 68/125/110 72/134/116 70/132/114
f 68/125/110 103/127/111 104/135/117 72/134/116
f 69/131/113 67/130/112 71/136/118 73/137/119
f 79/250/115 70/132/114 74/202/120 78/203/121
f 70/132/114 72/134/116 76/204/122 74/202/120
f 72/134/116 104/135/117 105/205/123 76/204/122
f 73/137/119 71/136/118 75/206/124 77/207/125
f 71/136/118 79/133/115 78/251/121 75/206/124
f 67/130/112 80/67/109 79/133/115 71/136/118
f 30/129/105 81/64/51 80/67/109 67/130/112
f 29/120/104 82/60/48 81/63/51 30/121/105
f 27/112/100 84/53/45 83/55/47 28/114/102
f 26/110/76 85/50/42 84/53/45 27/112/100
f 86/87/75 85/86/42 26/90/76 46/93/79
f 87/97/83 86/87/75 46/93/79 50/99/85
f 88/225/89 87/97/83 50/99/85 54/218/91
f 48/98/84 90/95/81 89/247/87 52/219/90
f 44/92/78 91/49/73 90/95/81 48/98/84
f 25/91/77 92/46/41 91/49/73 44/92/78
f 24/102/56 93/42/38 92/45/41 25/103/77
f 94/71/55 93/70/38 24/76/56 34/79/59
f 95/83/63 94/71/55 34/79/59 38/106/65
f 96/167/69 95/83/63 38/106/65 42/221/71
f 36/105/64 98/81/61 97/108/67 40/220/70
f 32/78/58 99/41/53 98/81/61 36/105/64
f 23/77/57 100/38/37 99/41/53 32/78/58
f 22/73/93 101/35/35 100/37/37 23/100/57
f 21/72/92 102/32/32 101/35/35 22/73/93
f 103/127/111 102/126/32 21/128/92 69/131/113
f 104/135/117 103/127/111 69/131/113 73/137/119
f 105/205/123 104/135/117 73/137/119 77/207/125
f 20/180/50 107/31/31 106/13/13 11/181/33
f 19/182/49 108/238/29 107/31/31 20/180/50
f 18/183/46 109/27/27 108/29/29 19/239/49
f 17/184/44 110/25/25 109/27/27 18/183/46
f 16/185/43 111/23/23 110/25/25 17/184/44
f 15/186/40 112/21/21 111/23/23 16/185/43
f 14/187/39 113/19/19 112/21/21 15/186/40
f 13/188/36 114/17/17 113/19/19 14/187/39
f 12/189/34 115/12/12 114/17/17 13/188/36
f 11/181/33 106/13/13 115/12/12 12/189/34
f 83/56/47 18/57/46 116/58/126 117/59/127
f 18/57/46 19/138/49 118/139/128 116/58/126
f 19/138/49 82/237/48 119/236/129 118/139/128
f 28/142/102 83/56/47 117/59/127 120/143/130
f 82/140/48 29/144/104 121/145/131 119/141/129
f 29/144/104 28/142/102 120/143/130 121/145/131
f 117/59/127 116/58/126 122/146/132 123/147/133
f 116/58/126 118/139/128 124/148/134 122/146/132
f 118/139/128 119/236/129 125/234/135 124/148/134
f 120/143/130 117/59/127 123/147/133 126/150/136
f 119/141/129 121/145/131 127/151/137 125/149/135
f 121/145/131 120/143/130 126/150/136 127/151/137
f 123/147/133 122/146/132 128/196/138 129/197/139
f 122/146/132 124/148/134 130/198/140 128/196/138
f 124/148/134 125/234/135 131/235/141 130/198/140
f 126/150/136 123/147/133 129/197/139 132/200/142
f 125/149/135 127/151/137 133/201/143 131/199/141
f 127/151/137 126/150/136 132/200/142 133/201/143
f 28/116/102 29/117/104 135/118/144 134/119/145
f 29/117/104 166/229/107 167/228/146 135/118/144
f 64/154/10 63/155/9 137/156/147 136/157/148
f 173/158/103 28/116/102 134/119/145 172/159/149
f 134/119/145 135/118/144 139/160/150 138/161/151
f 135/118/144 167/228/146 168/226/152 139/160/150
f 136/157/148 137/156/147 141/163/153 140/164/154
f 172/159/149 134/119/145 138/161/151 171/165/155
f 138/161/151 139/160/150 143/190/156 142/191/157
f 139/160/150 168/226/152 169/227/158 143/190/156
f 140/164/154 141/163/153 145/193/159 144/194/160
f 171/165/155 138/161/151 142/191/157 170/195/161
f 23/74/57 24/75/56 147/168/162 146/169/163
f 24/75/56 177/170/98 178/171/164 147/168/162
f 59/172/5 58/173/4 149/174/165 148/175/166
f 162/231/96 23/74/57 146/169/163 161/230/167
f 146/169/163 147/168/162 151/178/168 150/179/169
f 147/168/162 178/171/164 179/208/170 151/178/168
f 148/175/166 149/174/165 153/209/171 152/210/172
f 161/230/167 146/169/163 150/179/169 160/232/173
f 150/179/169 151/178/168 155/212/174 154/213/175
f 151/178/168 179/208/170 158/214/176 155/212/174
f 152/210/172 153/209/171 157/215/177 156/216/178
f 160/232/173 150/179/169 154/213/175 159/217/179
f 153/209/171 160/211/173 159/233/179 157/215/177
f 149/174/165 161/177/167 160/211/173 153/209/171
f 58/173/4 162/176/96 161/177/167 149/174/165
f 163/88/94 162/101/96 58/4/4 57/3/3
f 164/89/95 163/88/94 57/3/3 55/2/2
f 165/122/106 164/89/95 55/2/2 65/11/11
f 166/123/107 165/122/106 65/11/11 64/253/10
f 167/153/146 166/152/107 64/154/10 136/157/148
f 168/162/152 167/153/146 136/157/148 140/164/154
f 169/192/158 168/162/152 140/164/154 144/194/160
f 141/163/153 171/165/155 170/195/161 145/193/159
f 137/156/147 172/159/149 171/165/155 141/163/153
f 63/155/9 173/158/103 172/159/149 137/156/147
f 174/113/101 173/115/103 63/9/9 62/8/8
f 175/111/99 174/113/101 62/8/8 61/7/7
f 176/104/97 175/111/99 61/7/7 60/6/6
f 177/109/98 176/104/97 60/6/6 59/5/5
f 178/171/164 177/170/98 59/172/5 148/175/166
f 179/208/170 178/171/164 148/175/166 152/210/172
f 158/214/176 179/208/170 152/210/172 156/216/178
