# This file uses meters as units for non-parametric coordinates.

mtllib Shrine_HouseBlock.mtl
g default
v -544.468018 2.867414 458.112305
v -2.796165 2.867414 458.112305
v 538.875610 2.867414 458.112305
v -544.468018 83.509674 458.112305
v -2.796165 83.509674 458.112305
v 538.875610 83.509674 458.112305
v -544.468018 83.509674 -0.870850
v -2.796165 83.509674 -0.870850
v 538.875610 83.509674 -0.870850
v -544.468018 83.509674 -459.854004
v -2.796165 83.509674 -459.854004
v 538.875610 83.509674 -459.854004
v -544.468018 2.867414 -459.854004
v -2.796165 2.867414 -459.854004
v 538.875610 2.867414 -459.854004
v -544.468018 2.867414 -0.870850
v 538.875610 2.867414 -0.870850
vt 0.503341 0.038793
vt 0.502275 0.160032
vt 0.107306 0.160032
vt 0.024920 0.038793
vt 0.882454 0.160032
vt 0.985265 0.038793
vt 0.500099 0.502729
vt 0.107306 0.502729
vt 0.882454 0.502729
vt 0.499757 0.844222
vt 0.107306 0.844222
vt 0.882454 0.844222
vt 0.499680 0.964506
vt 0.024920 0.964506
vt 0.985265 0.964506
vt 0.985265 0.502729
vt 0.024920 0.502729
vn 0.000000 0.000000 1.000000
vn 0.000000 0.000000 1.000000
vn 0.000000 0.000000 1.000000
vn 0.000000 0.000000 1.000000
vn 0.000000 0.000000 1.000000
vn 0.000000 0.000000 1.000000
vn 0.000000 0.000000 1.000000
vn 0.000000 0.000000 1.000000
vn 0.000000 1.000000 0.000000
vn 0.000000 1.000000 0.000000
vn 0.000000 1.000000 0.000000
vn 0.000000 1.000000 0.000000
vn 0.000000 1.000000 0.000000
vn 0.000000 1.000000 0.000000
vn 0.000000 1.000000 0.000000
vn 0.000000 1.000000 0.000000
vn 0.000000 1.000000 0.000000
vn 0.000000 1.000000 0.000000
vn 0.000000 1.000000 0.000000
vn 0.000000 1.000000 0.000000
vn 0.000000 1.000000 0.000000
vn 0.000000 1.000000 0.000000
vn 0.000000 1.000000 0.000000
vn 0.000000 1.000000 0.000000
vn 0.000000 0.000000 -1.000000
vn 0.000000 0.000000 -1.000000
vn 0.000000 0.000000 -1.000000
vn 0.000000 0.000000 -1.000000
vn 0.000000 0.000000 -1.000000
vn 0.000000 0.000000 -1.000000
vn 0.000000 0.000000 -1.000000
vn 0.000000 0.000000 -1.000000
vn 1.000000 0.000000 0.000000
vn 1.000000 0.000000 0.000000
vn 1.000000 0.000000 0.000000
vn 1.000000 0.000000 0.000000
vn 1.000000 0.000000 0.000000
vn 1.000000 0.000000 0.000000
vn 1.000000 0.000000 0.000000
vn 1.000000 0.000000 0.000000
vn -1.000000 0.000000 0.000000
vn -1.000000 0.000000 0.000000
vn -1.000000 0.000000 0.000000
vn -1.000000 0.000000 0.000000
vn -1.000000 0.000000 0.000000
vn -1.000000 0.000000 0.000000
vn -1.000000 0.000000 0.000000
vn -1.000000 0.000000 0.000000
s off
g Shrine_Stand1
usemtl Shrine_HouseBlock_initialShadingGroup
f 2/1/1 5/2/2 4/3/3 1/4/4
f 6/5/5 5/2/6 2/1/7 3/6/8
f 4/3/9 5/2/10 8/7/11 7/8/12
f 5/2/13 6/5/14 9/9/15 8/7/16
f 7/8/17 8/7/18 11/10/19 10/11/20
f 8/7/21 9/9/22 12/12/23 11/10/24
f 11/10/25 14/13/26 13/14/27 10/11/28
f 15/15/29 14/13/30 11/10/31 12/12/32
f 17/16/33 15/15/34 12/12/35 9/9/36
f 6/5/37 3/6/38 17/16/39 9/9/40
f 16/17/41 7/8/42 10/11/43 13/14/44
f 1/4/45 4/3/46 7/8/47 16/17/48
